<?xml version="1.0" encoding="UTF-8" standalone="no"?>
<svg
   xmlns:dc="http://purl.org/dc/elements/1.1/"
   xmlns:cc="http://creativecommons.org/ns#"
   xmlns:rdf="http://www.w3.org/1999/02/22-rdf-syntax-ns#"
   xmlns:svg="http://www.w3.org/2000/svg"
   xmlns="http://www.w3.org/2000/svg"
   viewBox="0 0 132.93494 55.706402"
   height="55.706402"
   width="132.93494"
   xml:space="preserve"
   id="svg2"
   version="1.1"><metadata
     id="metadata8"><rdf:RDF><cc:Work
         rdf:about=""><dc:format>image/svg+xml</dc:format><dc:type
           rdf:resource="http://purl.org/dc/dcmitype/StillImage" /></cc:Work></rdf:RDF></metadata><defs
     id="defs6"><clipPath
       id="clipPath18"
       clipPathUnits="userSpaceOnUse"><path
         id="path16"
         d="M 0,41.78 H 99.701 V 0 H 0 Z" /></clipPath></defs><g
     transform="matrix(1.3333333,0,0,-1.3333333,0,55.7064)"
     id="g10"><g
       id="g12"><g
         clip-path="url(#clipPath18)"
         id="g14"><g
           transform="translate(33.3389,17.3447)"
           id="g20"><path
             id="path22"
             style="fill:#231f20;fill-opacity:1;fill-rule:nonzero;stroke:none"
             d="m 0,0 c -0.072,0.144 0,0.216 0.144,0.288 0.072,0 0.072,0.145 0.144,0.216 C 0.504,0.36 0.576,0.216 0.432,-0.072 0.36,-0.144 0.36,-0.433 0.144,-0.36 0,-0.36 0.072,-0.144 0,0 m -2.736,-8.209 -0.36,-0.216 c 0.143,-0.072 0.287,-0.144 0.36,-0.072 0.144,0.144 0,0.217 0,0.288 m -0.721,-1.513 c 0.217,0.073 0.144,0.289 0.217,0.433 0.072,0.072 -0.073,0.143 -0.144,0.072 -0.073,-0.143 -0.144,0.071 -0.288,0 0,-0.216 -0.144,-0.505 0.144,-0.72 0.071,0.072 0,0.215 0.071,0.215 m -10.008,9.866 c 0.072,0 0.072,0 0.072,0.072 -0.144,0.217 0,0.431 -0.072,0.721 -0.072,-0.073 -0.216,-0.145 -0.216,-0.217 0.072,-0.216 0.144,-0.36 0.144,-0.576 z m -3.313,13.753 c -0.143,-0.144 -0.143,-0.144 0,-0.288 z m -4.608,-5.112 c 0,0 0,0.071 0.072,0.144 -0.072,-0.073 -0.144,-0.073 -0.144,-0.073 -0.072,0 -0.144,-0.071 -0.072,-0.144 0,-0.071 0.072,-0.144 0.144,-0.071 0.072,0 0.072,0.071 0,0.144 m -2.16,-3.817 c 0,0.144 0.072,0.288 0.216,0.36 0.072,0 0.144,0.144 0.072,0.216 0,0.072 0,0.072 -0.072,0.072 -0.144,-0.072 -0.288,0 -0.36,-0.144 -0.072,-0.072 0.072,-0.144 0,-0.216 0,-0.072 -0.072,-0.072 -0.072,-0.144 V 4.968 c 0,-0.072 0.072,-0.072 0.072,-0.072 0.072,0 0.144,0 0.144,0.072 m -0.72,-6.192 c 0.072,0 0.072,0.072 0.072,0.144 -0.072,0.071 -0.072,0.143 -0.144,0.071 -0.144,-0.071 -0.216,-0.071 -0.288,0.072 -0.072,0.073 -0.072,0 -0.145,-0.072 0,-0.215 -0.143,-0.359 -0.071,-0.647 0.288,0.143 0.36,0.36 0.576,0.432 m -3.601,17.857 c 0,0 0,0.072 -0.071,0.072 -0.073,0 -0.073,0 -0.073,-0.072 0,0 0,-0.071 0.073,-0.071 0.071,0 0.071,0 0.071,0.071 m -1.008,-2.088 0.145,0.36 h -0.073 c -0.072,-0.072 -0.144,-0.144 -0.216,-0.288 l 0.072,-0.072 c 0.072,-0.072 0.072,0 0.072,0 m 21.314,-30.171 c -0.144,0.072 -0.288,0.072 -0.432,0.072 -0.144,0 -0.216,0.073 -0.36,0 -0.288,0.145 -0.576,0.145 -0.72,0.432 l -0.144,0.217 c -0.072,-0.073 -0.072,-0.145 -0.144,-0.217 -0.072,-0.144 -0.216,-0.144 -0.36,0 0,0 -0.072,0 -0.072,0.072 -0.072,0.072 -0.072,0.145 -0.216,0.072 -0.288,-0.072 -0.432,-0.072 -0.504,0.289 0,0.072 -0.072,0.143 -0.144,0.143 -0.072,0.072 -0.072,0.072 -0.144,0.072 -0.144,0.073 -0.144,0.217 -0.072,0.288 0.072,0.073 0.144,0.144 0,0.216 v 0.145 0.144 c -0.072,0.072 -0.216,0 -0.288,0.072 -0.072,0 -0.072,-0.072 -0.072,-0.072 0,-0.144 0.072,-0.144 0.144,-0.216 -0.216,-0.073 -0.36,-0.073 -0.576,0 0,0.144 0.072,0.288 -0.072,0.431 0,0.072 0.072,0.145 0.072,0.217 0,0.072 0.072,0.287 -0.144,0.216 -0.072,0 -0.144,0.071 -0.144,0.143 0,0.217 -0.216,0.289 -0.36,0.289 -0.072,0 -0.144,0 -0.216,0.072 0,0 -0.072,0.072 -0.072,0.143 0,0.145 -0.072,0.289 -0.144,0.504 -0.144,0.145 -0.144,0.361 -0.216,0.505 0,0.144 -0.072,0.288 -0.072,0.432 0,0.143 -0.072,0.216 -0.144,0.288 -0.144,0.144 -0.288,0.288 -0.288,0.576 v 0.072 c -0.216,0.216 -0.288,0.504 -0.216,0.792 -0.072,0.071 0,0.216 -0.144,0.361 -0.072,0.072 0,0.214 -0.144,0.287 -0.073,0 0,0.072 -0.073,0.144 v 0.792 c 0,0.216 -0.144,0.504 -0.071,0.72 -0.144,0.433 0,0.936 -0.073,1.369 -0.071,0.504 0.144,0.936 0.217,1.44 0.072,0.215 0,0.431 0.072,0.72 l 0.072,0.504 c 0,0.071 0.072,0.215 0,0.287 v 0.145 c 0.144,0.216 0.072,0.504 0.144,0.719 0.072,0.216 0.144,0.433 0.144,0.577 0.072,0.288 0.072,0.576 0.144,0.864 h -0.072 c -0.216,-0.217 -0.216,-0.217 -0.432,-0.145 h -0.072 c -0.073,0.073 -0.073,0 -0.144,-0.072 v -0.071 c 0.071,-0.072 0.144,-0.144 0.144,-0.216 0.072,-0.072 0.072,-0.145 0,-0.217 -0.073,-0.071 -0.144,-0.071 -0.217,0 -0.071,0 -0.071,0.072 0,0.145 0,0.144 -0.144,0 -0.215,0.072 0,0.144 -0.072,0.072 -0.144,0 0,-0.072 -0.072,-0.145 -0.144,-0.217 0,-0.143 -0.072,-0.143 -0.216,-0.215 -0.144,0 -0.144,-0.072 -0.144,-0.289 0,-0.072 0.071,-0.072 0.071,-0.143 0,-0.073 -0.071,-0.144 0,-0.144 0.073,-0.072 0.073,0.071 0.145,0.071 0,0.073 0.072,0.216 0.144,0.216 0,0 0.072,0.073 0.144,0 v -0.072 c 0,-0.144 -0.144,-0.215 0,-0.359 -0.072,-0.073 -0.072,-0.145 0.072,-0.216 l 0.072,-0.072 c -0.072,-0.144 0.071,-0.361 0,-0.504 l -0.144,-0.216 c -0.072,-0.145 -0.072,0 -0.072,0 l -0.216,-0.217 c -0.145,-0.071 -0.145,-0.144 -0.145,-0.359 0,-0.145 0,-0.145 -0.215,-0.145 -0.073,0 -0.144,-0.072 -0.288,-0.072 0.071,-0.071 0.071,-0.071 0.144,-0.071 0,-0.073 0.071,-0.073 0.071,-0.073 0,-0.143 -0.144,-0.215 -0.071,-0.215 0.071,-0.073 0,-0.073 -0.073,-0.073 -0.071,-0.072 -0.071,-0.072 -0.071,-0.143 0.144,-0.216 0,-0.433 -0.073,-0.649 -0.071,-0.36 -0.216,-0.719 -0.504,-1.008 -0.144,-0.215 -0.215,-0.503 -0.144,-0.719 0,-0.361 -0.071,-0.721 -0.215,-1.008 -0.145,-0.217 -0.289,-0.433 -0.504,-0.649 -0.144,-0.072 -0.217,-0.216 -0.288,-0.36 -0.145,-0.216 -0.289,-0.36 -0.433,-0.504 -0.144,-0.072 -0.216,-0.143 -0.359,-0.288 -0.145,-0.144 -0.361,-0.288 -0.577,-0.36 -0.288,-0.144 -0.576,-0.216 -0.792,-0.432 h -0.144 c -0.144,0 -0.288,-0.072 -0.432,-0.216 -0.144,-0.216 -0.36,-0.072 -0.576,-0.144 0,0 0,0.072 -0.072,0.072 -0.072,0.072 -0.144,0.072 -0.144,0 -0.072,-0.217 -0.144,-0.217 -0.288,-0.144 -0.216,0 -0.432,0 -0.576,-0.288 0,0 -0.072,-0.072 -0.144,0 -0.144,0 -0.288,-0.072 -0.432,0 -0.216,0 -0.36,0 -0.576,-0.144 -0.072,-0.072 -0.144,0 -0.216,0 -0.144,-0.072 -0.144,0 -0.144,0.072 0,0.072 0,0.144 -0.072,0.144 -0.216,-0.072 -0.576,0 -0.792,-0.072 -0.072,-0.072 -0.216,-0.072 -0.288,0 h -0.144 c -0.144,-0.072 -0.288,-0.144 -0.361,0 -0.215,-0.072 -0.359,0.072 -0.503,0 -0.433,0 -0.721,0.215 -1.008,0.432 -0.072,0 -0.072,0.145 -0.217,0.072 -0.359,0 -0.647,0.216 -0.936,0.36 -0.215,0.144 -0.288,0.216 -0.503,0.288 -0.073,0 -0.145,0.072 -0.217,0.143 0,0 -0.072,0.073 -0.143,0.073 -0.217,0.144 -0.432,0.216 -0.577,0.432 -0.144,0.216 -0.36,0.361 -0.432,0.575 -0.144,0.145 -0.215,0.289 -0.36,0.362 0,0 -0.072,0 -0.072,0.071 -0.216,0.288 -0.576,0.505 -0.72,0.864 -0.072,0.216 -0.288,0.216 -0.36,0.36 -0.216,0.361 -0.432,0.648 -0.576,1.008 v 0.072 c 0.144,0.217 -0.072,0.289 -0.144,0.432 -0.072,0.073 -0.144,0.144 -0.144,0.288 -0.072,0.289 -0.216,0.577 -0.504,0.865 -0.072,0.071 -0.144,0.288 -0.144,0.431 0,0.144 0,0.216 -0.144,0.216 -0.144,-0.072 -0.144,0 -0.144,0.072 0.072,0.361 0.072,0.721 -0.144,1.008 -0.072,0.072 -0.072,0.145 -0.072,0.217 0,0.359 -0.072,0.72 -0.072,1.08 0,0.072 0,0.072 -0.072,0.144 -0.072,0.143 -0.072,0.288 -0.072,0.432 0,0.144 0,0.287 -0.072,0.432 -0.144,0.721 -0.144,1.439 -0.144,2.088 0,0.144 0.072,0.217 -0.072,0.288 V 2.16 c 0.144,0.288 0.072,0.576 0,0.936 0.072,0.072 0.072,0.216 0.072,0.36 0.072,0.144 0.144,0.288 0.072,0.504 0,0.144 0.144,0.216 0.072,0.432 h 0.072 c 0.144,0.216 0.144,0.504 0.216,0.792 0,0.072 0,0.216 -0.072,0.288 0,0.216 0.144,0.432 0,0.649 0,0.071 0.072,0.144 0.072,0.144 0.072,0.143 0.072,0.215 0.072,0.287 0,0.073 0,0.217 0.072,0.217 0.072,0 0.072,0.071 0.072,0.071 0,0.288 0.144,0.505 0.288,0.792 0,0.073 0.072,0.217 0,0.288 -0.072,0.144 0,0.217 0.072,0.361 0.216,0.36 0.216,0.504 0.288,0.936 0,0.072 -0.072,0.072 0,0.072 0.216,0.144 0.144,0.432 0.216,0.648 0.072,0.072 0.072,0.216 0.144,0.288 0.216,0.432 0.432,0.864 0.576,1.296 0.144,0.432 0.288,0.792 0.504,1.152 0,0.072 0.072,0.144 0.144,0.216 0.072,0.072 0.144,0.144 0.144,0.288 0.072,0.144 0.072,0.288 0.36,0.36 0.072,0 0.072,0.144 0.072,0.216 0,0.072 0,0.144 0.072,0.216 0,0.072 0.144,0 0.217,0.072 v 0.072 c -0.073,0.288 0,0.432 0.215,0.504 0.144,0 0.216,0.072 0.288,0.144 0,0.144 -0.072,0.144 -0.144,0.216 0,0.072 0,0.144 0.072,0.072 0.144,-0.072 0.216,0.072 0.216,0.144 -0.144,0.216 0,0.288 0.072,0.36 0,0.072 0.073,0.072 0.073,0.072 0.071,0.216 0.144,0.216 0.359,0.216 0.216,0.072 0.144,0.072 0.144,0.288 0,0.216 0.072,0.36 0.144,0.576 v 0.072 c 0.36,0.144 0.504,0.504 0.792,0.721 0.145,0.144 0.289,0.287 0.36,0.431 0.073,0.072 0.073,0.144 0.144,0.144 0.144,0.073 0.361,0.073 0.288,0.361 0.145,0.071 0.217,0.144 0.361,0.288 0.072,0 0.143,0.071 0.143,0.144 0,0.071 0.073,0.143 0.144,0.071 0.073,-0.071 0.144,0.072 0.144,0.072 -0.071,0.361 0.217,0.361 0.433,0.432 l 0.576,0.217 c 0.144,0 0.288,0 0.36,0.144 0,0.072 0.072,0.072 0.072,0.072 0.072,-0.072 0.144,0 0.144,0.072 0,0.144 0.072,0.216 0.216,0.287 0.144,0 0.288,0.073 0.36,0.217 0.072,0.071 0.216,0.071 0.288,0.071 0.144,-0.071 0.288,-0.071 0.432,0.073 0.144,0.072 0.216,-0.073 0.36,0 0.144,-0.073 0.36,0 0.504,0.072 0.36,0.144 0.72,0.072 1.08,0 0.072,0 0.216,0 0.288,-0.072 0.144,0 0.216,0 0.288,-0.073 0.072,-0.071 0.144,-0.071 0.216,-0.071 0.144,0.071 0.288,0 0.432,-0.144 0.216,-0.073 0.36,-0.144 0.576,-0.288 0.216,-0.072 0.432,-0.072 0.504,-0.36 h 0.072 c 0.36,-0.144 0.72,-0.361 1.08,-0.432 0.217,-0.144 0.576,-0.217 0.792,-0.289 0.288,-0.071 0.505,-0.071 0.72,-0.144 l 0.433,-0.215 c 0.288,-0.217 0.576,-0.432 0.864,-0.721 0.144,-0.144 0.287,-0.215 0.504,-0.288 0.36,-0.215 0.576,-0.576 0.792,-0.936 0.071,-0.216 0.144,-0.432 0.288,-0.648 0.144,-0.288 0.144,-0.648 0.216,-0.936 0.072,-0.432 -0.072,-0.792 -0.288,-1.08 -0.145,-0.144 -0.216,-0.288 -0.216,-0.432 0,-0.072 -0.072,-0.144 -0.144,-0.216 -0.288,-0.36 -0.504,-0.648 -1.008,-0.648 -0.072,-0.072 -0.216,-0.072 -0.36,-0.144 -0.433,0 -0.721,0.144 -0.864,0.576 v 0.072 c -0.144,0.072 -0.217,0.144 -0.288,0.216 -0.073,0.144 -0.073,0.216 -0.217,0.36 -0.144,-0.216 -0.432,-0.288 -0.576,-0.504 0,-0.144 -0.143,-0.144 -0.216,-0.144 -0.215,0 -0.215,-0.144 -0.288,-0.216 0,-0.216 -0.144,-0.36 -0.36,-0.576 0,0 -0.072,-0.072 -0.072,-0.144 0,-0.216 -0.072,-0.288 -0.287,-0.36 -0.073,0 -0.073,-0.072 -0.145,-0.144 -0.072,-0.072 -0.144,-0.144 -0.216,-0.072 -0.288,0 -0.36,-0.144 -0.432,-0.288 -0.144,-0.288 -0.288,-0.576 -0.576,-0.792 -0.072,0 -0.072,-0.072 -0.216,-0.144 -0.072,0 -0.072,-0.072 -0.072,-0.144 0,-0.216 -0.144,-0.36 -0.288,-0.433 -0.216,-0.071 -0.216,-0.215 -0.288,-0.359 0,-0.072 -0.072,-0.216 -0.072,-0.36 -0.288,0.288 -0.36,0.648 -0.792,0.792 0.072,-0.144 0.216,-0.288 0.288,-0.36 0.072,-0.072 0.144,-0.144 0.216,-0.288 0.072,-0.072 0.144,-0.144 0.072,-0.217 0,-0.071 0.072,-0.071 0.072,-0.071 l 0.216,-0.144 c -0.072,-0.073 -0.144,-0.144 -0.216,-0.217 -0.072,0 -0.144,-0.071 -0.144,-0.143 -0.072,-0.144 -0.072,-0.144 -0.288,-0.288 0.072,0 0.072,-0.073 0.072,-0.073 0,-0.144 0.216,-0.144 0.216,-0.215 0,-0.144 -0.144,-0.288 -0.144,-0.432 -0.072,-0.072 -0.144,-0.145 -0.216,-0.145 -0.144,0.073 -0.072,0.216 -0.072,0.36 0.072,0.144 0.072,0.144 -0.072,0.217 -0.072,0 -0.072,0.144 -0.144,0.144 -0.216,-0.073 -0.144,-0.288 -0.144,-0.432 0,-0.144 0.072,-0.216 0,-0.289 -0.144,-0.144 -0.072,-0.288 0.072,-0.359 0,-0.073 0.072,-0.073 0,-0.144 -0.144,-0.217 0,-0.361 -0.072,-0.577 0,-0.215 -0.072,-0.359 -0.216,-0.359 C -21.674,5.76 -21.818,5.76 -21.89,5.688 h -0.216 c -0.144,0.072 0,0.145 -0.072,0.216 H -22.25 V 5.544 C -22.178,5.4 -22.178,5.184 -22.394,5.112 -22.538,5.041 -22.61,4.968 -22.682,4.896 -22.826,4.68 -22.826,4.68 -23.042,4.968 L -23.258,4.68 c 0.288,-0.36 0.288,-0.288 -0.072,-0.432 -0.216,-0.072 -0.504,-0.072 -0.72,0.072 0,-0.072 0,-0.216 -0.144,-0.216 C -24.338,4.176 -24.41,4.032 -24.41,3.96 V 3.312 c 0,-0.144 0.072,-0.216 0.144,-0.288 0.144,0 0.216,0.072 0.288,0.216 v 0.072 c 0,0.144 0.144,0.144 0.216,0.072 0.072,0 0.216,-0.216 0.216,-0.36 -0.072,-0.072 -0.072,-0.144 -0.072,-0.144 -0.144,-0.216 -0.216,-0.432 -0.216,-0.648 0,-0.215 -0.072,-0.36 -0.288,-0.432 -0.072,0 -0.216,0 -0.216,-0.144 0,-0.143 0,-0.288 0.216,-0.36 -0.144,-0.145 -0.216,-0.216 -0.432,-0.216 -0.072,0.071 -0.144,0.071 -0.217,0 -0.071,-0.072 -0.215,-0.072 -0.359,0 V 0.792 c 0,0 0,-0.072 0.072,-0.072 0.216,0.072 0.36,0.144 0.504,0.36 0,-0.143 0,-0.288 -0.072,-0.433 -0.072,-0.143 0.072,-0.287 0.072,-0.287 0.288,0 0.36,-0.289 0.504,-0.36 0,-0.144 -0.144,-0.144 -0.144,-0.144 -0.072,-0.072 -0.144,-0.144 0,-0.144 0.072,0 0.144,-0.072 0.144,-0.072 0.072,-0.145 0.216,-0.216 0.36,-0.216 0.144,0.071 0.216,0 0.288,-0.072 0,-0.072 0,-0.144 -0.072,-0.144 -0.144,0 -0.144,-0.072 -0.144,-0.217 0,-0.071 -0.072,-0.071 -0.072,-0.071 -0.144,0.071 -0.144,-0.072 -0.144,-0.144 0,0 0.072,-0.072 0.072,-0.144 0.216,-0.145 0.072,-0.361 0,-0.504 -0.072,-0.072 -0.144,-0.145 -0.216,-0.072 -0.144,0 -0.144,0 -0.144,-0.145 l -0.072,-0.504 c -0.072,-0.359 -0.216,-0.431 -0.577,-0.287 0,0 -0.071,0 -0.071,0.071 -0.072,0 -0.072,-0.071 -0.144,-0.071 0,0 0,-0.072 0.072,-0.144 0,-0.073 0.143,-0.073 0.216,-0.073 0.072,0.073 0.144,0 0.216,-0.072 0.144,-0.215 0.288,-0.432 0.432,-0.576 0.072,-0.071 0.072,-0.144 0,-0.215 0,-0.217 -0.072,-0.433 -0.072,-0.648 0,-0.073 -0.072,-0.145 -0.144,-0.217 -0.144,-0.144 -0.144,-0.215 0,-0.36 0.144,-0.144 0.216,-0.359 0.072,-0.576 v -0.072 c 0,-0.216 0,-0.287 -0.144,-0.432 -0.072,-0.144 -0.072,-0.215 0.072,-0.288 l 0.36,-0.432 c 0.072,-0.072 0.072,-0.144 0.072,-0.215 0.072,-0.072 0.216,0.071 0.288,0 0,-0.072 0.072,-0.072 0.144,-0.145 0.072,-0.072 0.144,-0.288 0.36,-0.216 0.072,0.072 0.144,-0.143 0.144,-0.215 0,-0.073 -0.072,-0.145 -0.216,-0.145 -0.072,0 -0.144,0.072 -0.144,0 0,-0.072 0.072,-0.072 0.072,-0.144 0.144,-0.072 0.216,0 0.36,-0.072 0,-0.072 0.144,0.072 0.216,0.144 0.072,0.072 0.144,0.217 0.288,0.289 0.072,0 0.072,-0.145 0.072,-0.145 0,-0.072 0,-0.144 0.072,-0.072 0.144,0.145 0.288,-0.072 0.432,0 0.288,0.072 0.504,0.217 0.792,0.36 0.216,0.144 0.504,0.361 0.72,0.576 l 0.216,0.216 c 0.072,0.216 0.216,0.432 0.504,0.504 0.072,0 0.144,0.073 0.144,0.073 0.216,0.143 0.288,0.431 0.504,0.504 0.144,0 -0.072,0.215 0.072,0.215 0.144,0.073 0.144,0.144 0.288,0.216 -0.072,0.072 -0.072,0.145 0,0.072 0.216,0 0.288,0.216 0.505,0.289 0.143,0.071 0.287,0.215 0.287,0.432 0.216,0.144 0.288,0.432 0.505,0.575 0.071,0.073 0.071,0.073 0.071,0.216 -0.144,0.145 -0.071,0.289 0.073,0.504 0.215,0.145 0.287,0.433 0.431,0.576 0.217,0.289 0.217,0.576 0.505,0.793 0,0.071 0.071,0.144 0.071,0.215 0,0.072 -0.071,0.217 0.073,0.361 0.071,0.072 0,0.287 0,0.36 0.071,0.144 0.071,0.288 0.071,0.431 0,0.145 0.144,0.289 0.217,0.361 0.287,0.288 0.431,0.576 0.504,0.936 l 0.215,0.72 c 0,0.072 0.073,0.144 0.073,0.144 0.288,0.216 0.36,0.504 0.432,0.72 0.072,0.216 0.143,0.288 0.287,0.36 0.073,0.072 0.144,0.144 0.073,0.288 0,0.216 -0.073,0.432 0.144,0.648 0.072,0.072 0.072,0.144 0,0.288 0,0.072 -0.073,0.216 0.144,0.288 0,0.36 0.216,0.504 0.36,0.792 l -0.072,0.073 c 0,0.071 -0.144,0.071 -0.072,0.143 0.072,0.144 -0.072,0.288 0.072,0.36 0.144,0.145 0.144,0.289 0.144,0.504 0,0.073 0,0.144 0.072,0.144 0.071,0 0.144,-0.071 0.144,-0.071 0,-0.073 0.072,-0.073 0.072,-0.073 0.072,0 0.072,0.073 0.072,0.073 0,0.143 0,0.215 -0.072,0.36 -0.145,0.215 -0.145,0.359 0,0.647 0,0.073 0,0.145 0.072,0.289 0.072,0.215 0,0.432 0.216,0.576 0.072,0.071 0,0.288 0,0.431 -0.072,0.144 -0.072,0.288 -0.072,0.432 v 0.145 c -0.144,0.216 0,0.432 0.072,0.576 l 0.216,0.648 c 0.072,0.144 0.072,0.288 0.216,0.432 0.072,0.072 0.072,0.216 0.072,0.288 0,0.288 0.144,0.432 0.36,0.504 0.072,0.072 0.216,0.144 0.36,0.144 0.144,0.072 0.36,0.072 0.504,-0.072 h 0.072 c 0.216,0.216 0.36,-0.144 0.576,-0.072 0.072,0.072 0.144,0 0.144,0 0.144,-0.144 0.36,-0.144 0.504,-0.36 h 0.072 c 0.216,0 0.36,-0.072 0.576,-0.216 0.144,-0.144 0.288,-0.288 0.504,-0.288 0,0 0.072,-0.072 0.072,-0.144 0.072,-0.072 0.144,-0.144 0.216,-0.072 h 0.144 c 0.144,-0.072 0.36,-0.144 0.504,-0.144 0.216,0 0.36,-0.072 0.576,-0.144 0.216,0 0.432,-0.072 0.504,-0.288 0,-0.072 0.072,-0.145 0.145,-0.072 0.287,0 0.431,-0.144 0.647,-0.288 0.145,-0.144 0.289,-0.288 0.433,-0.504 0.071,-0.144 0.215,-0.288 0.359,-0.361 0.072,-0.071 0.145,-0.144 0.145,-0.287 0,-0.361 0.071,-0.576 0.432,-0.937 0,-0.071 0.071,-0.071 0.071,-0.143 -0.071,-0.217 0.144,-0.432 0.073,-0.72 -0.073,-0.073 0,-0.217 0.071,-0.217 0.073,-0.143 0.073,-0.287 0.073,-0.431 0,-0.217 0.072,-0.361 0.072,-0.577 L -4.176,4.896 C -4.104,4.608 -4.104,4.392 -4.033,4.176 -3.96,3.96 -4.104,3.816 -4.104,3.6 c 0,-0.144 0,-0.36 0.071,-0.504 V 2.808 c -0.143,-0.216 -0.071,-0.504 -0.143,-0.72 -0.073,-0.288 0,-0.504 0,-0.72 V 0.504 C -4.176,0.288 -4.249,0 -4.249,-0.288 L -4.464,-1.44 c 0,-0.073 -0.073,-0.145 0,-0.216 V -1.8 c -0.288,-0.072 -0.217,-0.432 -0.361,-0.576 -0.071,-0.072 0.144,-0.145 0.073,-0.289 -0.144,-0.071 0,-0.215 -0.073,-0.359 -0.144,-0.073 0,-0.216 -0.071,-0.289 0,-0.071 0.071,-0.143 0,-0.143 -0.145,-0.072 -0.145,-0.145 -0.145,-0.289 V -4.177 C -5.113,-4.464 -5.256,-4.681 -5.4,-4.896 -5.473,-4.969 -5.544,-5.04 -5.544,-5.185 c -0.073,-0.072 -0.144,-0.215 0,-0.288 0,-0.071 0.071,-0.143 0,-0.215 -0.073,-0.073 -0.073,-0.145 -0.073,-0.145 0.073,-0.072 0,-0.144 0,-0.144 -0.216,-0.215 -0.288,-0.215 -0.216,-0.432 0.072,-0.071 0,-0.144 0,-0.287 0,-0.145 -0.072,-0.145 -0.216,-0.073 -0.072,-0.072 0,-0.072 0.072,-0.144 0,-0.072 0.144,-0.072 0.144,-0.072 -0.144,-0.144 -0.072,-0.215 -0.144,-0.287 -0.216,-0.073 -0.216,-0.289 -0.144,-0.361 0.144,-0.288 -0.072,-0.432 -0.144,-0.576 -0.072,0 -0.144,0 -0.072,-0.071 0,-0.145 0.072,-0.217 0.072,-0.362 -0.072,-0.142 0.072,-0.142 0.072,-0.287 0.072,-0.072 0,-0.144 0,-0.217 -0.144,-0.071 -0.072,-0.214 -0.072,-0.287 v -0.289 c 0,-0.287 0.144,-0.431 0.288,-0.504 0.216,-0.071 0.289,-0.287 0.433,-0.287 0.215,0 0.288,0.216 0.359,0.36 0.072,0 0.144,0.072 0.216,0.072 0.217,0.072 0.361,0.216 0.576,0.359 0.144,0.073 0.217,0.217 0.217,0.433 0,0.143 0.072,0.216 0.216,0.288 0.071,0 0.144,0.217 0.144,0.432 0,0.144 0.071,0.289 0.071,0.432 l 0.073,0.072 c 0.144,-0.072 0.215,0 0.288,0.072 0,0 0.071,0.072 0.071,0 0.217,-0.072 0.289,0.072 0.36,0.144 0,0.145 -0.143,0.145 -0.215,0.216 -0.072,0.072 -0.072,0.144 0,0.288 l 0.432,0.288 c 0,0.072 0.071,0.072 0.144,0 V -7.2 c -0.217,-0.072 0,-0.361 -0.217,-0.433 0,-0.071 0.073,-0.143 0.144,-0.216 0.073,0 0.144,0 0.144,0.073 0,0.143 0.073,0.215 0.217,0.287 0.072,0.072 0.072,0.072 0.072,0.144 0,0.145 0.072,0.145 0.144,0.216 0.072,0.072 0.216,0.216 0.072,0.36 0,0 0,0.073 0.072,0.073 0.072,0.072 0.144,0.287 0.215,0.287 0.289,0.072 0.217,0.289 0.217,0.432 v 0.144 c 0.216,0.145 0.144,0.36 0.144,0.504 0.072,0.289 0,0.648 0.216,0.865 v 0.144 c -0.144,0.143 -0.072,0.216 0,0.288 0.072,0.072 0.144,0.072 0.144,0.216 0,0.071 0.144,0.071 0.216,0.071 0.072,-0.071 0.072,-0.144 0.072,-0.144 0,-0.143 -0.072,-0.288 -0.072,-0.431 0.072,0 0.216,0.071 0.288,0 0,-0.073 0.072,0 0.072,0.071 -0.216,0.072 -0.072,0.145 0,0.217 0.072,0.072 0.144,0.143 0.072,0.287 0,0.144 0,0.361 0.216,0.432 C 0,-3.169 0.144,-3.024 0,-2.809 v 0.073 c 0.216,0.143 0.216,0.576 0.576,0.576 0.072,0 0.072,0.143 0,0.216 0,0 -0.072,0 -0.072,0.072 C 0.36,-1.8 0.288,-1.8 0.432,-1.656 V -1.44 H 0.36 0.288 C 0.216,-1.44 0.216,-1.585 0.216,-1.585 0.144,-1.729 0.144,-1.872 0,-2.017 -0.072,-2.16 -0.144,-2.304 -0.072,-2.448 0,-2.665 -0.216,-2.88 -0.432,-2.88 -0.648,-2.952 -0.648,-2.952 -0.72,-3.024 c -0.072,0 -0.072,0.072 -0.072,0.144 0,0.144 0.072,0.287 0,0.504 0,0.072 0.072,0.216 0.216,0.287 0,0 0.072,0.072 0,0.145 -0.072,0.144 0.072,0.359 -0.072,0.504 v 0.072 c 0.216,0.072 0.144,0.431 0.432,0.431 0.072,0.073 0.144,0.145 0.288,0.073 0.072,0 0.216,0.072 0.288,0.144 0.072,-0.144 0.144,-0.217 0.144,-0.289 H 0.648 C 0.72,-0.792 0.936,-0.576 1.152,-0.505 1.296,-0.36 1.368,0 1.224,0.144 1.152,0.216 1.08,0.288 1.08,0.433 1.08,0.575 1.224,0.575 1.368,0.647 1.296,0.792 1.152,0.864 1.152,1.008 l 0.216,0.216 c 0.072,0.144 0.144,0.144 0.288,0.072 -0.072,0.144 0,0.288 -0.216,0.36 -0.072,0 0,0.144 0,0.144 V 1.944 C 1.368,2.017 1.296,1.944 1.296,1.872 1.08,1.656 0.936,1.368 0.864,1.008 V 0.937 C 0.792,0.792 0.576,0.72 0.432,0.792 c -0.072,0 0,0.072 -0.072,0.145 -0.072,0.071 -0.144,0.143 -0.072,0.214 0,0.217 0,0.433 0.144,0.577 0.072,0.072 0.144,0.144 0.216,0.289 0.072,0 0.144,0.071 0.144,0.215 0,0.216 0.216,0.288 0.144,0.504 L 1.152,2.88 c 0,0.072 0.072,0.072 0.144,0 0,0 0.072,-0.072 0,-0.144 C 1.224,2.592 1.368,2.52 1.512,2.376 1.656,2.52 1.728,2.664 1.656,2.808 c -0.072,0.144 0,0.288 0,0.36 0.072,0.288 0.072,0.288 -0.144,0.288 -0.072,0 -0.072,-0.072 -0.144,0 0,0.072 0.072,0.216 0,0.36 -0.072,0 0,0.072 0,0.072 0.144,0.216 0.216,0.36 0.216,0.576 l 0.072,0.288 c 0.072,0.072 0.072,0.144 0.216,0.072 0,0 0.144,-0.072 0.144,0 0,0.144 0.144,0.217 0,0.288 -0.072,0.144 -0.072,0.36 -0.216,0.432 -0.072,0 -0.072,0.072 0,0.144 0,0.072 0.072,0.145 0.144,0.145 0.072,0.144 0.072,0.144 0,0.288 0,0.144 0,0.359 0.144,0.431 0.288,0.217 0.216,0.576 0.216,0.865 0,0.071 0.144,0.215 -0.072,0.288 0,0 0.072,0.144 0.072,0.215 0,0.217 0.072,0.505 0.288,0.648 L 2.664,8.641 C 2.664,9 3.024,9 3.24,9.145 c 0,0.072 0.144,0.072 0.216,0.072 0.072,-0.072 0.144,-0.144 0.216,0 0.072,0.144 0.216,0 0.288,0 0.072,0.072 0.072,0.216 0.216,0.144 0.144,0 0.36,0.144 0.576,0 0.072,-0.072 0.144,0.072 0.289,0 C 5.184,9.217 5.256,9 5.112,8.856 5.041,8.785 4.968,8.712 5.041,8.641 V 8.425 C 4.968,8.353 4.968,8.208 4.968,8.137 4.968,7.92 4.896,7.705 4.824,7.561 4.752,7.272 4.752,6.913 4.68,6.625 4.68,6.48 4.608,6.336 4.536,6.192 4.464,6.048 4.32,5.977 4.536,5.833 4.464,5.616 4.536,5.472 4.392,5.256 4.104,4.68 3.888,4.104 3.816,3.456 3.744,3.168 3.744,2.88 3.6,2.664 3.456,2.376 3.456,2.017 3.312,1.656 V 1.513 C 3.24,1.44 3.168,1.296 3.312,1.224 3.24,1.151 3.24,1.08 3.24,1.008 3.24,0.864 3.096,0.792 3.096,0.72 c 0.072,-0.073 0,-0.145 0,-0.216 V 0.216 c 0,-0.145 0,-0.288 -0.072,-0.36 C 2.952,-0.216 2.952,-0.288 2.952,-0.36 3.024,-0.36 3.024,-0.433 3.024,-0.505 3.096,-0.648 2.808,-0.72 2.952,-0.864 3.096,-1.009 2.88,-1.152 2.952,-1.296 3.024,-1.368 2.88,-1.44 2.88,-1.513 3.024,-1.729 2.88,-1.872 2.664,-2.017 2.664,-2.089 2.592,-2.089 2.592,-2.16 2.664,-2.376 2.52,-2.521 2.376,-2.736 2.16,-3.097 1.872,-3.456 1.728,-3.816 1.656,-4.104 1.584,-4.32 1.584,-4.536 1.512,-4.969 1.224,-5.257 1.08,-5.544 L 0.72,-6.192 C 0.648,-6.265 0.648,-6.337 0.648,-6.409 c 0,-0.36 -0.144,-0.648 0,-1.08 0,-0.072 -0.072,-0.287 -0.072,-0.432 -0.144,-0.216 -0.144,-0.432 -0.36,-0.648 -0.144,-0.215 -0.144,-0.504 -0.36,-0.648 -0.144,-0.072 -0.072,-0.216 -0.144,-0.36 -0.072,-0.288 -0.144,-0.432 -0.288,-0.649 -0.144,-0.287 -0.36,-0.503 -0.432,-0.863 -0.144,-0.288 -0.216,-0.648 -0.36,-0.936 -0.072,-0.072 -0.072,-0.144 -0.072,-0.144 -0.072,-0.072 -0.216,-0.072 -0.216,-0.217 -0.073,-0.071 -0.073,-0.143 -0.073,-0.215 -0.071,-0.144 -0.143,-0.289 -0.287,-0.289 -0.216,-0.072 -0.288,-0.215 -0.432,-0.359 -0.073,-0.145 -0.144,-0.288 -0.361,-0.288 0,0.071 -0.071,0 -0.071,-0.072 -0.288,-0.504 -0.36,-0.577 -0.792,-0.72 -0.073,-0.072 -0.144,-0.072 -0.217,-0.072 -0.071,0.072 -0.144,0 -0.215,-0.073 -0.072,-0.072 -0.072,-0.072 0,-0.143 0,0 0,-0.072 -0.072,-0.072 -0.144,0.143 -0.288,0 -0.432,-0.144 -0.433,-0.217 -0.792,-0.504 -1.297,-0.576 -0.36,-0.072 -0.72,-0.217 -1.152,-0.072 -0.072,0.072 -0.288,0.072 -0.144,-0.145 0,0 -0.072,-0.071 -0.144,-0.071 -0.072,0 -0.144,0 -0.216,0.071" /></g><g
           transform="translate(58.7461,13.5205)"
           id="g24"><path
             id="path26"
             style="fill:#231f20;fill-opacity:1;fill-rule:nonzero;stroke:none"
             d="m 0,0 c 0.043,0.043 0.043,0.086 0,0.129 0,0.043 -0.043,0.043 -0.043,0 C -0.129,0.086 -0.215,0.086 -0.301,0.172 -0.301,0.086 -0.344,0 -0.215,0 -0.172,0 -0.129,-0.043 -0.129,-0.086 -0.043,-0.129 -0.043,-0.043 0,0 m -4.473,17.845 c 0,0.086 -0.086,0.129 -0.129,0.215 0,0.043 -0.043,0.043 -0.043,0.043 -0.042,-0.043 -0.085,-0.086 -0.042,-0.129 0,-0.043 -0.086,-0.086 0,-0.129 0.042,0 0.085,-0.043 0.128,-0.043 0.043,-0.043 0.086,0 0.086,0.043 m -0.343,-1.032 c 0,0 0,0.043 -0.043,0.043 -0.043,-0.043 -0.086,-0.043 -0.086,-0.086 0,-0.043 0.043,-0.043 0.043,-0.043 0.043,0 0.086,0 0.086,0.086 m 0.343,-0.86 c 0,0.086 0.087,0.086 0.087,0.129 0.043,0.043 -0.043,0.086 0,0.172 v 0.043 c -0.13,0 -0.259,0 -0.387,-0.043 -0.043,-0.043 -0.043,0 -0.043,0.043 0,0.129 0,0.215 -0.129,0.258 -0.086,-0.043 -0.086,-0.172 -0.129,-0.215 l 0.043,-0.043 c 0.086,-0.086 0.129,-0.129 0.215,-0.172 0.086,-0.043 0.214,-0.043 0.257,-0.172 z m -0.644,-0.344 c 0.086,0.043 0.215,0.129 0.344,0.043 h 0.086 c 0,0.043 -0.043,0.215 -0.043,0.215 -0.086,0.043 -0.172,0.086 -0.258,0 -0.086,-0.043 -0.258,-0.086 -0.172,-0.258 z M -5.375,-6.622 c 0.043,0.043 0.043,0 0.086,0 l 0.387,-0.129 0.043,-0.043 c 0,0 0,-0.043 -0.043,-0.043 L -5.074,-6.88 c -0.043,0 -0.043,0.043 -0.043,0.043 -0.043,0.086 0,0.043 -0.043,0 -0.043,-0.043 -0.129,-0.043 -0.215,-0.086 h -0.043 c -0.086,0.086 -0.086,0.258 0.043,0.301 M -5.461,4.343 c 0.086,0.172 0.043,0.386 -0.043,0.558 0,0 -0.043,0 -0.043,-0.043 V 4.815 c 0,-0.128 0.043,-0.257 -0.129,-0.386 -0.043,0 0,-0.129 0.086,-0.172 0.086,-0.043 0.086,0.043 0.129,0.086 m -0.516,-8.041 c 0,0.043 -0.043,0.043 -0.085,0.086 v -0.086 c 0,0 0,-0.043 0.042,-0.043 0.043,0 0.043,0 0.043,0.043 m 0,6.235 v 0.086 c 0,0.086 0.086,0.086 0.172,0.043 0,-0.043 0,-0.043 0.043,-0.043 0,0.043 0.043,0.043 0.043,0.043 0,0.086 -0.043,0.129 -0.129,0.172 -0.086,0 -0.129,0.086 -0.214,0.129 -0.043,-0.043 -0.043,-0.172 -0.043,-0.215 -0.043,-0.129 0,-0.215 0.085,-0.301 0.043,0 0.043,0.043 0.043,0.086 m 0.215,0.817 c 0.086,0.086 0.129,0.215 0.086,0.387 0,0.043 -0.043,0.086 -0.129,0.043 -0.043,0 -0.043,0 -0.086,0.043 0,0.043 -0.043,0.086 -0.043,0.172 0,0.043 -0.043,0.086 -0.043,0.129 -0.043,0.043 -0.085,0.043 -0.128,0 0,-0.129 -0.043,-0.215 -0.043,-0.344 0,-0.172 0.043,-0.344 0.214,-0.472 0.086,-0.043 0.129,-0.043 0.172,0.042 M -5.848,-2.58 c 0,0.043 0.043,0.086 0.043,0.086 0.043,0.044 0.043,0.087 0,0.087 -0.086,0.043 -0.086,0.129 -0.129,0.172 -0.128,0 -0.043,0.129 -0.128,0.172 v 0.042 c 0.085,0.043 0.128,0.086 0.085,0.172 v 0.043 c 0,0.086 -0.043,0.172 -0.085,0.172 -0.172,-0.043 -0.129,-0.172 -0.129,-0.258 0,-0.086 0.043,-0.129 0.129,-0.171 -0.043,-0.086 -0.172,-0.086 -0.129,-0.215 -0.086,-0.043 -0.043,-0.086 -0.043,-0.172 0.043,-0.044 0.043,-0.087 0.043,-0.13 0,-0.086 0.043,-0.172 0.129,-0.258 0.042,0.129 0.128,0.215 0.214,0.258 m -0.817,3.183 c -0.043,0 -0.086,-0.129 -0.129,-0.129 0.086,-0.043 0.086,-0.129 0.215,-0.086 z m -0.603,12.856 c -0.043,0.086 -0.128,0.043 -0.214,0.043 -0.086,0.043 -0.129,0.086 -0.215,0.043 -0.043,0 -0.043,0.043 -0.043,0.043 0.043,0.043 0,0.086 -0.043,0.086 -0.172,-0.043 -0.344,0 -0.516,0.086 -0.043,0 -0.086,0 -0.086,0.043 -0.387,0 -0.645,0.301 -0.903,0.473 -0.043,0 -0.043,0.043 -0.043,0.043 0.043,0.129 0,0.086 -0.043,0.043 -0.043,0 -0.086,0 -0.086,0.043 0,0.043 0,0.086 -0.043,0.129 -0.043,0.043 0.086,0.172 -0.086,0.172 0,0.172 -0.086,0.258 -0.086,0.43 v 0.258 c 0,0.258 -0.043,0.516 -0.086,0.731 v 0.559 0.688 c 0,0.387 0.043,0.731 0.043,1.118 0,0 0,0.043 0.043,0.086 0.043,0.257 0.043,0.559 0.043,0.817 0,0.043 0,0.086 -0.043,0.128 -0.043,0.044 -0.043,0.13 -0.043,0.216 0,0.043 -0.043,0.086 -0.086,0.129 -0.086,0.086 -0.086,0.172 0.043,0.258 0.043,0.043 0.129,0.043 0.172,0.085 l 0.43,0.13 c 0.086,0.043 0.215,0.086 0.301,0.086 0.258,0 0.473,0 0.688,0.086 h 0.215 c 0.129,-0.043 0.258,-0.043 0.344,-0.043 0.172,0 0.343,-0.086 0.473,-0.043 0.043,0 0.086,-0.043 0.086,-0.086 0.043,-0.043 0.129,-0.087 0.172,-0.087 0.215,0 0.344,-0.128 0.517,-0.171 0.043,-0.043 0.086,-0.043 0.086,-0.086 0.129,-0.129 0.257,-0.172 0.386,-0.129 0.129,0 0.215,0 0.344,-0.043 0.086,-0.043 0.172,-0.043 0.172,-0.172 0,-0.086 0.086,-0.086 0.172,-0.086 0.043,0 0.086,-0.044 0.129,-0.086 0.043,-0.129 0.172,-0.086 0.258,-0.086 0.171,-0.043 0.171,-0.043 0.214,-0.215 0,-0.086 0.043,-0.129 0.086,-0.215 0.043,0 0.087,-0.087 0.13,-0.13 0.043,-0.042 0.043,-0.042 0,-0.128 v -0.043 c -0.043,-0.086 -0.087,-0.172 0.043,-0.129 0.086,-0.086 0.215,0 0.301,-0.086 0.043,-0.086 0.086,-0.129 0.086,-0.215 0,-0.086 0.043,-0.129 0.043,-0.172 0.086,-0.172 0.043,-0.344 0,-0.516 0,0 -0.043,-0.044 -0.086,-0.044 -0.172,0.044 -0.258,-0.085 -0.215,-0.257 v -0.129 c 0.043,0.043 0.086,0.043 0.086,0.129 0.172,-0.129 0.172,-0.258 0.043,-0.516 -0.086,-0.086 0,-0.215 -0.086,-0.301 0,-0.043 0.043,-0.086 0.086,-0.086 0.043,-0.043 0.043,-0.086 0,-0.129 0,-0.043 -0.043,-0.086 -0.086,-0.129 -0.043,0 -0.043,-0.043 -0.043,-0.086 C -4.171,15.91 -4.3,15.91 -4.3,15.824 l -0.043,-0.301 c 0,-0.086 0,-0.172 -0.043,-0.215 -0.087,-0.086 -0.087,-0.172 -0.087,-0.258 -0.129,0 -0.214,0.086 -0.3,0.129 -0.043,0 -0.043,0 -0.043,0.043 0,0.086 -0.043,0.086 -0.086,0.086 -0.129,0.043 -0.215,0.086 -0.215,0.172 -0.043,0.043 -0.086,0 -0.086,0 -0.043,-0.043 0,-0.043 -0.043,-0.086 0,-0.129 -0.129,-0.215 -0.258,-0.215 h -0.172 c 0.043,-0.129 0.172,-0.086 0.258,-0.172 0.043,-0.043 0.129,-0.129 0.215,-0.172 -0.086,-0.043 -0.129,-0.129 -0.215,-0.215 0,-0.043 0.043,-0.086 0.086,-0.086 0.043,0 0.086,0.043 0.129,0.086 0.043,0 0.043,0.043 0.086,0.043 0,0.043 0.086,0.043 0.086,-0.043 0,-0.086 -0.043,-0.172 -0.043,-0.258 0.301,-0.043 0.344,0 0.344,0.301 0.043,0 0.043,-0.043 0.043,-0.086 0.042,-0.086 0.085,-0.129 0.085,-0.215 -0.085,-0.129 -0.128,-0.258 -0.257,-0.344 -0.043,-0.043 -0.129,0 -0.172,0 -0.043,0 -0.086,-0.043 -0.086,-0.086 0,-0.043 -0.043,-0.086 -0.086,-0.129 -0.086,-0.043 -0.129,-0.129 -0.172,-0.172 -0.086,-0.043 -0.129,-0.086 -0.172,0 -0.043,0.043 -0.043,0.043 -0.086,0 -0.215,-0.129 -0.429,-0.172 -0.644,-0.172 -0.043,0 -0.086,0 -0.129,-0.043 -0.13,0 -0.259,0 -0.345,-0.043 -0.172,0.086 -0.344,0.043 -0.517,0.086 m 0.819,-22.231 c -0.044,0.085 -0.13,0.085 -0.216,0.043 -0.129,-0.086 -0.301,-0.043 -0.43,-0.043 -0.13,0.043 -0.259,0.043 -0.344,0.128 -0.086,0.044 -0.215,0.044 -0.301,0.044 -0.215,-0.044 -0.387,0.043 -0.559,0.129 -0.215,0.086 -0.387,0.215 -0.559,0.344 -0.043,0.043 -0.086,0.086 -0.129,0.086 -0.043,0 -0.129,0.043 -0.172,0.13 0,0.043 -0.086,0.043 -0.129,0.129 -0.129,0.086 -0.215,0.129 -0.301,0.301 -0.086,0.128 -0.215,0.214 -0.301,0.343 -0.172,0.215 -0.215,0.516 -0.344,0.731 0,0.258 -0.086,0.429 -0.129,0.688 -0.043,0.215 -0.043,0.43 -0.129,0.689 -0.043,0.129 0.043,0.258 0,0.386 -0.086,0.129 -0.043,0.258 -0.086,0.387 0,0.086 0.043,0.215 -0.043,0.301 -0.043,0.086 0.043,0.215 -0.043,0.301 0,0.215 -0.129,0.472 -0.086,0.731 0,0.043 0,0.129 -0.043,0.215 v 0.086 c 0.043,0.129 0.043,0.259 0.043,0.345 v 0.472 0.473 c 0,0.129 0.043,0.258 -0.043,0.344 v 0.043 c 0.086,0.043 0.086,0.129 0.043,0.215 -0.043,0.085 0.043,0.171 0.043,0.257 0,0.086 -0.043,0.173 -0.043,0.259 0,0.086 0.086,0.129 0.086,0.215 v 0.431 c 0,0.172 0,0.3 0.043,0.429 v 0.215 0.258 c 0,0.086 0.086,0.215 0,0.301 v 0.129 c 0.043,0.086 0.043,0.215 0.043,0.3 0,0.086 -0.043,0.172 0.086,0.258 0.043,0 0.043,0.13 0,0.173 -0.086,0.043 -0.043,0.129 0,0.172 0.043,0.043 0.043,0.086 0,0.129 -0.043,0.043 -0.043,0.129 -0.043,0.172 0,0.087 0,0.13 0.043,0.173 0.043,0.172 0.043,0.257 -0.043,0.386 0.086,0.043 0.129,0.043 0.129,0.129 v 0.258 c 0,0.043 0,0.086 0.043,0.129 0,0 0.043,0 0,0.043 -0.086,0 -0.043,0.043 -0.043,0.129 0,0.086 0.043,0.172 0.086,0.258 0.043,0.043 0.043,0.086 0,0.129 -0.043,0.043 -0.043,0.086 -0.043,0.086 -0.043,0.085 0,0.128 -0.086,0.128 0.043,0.043 0,0.086 0.043,0.129 0.043,0.086 -0.043,0.172 -0.043,0.259 0.043,0.086 0.086,0.129 0.086,0.215 0,0.129 0,0.301 -0.043,0.431 0,0.042 -0.043,0.128 0.043,0.171 0.043,0 0.043,0.043 0.043,0.086 -0.043,0.043 0,0.129 0,0.172 0,0.172 0,0.301 0.086,0.43 0.043,0.043 0,0.086 0,0.129 -0.043,0.129 -0.086,0.258 0,0.387 0.043,0.043 0.043,0.129 0,0.215 -0.043,0.043 -0.043,0.129 -0.043,0.215 0.043,0.129 0.043,0.301 0.172,0.43 0.043,0.043 -0.043,0.129 -0.086,0.215 -0.043,0.043 -0.043,0.086 0,0.129 -0.043,0.043 0,0.129 -0.043,0.172 -0.043,0.129 0.043,0.301 0,0.43 v 0.215 c 0,0.086 -0.043,0.172 -0.086,0.301 -0.043,0.043 -0.043,0.129 -0.086,0.172 -0.086,0.086 -0.043,0.215 -0.043,0.301 0.043,0.086 0.129,0.129 0.215,0.172 0.172,0.086 0.344,0.086 0.559,0.086 0.258,0.043 0.516,0.043 0.774,0 0.086,0 0.172,0.043 0.215,-0.086 H -8.6 c 0.129,0 0.301,0 0.43,-0.043 0.129,-0.043 0.215,-0.086 0.301,-0.043 0.043,0 0.086,0 0.129,-0.043 0,-0.043 0.043,-0.043 0.043,-0.043 0.172,0 0.343,-0.086 0.516,-0.043 0.086,0 0.129,-0.043 0.215,-0.129 0.043,-0.043 0.086,-0.086 0.129,-0.086 0.043,-0.043 0.129,-0.129 0.172,-0.086 0.043,0.129 0.086,0 0.129,0.043 0.13,0 0.216,-0.043 0.302,-0.129 0,-0.043 0.043,-0.043 0.086,-0.043 0.086,0 0.128,-0.043 0.171,-0.086 C -5.848,9.374 -5.719,9.331 -5.59,9.288 -5.461,9.202 -5.332,9.159 -5.203,9.03 L -5.074,8.901 C -4.859,8.6 -4.687,8.299 -4.559,7.955 -4.516,7.912 -4.516,7.869 -4.516,7.826 V 7.697 c 0.043,-0.086 0,-0.215 -0.043,-0.301 V 7.31 c 0.086,-0.129 0.043,-0.258 0.043,-0.344 -0.043,-0.086 -0.043,-0.172 0,-0.215 0.043,-0.129 0,-0.258 0.043,-0.387 0,-0.043 0,-0.086 -0.043,-0.086 -0.043,-0.043 -0.043,-0.086 0,-0.086 0.087,-0.043 0.043,-0.086 0,-0.172 -0.043,-0.043 -0.043,-0.129 0.043,-0.171 0.087,-0.043 0.087,-0.087 0.044,-0.13 V 5.633 c 0.043,-0.129 0,-0.215 -0.044,-0.344 -0.043,-0.043 -0.043,-0.043 0,-0.086 C -4.386,4.987 -4.386,4.729 -4.516,4.515 -4.559,4.472 -4.559,4.386 -4.645,4.343 -4.73,4.3 -4.687,4.171 -4.687,4.128 -4.602,3.999 -4.559,3.87 -4.429,3.827 -4.386,3.784 -4.386,3.741 -4.429,3.698 -4.516,3.655 -4.516,3.612 -4.559,3.526 -4.645,3.397 -4.73,3.226 -4.73,3.054 -4.73,3.01 -4.773,2.967 -4.773,2.924 -4.859,2.838 -4.902,2.795 -4.816,2.666 -4.773,2.623 -4.859,2.58 -4.859,2.537 -4.902,2.494 -4.902,2.451 -4.816,2.494 c 0.043,0 0.043,-0.043 0.086,-0.043 0.043,0.043 0.043,0.086 0.085,0.043 0.043,-0.043 0.129,-0.086 0.086,-0.173 0,-0.086 -0.043,-0.215 0,-0.3 0,-0.043 -0.043,-0.086 -0.043,-0.086 -0.043,0 -0.128,0.043 -0.128,-0.043 -0.043,-0.086 -0.086,-0.129 -0.043,-0.215 0.043,-0.086 0,-0.129 -0.043,-0.172 -0.043,0 -0.086,0 -0.086,0.043 V 1.763 L -5.16,1.505 c 0,-0.043 0,-0.086 0.043,-0.086 0.086,0 0.129,-0.086 0.086,-0.172 C -5.074,1.161 -5.074,1.075 -5.16,1.032 -5.117,0.989 -5.031,0.989 -4.988,0.946 -4.859,0.817 -4.816,0.688 -4.902,0.56 -4.988,0.474 -4.988,0.388 -5.031,0.302 -5.074,0.215 -5.117,0.172 -5.16,0.129 -5.246,0.043 -5.375,0.086 -5.375,-0.043 c -0.043,-0.086 -0.129,-0.129 -0.172,-0.215 0,-0.086 -0.086,-0.13 -0.172,-0.086 h -0.129 c -0.043,-0.044 -0.086,0 -0.086,0.043 -0.043,0.129 -0.043,0.172 0,0.258 0.043,0.129 0.086,0.258 0.043,0.388 -0.086,0.129 0,0.215 0.043,0.301 0,0.042 0.043,0.085 0.086,0.128 0,0.043 0,0.043 -0.043,0.043 -0.086,0 -0.043,0.086 -0.043,0.129 -0.086,0.086 -0.129,0.172 -0.043,0.258 -0.129,0.129 0,0.215 0.043,0.301 -0.043,0.043 -0.129,0.043 -0.172,0.086 -0.042,0.086 -0.042,0.172 -0.128,0.215 0,-0.172 -0.043,-0.301 0,-0.473 0.043,-0.086 0.043,-0.172 0,-0.258 C -6.191,1.032 -6.191,0.989 -6.191,0.946 -6.148,0.817 -6.148,0.688 -6.277,0.646 -6.363,0.603 -6.406,0.517 -6.406,0.388 -6.449,0.258 -6.449,0.129 -6.32,0.043 -6.277,0 -6.277,0 -6.32,-0.043 c 0,-0.172 0,-0.172 0.129,-0.172 0.129,-0.043 0.129,-0.043 0.086,-0.216 v -0.086 h -0.043 c -0.043,0.043 -0.086,0.129 -0.172,0.043 -0.043,-0.043 -0.086,-0.129 -0.086,-0.214 0,-0.172 0.215,-0.258 0.386,-0.172 0.086,0.086 0.129,0.129 0.258,0.129 0,-0.043 -0.043,-0.043 -0.043,-0.086 -0.043,-0.086 -0.043,-0.129 0,-0.215 0.086,-0.086 0.086,-0.086 0.172,0.043 0.043,0.043 0.086,0.129 0.172,0.172 0.043,0.043 0.043,0.086 0.043,0.086 -0.043,0.085 -0.043,0.128 -0.043,0.171 0,0.086 0,0.172 0.086,0.259 0.043,0 0.258,-0.043 0.258,-0.087 0.043,-0.086 0.086,-0.172 0.043,-0.3 -0.043,-0.172 -0.172,-0.344 -0.301,-0.473 0,-0.043 -0.043,-0.086 -0.043,-0.129 0,-0.129 -0.086,-0.258 -0.129,-0.387 -0.086,-0.086 -0.129,-0.258 -0.043,-0.386 0.043,-0.086 0.086,-0.172 0.043,-0.301 -0.043,-0.086 -0.043,-0.216 0.043,-0.345 0.086,-0.086 0.043,-0.215 -0.043,-0.258 -0.129,-0.043 -0.086,-0.129 -0.086,-0.216 0,-0.086 0,-0.129 -0.043,-0.214 v -0.172 c 0.043,-0.086 0,-0.129 0,-0.172 -0.086,-0.129 -0.215,-0.172 -0.215,-0.301 -0.086,0 -0.171,0 -0.171,0.129 0,0.043 -0.043,0 -0.086,0 -0.043,-0.043 -0.086,-0.129 -0.043,-0.215 0.043,-0.086 0.086,-0.129 0.171,-0.129 0.129,0.043 0.172,0 0.129,-0.043 -0.043,-0.043 0.043,-0.129 0,-0.172 -0.129,-0.086 -0.043,-0.215 -0.043,-0.3 0.129,-0.086 0,-0.129 0,-0.215 -0.086,0 -0.086,-0.086 -0.086,-0.129 0,-0.086 -0.042,-0.13 -0.085,-0.13 -0.129,-0.086 -0.086,-0.215 -0.086,-0.344 0.086,-0.215 0.086,-0.388 0.086,-0.602 0,-0.043 0,-0.086 -0.043,-0.129 0,-0.086 0,-0.129 -0.043,-0.215 0,-0.043 0.129,-0.043 0.129,-0.129 0.042,-0.043 0.085,-0.043 0.085,-0.129 v -0.043 c 0.086,-0.215 0.086,-0.215 0.086,-0.43 -0.043,-0.086 -0.043,-0.129 0.043,-0.129 l 0.129,-0.128 c 0.043,0 0.086,0.043 0.086,0.086 0.043,0.085 0.086,0.171 0.215,0.128 0.086,-0.043 0.086,0.043 0.129,0.086 0.043,-0.086 0.129,-0.129 0.086,-0.214 0,-0.043 0.043,-0.043 0.086,-0.043 0.043,0 0.086,0 0.086,0.043 0,0.128 0.086,0.128 0.215,0.128 0.043,0 0.343,0.086 0.387,0.129 0.086,0.043 0.129,0.301 0,0.301 -0.13,0.043 -0.13,0.172 -0.173,0.215 -0.043,0.043 0.043,0.172 0.129,0.172 0.13,0 0.173,0.086 0.173,0.215 0,0.043 0.043,0.086 0.043,0.129 0.215,0.214 0.258,0.516 0.43,0.731 v 0.086 c 0,0.086 0,0.173 0.086,0.259 0.044,0 0.044,0.043 0.087,0.086 0,0.129 0.086,0.172 0.215,0.129 0.043,0 0.043,0.043 0.043,0.086 0,0.085 0.171,0.085 0.214,0.171 0.086,-0.086 0.129,-0.086 0.215,-0.043 0.043,0.043 0.086,0.086 0.129,0.172 0,0.086 0,0.129 0.043,0.172 l 0.086,0.129 c 0.129,0.129 0.258,0.258 0.43,0.086 0.086,0.043 0.129,0 0.172,0 0.086,0 0.128,-0.086 0.171,-0.086 0.086,0.043 0.172,0.129 0.215,0.258 v 0.086 c -0.086,0.129 0.044,0.215 0.087,0.301 0.043,0.086 0.129,0.172 0.258,0.129 0.086,-0.043 0.215,0.085 0.258,0.171 0,0.086 -0.043,0.086 -0.086,0.13 -0.043,0.043 -0.086,0 -0.086,-0.044 0,-0.043 -0.043,-0.043 -0.086,-0.043 l -0.043,0.043 v 0.216 c 0.043,0.043 0,0.043 -0.043,0.086 0,0 -0.043,0 -0.043,-0.043 -0.086,-0.086 -0.216,-0.129 -0.216,-0.259 -0.043,-0.086 -0.129,-0.086 -0.172,-0.129 -0.086,-0.043 -0.128,0 -0.171,0.043 -0.043,0.043 -0.086,0.043 -0.129,0 -0.043,-0.043 -0.043,0.043 -0.086,0.043 v 0.043 c -0.043,0.302 0.129,0.474 0.215,0.69 0.171,0.043 0.214,0.301 0.43,0.258 0,0.086 0.172,0.129 0.086,0.257 0,0 0.043,0.043 0.043,0.086 0.086,0.086 0.086,0.215 0.172,0.301 0.086,0.043 0.215,0 0.301,0.086 0.087,-0.129 0,-0.215 0,-0.344 0.087,0.086 0.216,0.129 0.302,0.172 0.043,0.043 0.043,0.086 0.043,0.129 -0.086,0.086 0,0.129 0,0.215 l 0.128,0.086 c 0.043,0.043 0,0.129 0.086,0.172 l 0.172,-0.043 c 0.043,0.043 0,0.043 0,0.086 0,0.129 0.043,0.258 0.086,0.386 0.043,0.086 0.043,0.129 0.043,0.172 0,0.087 -0.043,0.13 -0.129,0.13 -0.086,0 -0.086,-0.043 -0.086,-0.13 L -0.43,-0.474 c -0.129,0.086 -0.257,-0.043 -0.343,-0.086 -0.043,-0.043 -0.043,-0.086 -0.043,-0.086 0,-0.128 -0.043,-0.214 0.043,-0.343 0.043,-0.043 -0.043,-0.129 -0.086,-0.172 0,0 -0.043,-0.043 -0.086,-0.043 -0.044,-0.043 0.043,-0.129 -0.044,-0.129 -0.086,0 -0.043,0.086 -0.043,0.172 -0.086,0.086 -0.086,0.172 0,0.301 0.043,0.086 0.216,0.043 0.13,0.172 -0.043,0.085 0,0.128 -0.043,0.214 -0.087,0.086 -0.087,0.216 0,0.302 0.043,0.086 0.086,0.129 0.086,0.215 0.043,0.086 0.043,0.129 0,0.172 v 0.302 c 0,0.043 0.043,0.129 0.086,0.171 0.086,0.043 0.128,0.086 0.128,0.172 0.043,0.086 0.086,0.129 0.086,0.172 0.043,0.129 0.172,0.129 0.258,0.172 0.086,0 0.129,0 0.129,-0.086 V 1.032 c 0,-0.086 0.043,-0.129 0.129,-0.129 C 0.086,0.86 0.086,0.86 0.086,0.731 L 0.215,0.86 c 0.043,0 0.086,0.043 0.086,0.129 0,0.086 0.043,0.172 0,0.215 0,0.129 0.043,0.172 0.043,0.258 0.043,0.043 0,0.086 -0.043,0.129 0,0.043 0,0.086 0.043,0.129 0.086,0.043 0.129,0.086 0.129,0.215 v 0.043 c 0.043,0.085 0.086,0.171 0.086,0.214 v 0.259 c 0,0.086 0.086,0.172 0,0.258 C 0.516,2.623 0.43,2.537 0.344,2.494 c -0.043,0 -0.129,0 -0.129,-0.043 0,-0.087 -0.086,-0.173 -0.043,-0.259 0,0 0.043,-0.043 0.043,-0.086 C 0.172,2.063 0.258,1.978 0.215,1.935 0.129,1.892 0.086,1.763 0,1.72 c 0,-0.043 -0.043,-0.043 -0.086,0 -0.043,0 -0.086,0.043 -0.086,0.129 0.043,0.043 0,0.043 -0.043,0.086 -0.043,0 -0.086,0 -0.086,0.043 v 0.128 c 0.043,0.129 0.086,0.215 0.172,0.258 0.172,0.044 0.215,0.173 0.129,0.259 -0.086,0.172 -0.043,0.344 0.043,0.474 0,0.043 0.043,0.086 0,0.129 0,0.086 0.043,0.386 0.086,0.472 0.043,0.043 0.043,0.129 0.043,0.172 0,0.172 0.043,0.215 0.129,0.301 0.086,0 0.129,-0.086 0.129,-0.129 H 0.473 C 0.559,4.085 0.602,4.128 0.645,4.085 0.73,4.042 0.816,4.042 0.859,3.956 c 0,-0.043 0,-0.043 0.043,0 0.086,0.043 0.129,0 0.216,-0.043 C 1.247,3.87 1.29,3.827 1.333,3.698 c 0.043,-0.043 0,-0.086 0,-0.086 C 1.376,3.526 1.29,3.483 1.29,3.44 1.29,3.397 1.333,3.354 1.333,3.312 1.333,3.269 1.333,3.269 1.29,3.269 1.204,3.226 1.204,3.097 1.204,3.01 1.204,2.924 1.161,2.881 1.118,2.838 1.075,2.752 1.031,2.752 0.988,2.666 0.945,2.58 0.945,2.451 0.988,2.321 L 1.075,2.235 C 1.118,2.192 1.161,2.149 1.075,2.063 1.031,2.021 1.031,1.978 1.031,1.935 c 0.044,-0.043 0,-0.086 -0.043,-0.086 -0.086,0 -0.172,0 -0.086,-0.129 0,-0.043 0,-0.086 -0.043,-0.129 C 0.773,1.548 0.73,1.505 0.645,1.419 c -0.043,0 -0.086,0.043 -0.172,0 C 0.559,1.29 0.645,1.161 0.602,1.032 0.602,0.989 0.602,0.946 0.559,0.946 0.43,0.86 0.43,0.731 0.473,0.603 0.516,0.517 0.43,0.474 0.473,0.388 c 0.043,-0.086 0.043,-0.173 0,-0.259 0,0 0,-0.043 0.043,-0.043 C 0.602,0 0.559,-0.129 0.516,-0.215 0.43,-0.301 0.387,-0.388 0.387,-0.56 0.387,-0.603 0.344,-0.603 0.301,-0.646 0.258,-0.774 0.129,-0.903 0.215,-1.075 c 0,0 0,-0.043 -0.043,-0.043 C 0.043,-1.247 0,-1.333 0.043,-1.505 -0.043,-1.634 -0.043,-1.763 -0.129,-1.892 l -0.086,-0.129 -0.043,-0.042 c 0.086,-0.129 0,-0.215 -0.043,-0.301 -0.043,-0.043 -0.086,-0.13 -0.043,-0.216 v -0.043 c 0,-0.043 -0.129,-0.086 -0.086,-0.172 0,-0.086 -0.043,-0.172 -0.086,-0.258 -0.043,-0.043 -0.086,-0.13 -0.086,-0.173 -0.043,-0.086 -0.043,-0.128 -0.043,-0.214 -0.042,-0.129 -0.042,-0.301 -0.171,-0.387 -0.043,-0.043 -0.043,-0.043 -0.043,-0.086 -0.086,-0.129 -0.13,-0.301 -0.216,-0.43 -0.043,-0.043 -0.043,-0.086 -0.086,-0.086 0,-0.043 -0.043,-0.129 -0.043,-0.129 0.043,-0.171 -0.043,-0.257 -0.129,-0.343 -0.043,-0.086 -0.086,-0.129 -0.086,-0.172 -0.043,-0.086 -0.129,-0.129 -0.129,-0.216 0,-0.215 -0.173,-0.344 -0.302,-0.43 -0.043,-0.043 -0.043,-0.043 -0.086,-0.043 -0.128,-0.259 -0.429,-0.473 -0.515,-0.731 -0.043,-0.086 -0.086,-0.129 -0.129,-0.172 -0.086,0 -0.129,-0.086 -0.129,-0.172 -0.043,-0.043 -0.043,-0.129 -0.086,-0.172 -0.172,-0.086 -0.258,-0.301 -0.43,-0.344 -0.043,0 -0.086,0 -0.086,-0.043 -0.085,-0.128 -0.257,-0.128 -0.386,-0.257 -0.087,-0.129 -0.259,-0.215 -0.345,-0.388 l -0.086,-0.086 c -0.086,0 -0.172,-0.086 -0.258,-0.172 -0.387,-0.172 -0.731,-0.345 -1.161,-0.388 -0.086,-0.042 -0.172,0.043 -0.258,0 -0.086,-0.042 -0.172,-0.085 -0.257,-0.085 -0.086,0 -0.172,0 -0.258,-0.043 -0.043,0 -0.086,0 -0.129,0.043" /></g><g
           transform="translate(85.8613,5.7246)"
           id="g28"><path
             id="path30"
             style="fill:#231f20;fill-opacity:1;fill-rule:nonzero;stroke:none"
             d="m 0,0 c 0,0.069 0.07,0.14 0,0.209 -0.139,0.07 -0.209,0.14 -0.35,0.07 -0.069,-0.07 -0.209,0 -0.278,-0.07 0.069,-0.209 0,-0.488 0,-0.698 C -0.35,-0.42 -0.139,-0.21 0,0" /></g><g
           transform="translate(86.6992,7.2598)"
           id="g32"><path
             id="path34"
             style="fill:#231f20;fill-opacity:1;fill-rule:nonzero;stroke:none"
             d="m 0,0 c 0.14,0 0.279,0.14 0.209,0.279 0,0.071 -0.069,0.141 0,0.141 0,0.209 -0.069,0.278 -0.278,0.348 -0.071,0 -0.071,0.14 -0.14,0.14 -0.07,0 -0.07,0 -0.07,-0.07 -0.139,0 -0.35,-0.07 -0.489,-0.14 -0.139,0 -0.209,-0.069 -0.279,-0.21 -0.07,-0.068 0.07,-0.138 0.07,-0.209 L -0.838,0.07 c 0.07,-0.07 0.07,-0.14 0,-0.14 -0.069,-0.07 -0.069,-0.209 -0.139,-0.348 -0.07,-0.07 0,-0.21 0,-0.28 0.139,-0.14 0.209,-0.209 0.28,-0.07 0.068,0.07 0.068,0.14 0.138,0.14 0.141,0 0.209,0 0.209,0.14 0,0.07 0.071,0.139 0,0.279 0,0.069 0.071,0.139 0.141,0.209 0.069,0.07 0.14,0 0.209,0" /></g><g
           transform="translate(97.9375,20.5234)"
           id="g36"><path
             id="path38"
             style="fill:#231f20;fill-opacity:1;fill-rule:nonzero;stroke:none"
             d="M 0,0 C 0.141,0.14 0.07,0.279 0.141,0.419 0.35,0.349 0.42,0.279 0.42,0.07 0.35,-0.07 0.21,0 0,0 m -26.252,-0.354 c -0.208,0.073 -0.277,0.143 -0.273,0.353 0.071,0.138 0.21,0.067 0.42,0.064 -0.143,-0.138 -0.075,-0.278 -0.147,-0.417 m 13.199,-11.025 c 0.071,0.07 0.139,0.07 0.209,-0.069 v -0.21 c 0.071,-0.14 0.071,-0.209 -0.138,-0.28 -0.071,0 -0.071,-0.138 -0.211,-0.208 -0.07,0.07 -0.07,0.138 0,0.208 0,0.071 0.07,0.071 0,0.14 -0.07,0.069 -0.07,0.14 -0.07,0.21 z m 1.117,1.397 c -0.14,0.209 0.069,0.349 0.139,0.558 0.07,0.07 0.07,0.07 0.07,0.14 0.139,0 0.28,0.139 0.349,0.069 0.21,-0.069 0.07,-0.209 0,-0.349 0,-0.139 0.07,-0.349 0.07,-0.558 0,-0.14 -0.07,-0.21 -0.21,-0.21 -0.138,0.07 -0.209,0 -0.279,-0.069 0,-0.07 -0.07,-0.07 -0.139,-0.07 0,0 -0.07,0 -0.07,0.07 0,0.069 0,0.139 0.07,0.21 0,0.069 0.069,0.139 0,0.209 m 0.698,1.955 c 0.139,0.069 0.209,0.209 0.349,0.278 0.07,0 0.07,0 0.07,-0.069 0.07,0 0,-0.071 0,-0.071 -0.14,-0.138 0.07,-0.488 -0.28,-0.558 -0.069,0.07 -0.139,0.14 -0.139,0.211 0,0.068 -0.07,0.138 0,0.209 m 1.326,2.233 c 0,0.14 0.07,0.21 0.07,0.278 0.07,0.071 0.07,0.141 0.14,0.071 0.069,0 0.069,0 0.139,-0.071 0,-0.209 -0.139,-0.418 -0.279,-0.418 -0.07,0.071 -0.139,0.071 -0.07,0.14 m 0.767,3.421 c 0.071,-0.07 0.141,-0.07 0.141,-0.209 0,-0.07 0,-0.07 -0.14,-0.07 -0.07,0 -0.07,0.07 -0.139,0.138 0.069,0.071 0.069,0.14 0.138,0.141 m 0.141,2.862 c 0.069,0.07 0.139,0.07 0.209,0 0.07,-0.07 0.14,-0.14 0.07,-0.21 -0.07,-0.139 -0.07,-0.279 0,-0.488 0.07,0 0.07,-0.07 0.07,-0.14 0,-0.07 -0.07,-0.14 -0.14,-0.07 -0.14,0.07 -0.209,-0.07 -0.35,-0.14 0,0.14 0.071,0.28 0,0.35 -0.069,0.279 0,0.488 0.141,0.698 m 0.279,0.418 c 0.07,0 0.139,-0.069 0.139,-0.139 l -0.069,-0.07 c -0.07,0 -0.14,0 -0.14,0.14 0,0 0,0.069 0.07,0.069 M 1.746,2.234 c 0,0.14 -0.07,0.349 -0.139,0.488 0,0.21 -0.211,0.35 -0.349,0.279 -0.071,0 -0.21,0 -0.21,-0.069 C 0.979,2.653 0.839,2.583 0.629,2.443 0.42,2.374 0.42,2.164 0.489,1.955 0.56,1.885 0.629,1.885 0.629,1.815 L 0.42,1.605 c 0,-0.069 -0.07,-0.069 -0.14,-0.139 0,-0.07 -0.07,-0.07 -0.07,0 0,0 -0.069,0.07 0,0.07 v 0.139 c 0.07,0.21 0.14,0.489 0.14,0.768 0,0.14 0,0.14 -0.14,0.349 0.14,0.07 0.21,0.14 0.21,0.349 0.069,0.07 0,0.14 -0.07,0.07 -0.07,-0.07 -0.14,0 -0.07,0.07 0.07,0.209 0.07,0.349 0,0.559 -0.07,0.069 -0.139,0.069 -0.21,0 -0.279,-0.14 -0.418,-0.42 -0.557,-0.699 -0.071,-0.209 -0.071,-0.488 0,-0.628 0.069,-0.209 0.069,-0.279 0,-0.419 -0.14,-0.209 -0.281,-0.419 -0.35,-0.628 0,-0.07 0.069,-0.14 0,-0.21 -0.14,-0.139 -0.069,-0.278 0,-0.418 0,-0.07 0.069,-0.14 0,-0.21 -0.14,-0.139 -0.14,-0.279 -0.069,-0.488 0,-0.07 0.069,-0.07 0,-0.14 -0.071,-0.14 -0.071,-0.349 -0.21,-0.489 -0.21,-0.07 -0.21,-0.279 -0.07,-0.419 0.07,-0.139 0.07,-0.139 -0.07,-0.279 0,-0.069 0,-0.069 -0.07,-0.139 0,-0.209 -0.139,-0.35 -0.139,-0.559 0.069,-0.07 0.069,-0.139 -0.07,-0.209 -0.139,-0.14 -0.139,-0.279 -0.07,-0.42 0,-0.068 -0.069,-0.209 -0.139,-0.279 -0.14,-0.139 -0.279,-0.349 -0.209,-0.627 0,-0.07 -0.07,-0.141 -0.07,-0.21 -0.28,-0.349 -0.489,-0.768 -0.629,-1.186 0,-0.141 -0.069,-0.21 -0.139,-0.28 -0.141,-0.139 -0.21,-0.349 -0.21,-0.558 -0.069,-0.071 -0.069,-0.14 -0.069,-0.209 0,-0.14 -0.141,-0.21 -0.141,-0.28 0.07,-0.14 0,-0.279 0,-0.419 0,-0.139 0,-0.28 0.141,-0.418 -0.28,-0.071 -0.209,-0.071 -0.35,-0.28 0,-0.139 0,-0.279 -0.07,-0.42 -0.139,-0.069 -0.209,-0.209 -0.209,-0.347 l -0.209,-0.42 c -0.139,-0.28 -0.209,-0.558 -0.35,-0.837 -0.069,-0.14 -0.279,-0.28 -0.209,-0.489 v -0.07 c -0.139,-0.139 -0.209,-0.348 -0.279,-0.558 0,-0.07 -0.07,-0.14 -0.07,-0.14 -0.209,-0.14 -0.279,-0.35 -0.349,-0.559 -0.14,-0.209 -0.209,-0.418 -0.419,-0.558 -0.14,-0.209 -0.279,-0.35 -0.349,-0.559 -0.139,-0.348 -0.489,-0.488 -0.628,-0.838 0,-0.069 -0.07,-0.069 -0.14,-0.138 -0.07,-0.071 -0.07,-0.071 -0.139,-0.071 -0.349,-0.558 -0.838,-0.976 -1.326,-1.326 -0.141,-0.139 -0.28,-0.209 -0.35,-0.419 l -0.07,-0.069 c -0.139,-0.07 -0.139,-0.21 -0.209,-0.21 -0.14,0 -0.14,-0.14 -0.209,-0.209 -0.21,0 -0.21,-0.21 -0.279,-0.349 -0.14,-0.279 -0.209,-0.349 -0.559,-0.349 -0.21,0 -0.42,0 -0.558,-0.14 -0.209,-0.069 -0.349,-0.14 -0.489,-0.14 -0.21,0 -0.349,-0.14 -0.558,-0.07 -0.071,0.07 -0.071,0 -0.071,-0.07 -0.07,-0.069 -0.07,-0.069 -0.138,-0.069 -0.071,0 -0.071,0.069 -0.071,0.069 0,0.07 0,0.14 -0.07,0.14 0,0 -0.07,0 -0.07,-0.07 0,-0.139 -0.139,-0.139 -0.279,-0.209 -0.139,0 -0.209,0.07 -0.349,0 -0.069,-0.07 -0.14,0 -0.14,0.139 0,0.07 0,0.14 -0.138,0.14 -0.071,0 -0.071,0.071 -0.141,0.14 0,0.14 -0.139,0.279 -0.068,0.419 0.068,0.139 0,0.279 -0.071,0.419 0,0.14 -0.14,0.069 -0.279,0.14 -0.209,0 -0.279,0.138 -0.209,0.348 0,0.14 0,0.21 0.139,0.35 0.139,0.139 0.279,0.278 0.279,0.488 l 0.07,0.069 c 0.209,0.071 0.209,0.14 0.139,0.28 -0.139,0.279 -0.068,0.488 0.141,0.767 0.138,0.141 0.347,0.28 0.418,0.49 0,0.069 0.07,0.139 0,0.21 -0.209,0.138 -0.14,0.347 0,0.488 0.14,0.209 0.14,0.419 0.209,0.629 0,0.138 0,0.278 0.14,0.347 0.07,-0.069 0.139,-0.138 0.07,-0.279 -0.14,-0.209 -0.07,-0.348 0.069,-0.488 0.07,0 0.07,-0.14 0.14,-0.14 0.071,-0.069 0.071,-0.14 0,-0.14 -0.07,-0.138 0,-0.208 0.071,-0.208 0.209,-0.071 0.418,0.07 0.488,0.208 0.069,0.14 0.069,0.209 0.139,0.209 0.21,0.141 0.28,0.35 0.42,0.491 0.138,0.278 0.138,0.488 0.138,0.767 -0.069,0.209 0,0.28 0.28,0.419 0.21,0 0.279,0.209 0.349,0.349 0.07,0.209 0,0.349 -0.21,0.419 -0.069,0 -0.139,-0.07 -0.21,0 0,0.139 0,0.279 0.141,0.348 0.069,0.071 0.069,0.141 0,0.209 -0.141,0.071 -0.141,0.21 -0.07,0.28 0.07,0.14 0.139,0.211 0.21,0.279 0,0.07 0.069,0.07 0.139,0 -0.07,-0.209 -0.07,-0.418 0,-0.627 0,-0.07 -0.07,-0.21 0,-0.21 0.14,-0.07 0.209,0 0.279,0.069 0.071,0 0.071,0.071 0.14,0.141 0,0.209 0.069,0.418 0.069,0.697 -0.069,0.14 0,0.209 0.14,0.28 0.069,0 0.14,0.069 0.14,0.209 -0.071,0.14 0,0.14 0.07,0.21 0.069,0 0.139,0.069 0.069,0.139 -0.069,0.071 -0.139,0.071 -0.21,0.071 0,-0.071 -0.069,-0.071 -0.069,-0.071 -0.209,0 -0.209,-0.209 -0.419,-0.279 -0.069,0.14 -0.069,0.279 -0.279,0.279 -0.069,0 -0.14,0 -0.069,0.071 0.069,0.068 0,0.138 0,0.209 0.069,0.279 0.069,0.418 0.418,0.418 0,0 0.071,0 0.071,-0.07 0.069,0 0.069,0 0.138,0.07 0.071,0.14 0.14,0.14 0.21,0.07 0.07,-0.07 0.07,-0.14 0.14,-0.07 0.139,0.07 0.209,0.14 0.279,0.208 0.07,0 0.07,0.071 0,0.141 -0.07,0.07 -0.07,0.21 -0.14,0.35 -0.07,0 -0.07,0.069 -0.139,0 -0.07,0 -0.07,-0.071 -0.141,-0.071 h -0.069 c -0.069,0 -0.069,0.071 0,0.071 0.069,0.138 0.069,0.347 0.279,0.279 0,0 0.07,0 0.07,0.068 0.07,0.21 0.279,0.281 0.349,0.49 0.209,0.21 0.14,0.489 0.28,0.698 -0.071,0.279 -0.071,0.558 0.07,0.838 0,0 -0.07,0.07 -0.07,0.139 0.07,0.279 0,0.558 0.14,0.837 0.069,0.141 0,0.21 -0.07,0.28 -0.07,0.07 -0.21,0.14 -0.141,0.279 0.071,0.279 0.071,0.629 0.28,0.977 0,0.07 0.07,0.21 0.07,0.35 -0.07,0.279 0,0.558 0.07,0.837 0.069,0.07 0.139,0.14 0.069,0.21 -0.069,0.209 0,0.349 0.07,0.559 0.07,0.209 -0.07,0.488 0.07,0.767 0,0.07 0,0.14 -0.07,0.21 -0.07,0.209 0,0.488 0,0.698 0.07,0.139 0.07,0.279 0,0.419 v 0.209 c 0,0.279 -0.139,0.559 -0.139,0.838 0,0.069 0,0.069 -0.07,0.069 0,0.071 -0.279,0.489 -0.279,0.559 0,0 0,0.069 -0.071,0.069 -0.139,0.419 -0.348,0.768 -0.558,1.118 l -0.28,0.419 c -0.138,0.14 -0.209,0.279 -0.347,0.349 -0.35,0.348 -0.629,0.767 -1.117,0.907 l -0.629,0.489 c -0.07,0.069 -0.07,0.139 -0.209,0.21 -0.209,0.068 -0.42,0.278 -0.629,0.419 -0.139,0.139 -0.279,0.209 -0.35,0.348 -0.138,0.279 -0.278,0.349 -0.488,0.419 l -0.209,0.14 c -0.35,0.209 -0.698,0.418 -1.117,0.488 -0.139,0 -0.349,0 -0.489,0.069 -0.209,0.141 -0.418,0.071 -0.627,0.141 -0.21,0.069 -0.35,0.069 -0.56,-0.07 -0.068,-0.071 -0.139,-0.14 -0.278,-0.071 -0.14,0 -0.281,-0.069 -0.349,-0.139 -0.141,-0.139 -0.21,-0.279 -0.42,-0.279 -0.139,0 -0.279,-0.07 -0.349,-0.139 l -0.209,-0.14 c -0.209,-0.07 -0.418,-0.21 -0.698,-0.28 0,0 0.07,-0.069 -0.07,-0.069 0,-0.07 -0.068,-0.07 -0.139,-0.07 h -0.629 c -0.348,0 -0.628,-0.139 -0.907,-0.209 -0.14,0 -0.349,-0.071 -0.419,-0.28 0,-0.069 -0.07,-0.139 -0.14,-0.069 -0.209,0.069 -0.279,0 -0.348,-0.209 0,0 0,-0.071 -0.07,-0.071 -0.14,0 -0.209,-0.07 -0.28,-0.209 0,-0.14 -0.14,-0.07 -0.14,0 -0.069,0 -0.139,0.07 -0.069,0.07 0.139,0.139 0.069,0.349 0.28,0.419 0.069,0 0.069,0.139 0.209,0.069 0.07,0 0.279,0.209 0.279,0.35 0,0.139 0.07,0.278 0.209,0.348 0.279,0.14 0.558,0.419 0.768,0.629 0.07,0.069 0.14,0.069 0.14,0 0.14,-0.07 0.209,0 0.349,0.069 0.069,0.07 0.139,0.209 0.139,0.28 0.071,0.07 0.071,0.07 0,0.139 0,0.141 -0.209,0.141 -0.279,0.141 -0.14,-0.071 -0.209,-0.141 -0.279,0.068 0,0.071 -0.07,0.071 -0.07,0 -0.07,-0.139 -0.139,-0.068 -0.21,-0.068 -0.069,0.068 -0.139,0.139 -0.069,0.208 v 0.14 c 0.069,0 0.069,-0.07 0.14,0 0.139,0 0.209,-0.14 0.348,-0.07 0.071,0.14 0.21,0.14 0.349,0.14 0.07,0.209 0.21,0.209 0.279,0.349 0.071,0.139 0.21,0.209 0.28,0.279 0.14,0 0.14,0 0.14,-0.07 0.071,-0.07 0.071,-0.07 0,-0.07 -0.07,-0.069 -0.14,-0.069 -0.21,-0.069 -0.07,-0.07 -0.07,-0.21 -0.139,-0.279 -0.071,-0.071 0,-0.14 0.069,-0.14 0.07,-0.07 0.07,-0.14 0,-0.21 -0.069,-0.069 -0.14,-0.069 -0.069,-0.14 0.069,-0.068 0.139,0.071 0.279,0 0.07,0 0.209,0.071 0.349,0.14 0.069,0.07 -0.07,0.07 0,0.14 v 0.07 c 0.069,0.069 0.348,0.069 0.348,0 0.071,-0.07 0.141,-0.07 0.211,0 0.069,0 0.139,0.14 0.278,0.14 0.281,-0.071 0.49,0.139 0.699,0.279 0.279,0.279 0.419,0.628 0.419,1.046 0,0.071 -0.07,0.14 0,0.28 l 0.419,0.628 c 0,0.07 0.069,0.07 0.138,0.14 0.141,0 0.21,0.139 0.35,0.279 0.279,0.419 0.209,0.838 0.07,1.326 -0.139,0.21 -0.07,0.419 -0.07,0.699 0,0.279 -0.069,0.558 -0.209,0.767 0,0.14 -0.07,0.279 -0.07,0.349 0,0.07 -0.071,0.14 -0.071,0.21 -0.279,0.279 -0.488,0.559 -0.627,0.908 v 0.069 c -0.14,0.14 -0.349,0.14 -0.42,0.279 -0.069,0.14 -0.069,0.279 -0.209,0.419 -0.07,0 -0.07,0.07 -0.07,0.07 -0.279,0.349 -0.627,0.489 -0.838,0.838 0,0.07 -0.069,0.07 -0.069,0.14 l -1.047,0.418 c -0.069,0.07 -0.21,0.14 -0.279,0.279 -0.14,0.14 -0.349,0.28 -0.559,0.28 -0.14,0.069 -0.349,0.069 -0.558,0.139 -0.349,0.14 -0.768,0.21 -1.187,0.28 -0.488,0.069 -0.697,0.069 -0.977,-0.35 -0.28,-0.419 -0.699,-0.768 -1.187,-0.976 -0.209,0 -0.349,-0.14 -0.559,-0.28 -0.069,0 0,-0.07 -0.069,-0.14 0,-0.139 0,-0.069 -0.07,0 l -0.07,0.07 c -0.14,-0.139 -0.349,-0.07 -0.488,-0.209 -0.07,-0.07 -0.14,-0.07 -0.279,-0.14 -0.071,-0.07 -0.141,-0.07 -0.28,-0.14 0,-0.069 -0.139,-0.069 -0.209,-0.139 -0.14,-0.07 -0.279,0 -0.349,-0.07 -0.141,-0.21 -0.419,-0.419 -0.559,-0.628 l -0.697,-1.047 c -0.35,-0.419 -0.699,-0.838 -0.908,-1.327 0,-0.069 -0.07,-0.069 -0.07,-0.069 -0.209,-0.21 -0.349,-0.489 -0.418,-0.769 l -0.42,-1.046 c -0.209,-0.419 -0.28,-0.908 -0.489,-1.397 v -0.14 c 0,-0.138 -0.069,-0.278 -0.139,-0.488 v -0.349 c 0,-0.209 0.21,-0.419 0.21,-0.628 0.138,-0.07 0,-0.279 0.138,-0.35 0.21,-0.139 0.28,-0.419 0.419,-0.628 0.071,-0.279 0.21,-0.558 0.49,-0.837 0.139,-0.14 0.348,-0.279 0.279,-0.559 0,-0.069 0.069,-0.069 0.139,-0.069 0.07,0 0.14,-0.07 0.14,-0.141 0,-0.068 0.07,-0.139 0.139,-0.209 0.14,0 0.279,-0.069 0.279,-0.279 0,-0.069 0.141,-0.139 0.211,-0.209 0.139,0 0.209,-0.07 0.278,-0.21 0.14,-0.139 0.279,-0.279 0.49,-0.419 0.069,0 0.069,0 0.069,-0.07 0.14,-0.209 0.349,-0.348 0.558,-0.487 0.103,-0.052 0.207,-0.085 0.31,-0.079 -0.037,-0.089 -0.09,-0.176 -0.161,-0.282 -0.071,-0.07 -0.212,-0.207 -0.074,-0.348 l -0.001,-0.14 C -25.828,5.365 -26.041,5.158 -26.182,5.02 -26.324,4.813 -26.396,4.674 -26.399,4.465 -26.4,4.396 -26.4,4.326 -26.472,4.256 -26.545,3.978 -26.546,3.909 -26.48,3.628 L -26.481,3.489 C -26.694,3.212 -26.63,2.792 -26.912,2.587 h -0.07 c -0.002,-0.279 -0.145,-0.417 -0.217,-0.626 -0.002,-0.209 -0.005,-0.419 -0.077,-0.557 -0.144,-0.277 -0.005,-0.488 0.131,-0.7 -0.001,-0.069 0.069,-0.141 0.067,-0.209 0.068,-0.072 0.068,-0.141 -0.003,-0.21 -0.14,-0.068 -0.142,-0.208 -0.073,-0.348 0.068,-0.071 -0.002,-0.14 -0.073,-0.139 -0.072,-0.139 -0.211,-0.137 -0.212,-0.207 -0.001,-0.139 -0.003,-0.278 0.066,-0.35 l -10e-4,-0.069 c 0.067,-0.141 -0.004,-0.28 -0.073,-0.279 -0.211,-0.137 -0.354,-0.275 -0.356,-0.554 -0.142,-0.138 -0.074,-0.278 -0.077,-0.487 -0.002,-0.14 0.066,-0.35 0.133,-0.491 -0.002,-0.209 0.206,-0.351 0.347,-0.283 0.069,-0.002 0.209,-0.004 0.21,0.067 0.073,0.277 0.213,0.346 0.424,0.482 0.21,0.068 0.213,0.277 0.147,0.487 -0.07,0.072 -0.139,0.072 -0.139,0.142 l 0.212,0.207 c 10e-4,0.07 0.071,0.068 0.142,0.138 0.001,0.07 0.071,0.069 0.07,-10e-4 0,0 0.068,-0.071 -0.001,-0.07 l -0.003,-0.139 c -0.072,-0.209 -0.144,-0.487 -0.148,-0.766 -0.002,-0.14 -0.002,-0.14 0.134,-0.352 -0.14,-0.068 -0.21,-0.136 -0.214,-0.345 -0.07,-0.07 0,-0.141 0.07,-0.072 0.07,0.07 0.139,-10e-4 0.068,-0.071 -0.072,-0.207 -0.074,-0.348 -0.007,-0.557 0.07,-0.072 0.139,-0.072 0.21,-0.003 0.281,0.135 0.424,0.413 0.567,0.691 0.073,0.207 0.076,0.486 0.008,0.627 -0.067,0.211 -0.067,0.281 0.005,0.419 0.143,0.208 0.286,0.416 0.358,0.624 10e-4,0.07 -0.068,0.141 0.003,0.211 0.14,0.137 0.073,0.277 0.005,0.418 0,0.07 -0.069,0.14 0.003,0.209 0.141,0.138 0.143,0.278 0.075,0.487 0.002,0.07 -0.069,0.071 0.002,0.14 0.072,0.139 0.074,0.348 0.216,0.486 0.211,0.067 0.213,0.277 0.075,0.419 -0.069,0.139 -0.069,0.139 0.074,0.277 0,0.07 0,0.07 0.071,0.14 0.003,0.209 0.144,0.346 0.147,0.556 -0.07,0.071 -0.068,0.141 0.072,0.209 0.142,0.137 0.144,0.277 0.075,0.418 0.002,0.069 0.073,0.208 0.143,0.277 0.141,0.138 0.284,0.345 0.219,0.625 0,0.07 0.07,0.139 0.072,0.209 0.283,0.345 0.498,0.761 0.642,1.178 0.002,0.14 0.073,0.209 0.144,0.278 0.142,0.138 0.214,0.346 0.216,0.556 0.072,0.069 0.072,0.138 0.072,0.208 0,0.012 0.012,0.019 0.014,0.03 0.041,-0.02 0.081,-0.026 0.121,-0.053 h 0.069 c 0.28,0 0.56,-0.07 0.839,-0.14 0.209,0 0.279,0.07 0.279,0.279 0,0.071 0,0.071 0.069,0.071 0.07,0 0.209,0.069 0.279,-0.071 0.07,-0.069 0.141,0 0.21,0.071 0.07,0.139 0.21,0.209 0.349,0.069 h 0.07 c 0.139,0.14 0.279,0 0.349,-0.069 0.209,0.139 0.209,0.139 0.489,0.209 h 0.139 c 0.349,0.21 0.837,0.349 1.187,0.628 0.279,0.279 0.697,0.419 1.117,0.558 -0.07,-0.139 0,-0.279 0.069,-0.279 0.21,-0.14 0.349,-0.279 0.419,-0.488 0,-0.07 0.14,-0.14 0.14,-0.14 0.14,0.14 0.069,0 0.14,-0.069 0.07,-0.21 0.138,-0.35 0.07,-0.629 -0.07,-0.14 -0.141,-0.279 -0.07,-0.489 0.07,-0.069 0.07,-0.209 0,-0.349 V 4.887 c 0.138,-0.419 -0.071,-0.768 -0.071,-1.187 0,-0.28 -0.069,-0.628 -0.069,-0.978 0,-0.279 -0.069,-0.558 -0.14,-0.837 V 1.536 c -0.209,-0.28 -0.07,-0.558 -0.138,-0.838 0.138,-0.279 -0.071,-0.489 -0.071,-0.768 0,-0.139 -0.14,-0.209 -0.14,-0.349 v -0.419 c 0,-0.14 0,-0.279 -0.07,-0.349 0,-0.069 -0.069,-0.139 -0.069,-0.209 0,-0.28 -0.209,-0.559 -0.209,-0.908 -0.07,-0.348 -0.28,-0.698 -0.28,-1.047 -0.069,-0.279 -0.14,-0.628 -0.279,-0.907 -0.07,-0.14 -0.07,-0.279 -0.07,-0.419 -0.07,-0.139 -0.07,-0.21 -0.138,-0.28 -0.281,-0.278 -0.351,-0.559 -0.42,-0.977 0,-0.069 0,-0.139 -0.071,-0.209 -0.069,-0.14 -0.069,-0.279 -0.209,-0.419 -0.07,-0.139 0.071,-0.348 -0.07,-0.418 v -0.559 c 0,-0.21 0,-0.419 -0.209,-0.559 v -0.138 c 0,-0.141 -0.069,-0.35 -0.14,-0.491 0,-0.209 -0.069,-0.418 0,-0.697 0.071,-0.07 0,-0.14 0,-0.209 -0.139,-0.349 -0.069,-0.629 -0.139,-0.977 0,-0.21 0.07,-0.419 0,-0.56 -0.07,-0.068 0,-0.139 0,-0.209 0.07,-0.069 0.07,-0.209 0,-0.279 0,-0.071 0,-0.071 0.07,-0.14 v -0.278 c -0.07,-0.42 -0.07,-0.768 0,-1.188 0.069,-0.209 0.14,-0.418 0.069,-0.628 -0.069,0 0,-0.139 0,-0.21 0.071,-0.069 0.071,-0.209 0.14,-0.279 0.14,-0.348 0.209,-0.697 0.419,-0.976 0.209,-0.21 0.349,-0.42 0.349,-0.699 0,-0.139 0.07,-0.279 0.211,-0.419 0.138,-0.07 0.277,-0.279 0.347,-0.418 0.14,-0.14 0.35,-0.279 0.42,-0.419 0.139,-0.14 0.209,-0.209 0.278,-0.349 0.14,-0.069 0.281,-0.069 0.419,-0.21 0.209,-0.209 0.489,-0.418 0.699,-0.697 0.278,-0.35 0.698,-0.35 0.977,-0.629 h 0.139 c 0.14,0 0.21,-0.071 0.279,-0.14 0.42,-0.209 0.769,-0.558 1.258,-0.628 l 0.068,-0.07 c 0.141,-0.139 0.35,-0.209 0.559,-0.209 l 0.838,-0.209 c 0.279,-0.07 0.558,-0.141 0.768,0.069 0.07,0.071 0.209,0.071 0.279,0 0.07,-0.139 0.21,-0.069 0.28,0 0.14,0.071 0.278,0.14 0.487,0 0.071,0 0.071,0.071 0.071,0.071 0,0.209 0,0.209 0.07,0.278 0.209,0.07 0.349,0.07 0.558,0 0.14,-0.069 0.28,0 0.418,0.07 0.141,0.07 0.141,0.209 0.21,0.209 0.28,0.07 0.419,0.21 0.489,0.419 0.07,0.069 0.139,0.069 0.21,0 l 0.07,-0.069 c 0.279,0.209 0.418,0.628 0.697,0.838 0,0 0,0.069 0.071,0.069 0,0.069 0.07,0.21 0.209,0.21 0.07,0 0.139,0.209 0.279,0.209 0.209,0 0.349,0.14 0.488,0.069 0.141,0 0.279,0.14 0.35,0.281 v 0.209 c 0.07,0.069 0.139,0.209 0.139,0.138 0.209,0 0.28,0.141 0.419,0.279 0.14,0.141 0.349,0.35 0.349,0.629 -0.069,0.071 0,0.14 0.07,0.209 0.209,0.28 0.419,0.629 0.698,0.909 0.139,0.069 0.21,0.279 0.139,0.348 0,0.14 0.071,0.28 0.071,0.419 0,0.14 0.07,0.35 0.279,0.419 0.07,0 0.07,0.069 0.139,0.069 0.07,0.21 0.14,0.21 0.349,0.28 0.07,0 0.07,0.07 0.07,0.07 -0.07,0.209 0.139,0.349 0,0.559 0,0.138 -0.07,0.349 0.209,0.418 0.071,0.07 0.209,0.14 0.209,0.279 0,0.07 0.071,0.141 0.141,0.21 0.209,0.14 0.209,0.278 0.07,0.557 -0.07,0.141 -0.07,0.281 0.139,0.42 0.07,0 0.07,0.071 0.14,0.139 0,0.21 0.069,0.35 0.139,0.56 0,0.209 0,0.348 0.071,0.558 0.068,0.209 0.279,0.349 0.279,0.628 0,0 0,0.07 0.069,0.07 0.14,0 0.14,0.139 0.279,0.209 0.07,0 0,0.28 0.14,0.28 0,0 0.069,0.07 0.069,0.138 l 0.07,0.28 c 0.07,0.14 0.21,0.349 0.21,0.558 0,0.071 0.07,0.071 0.139,0 0.14,0 0.209,0 0.14,0.14 0,0.14 0,0.21 0.069,0.28 0.21,0.28 0.21,0.559 0.281,0.837 0,0.21 0.069,0.349 0.209,0.559 0.069,0.07 0.21,0.21 0.069,0.348 v 0.141 c 0,0.278 0.209,0.488 0.35,0.627 0.139,0.21 0.209,0.35 0.209,0.559 0,0.07 0,0.14 0.07,0.21 0.069,0.279 0.069,0.348 0,0.627 v 0.141 c 0.209,0.278 0.14,0.697 0.419,0.906 h 0.069 c 0,0.28 0.14,0.42 0.209,0.629 0,0.209 0,0.418 0.07,0.559 0.141,0.279 0,0.488 -0.139,0.698 0,0.069 -0.069,0.139 -0.069,0.209 -0.071,0.07 -0.071,0.14 0,0.21 C 1.117,-0.14 1.117,0 1.048,0.14 c -0.069,0.069 0,0.139 0.069,0.139 0.07,0.14 0.211,0.14 0.211,0.21 0,0.139 0,0.279 -0.07,0.349 v 0.069 c -0.071,0.14 0,0.28 0.07,0.28 0.209,0.139 0.348,0.279 0.348,0.558 0.14,0.14 0.07,0.28 0.07,0.489" /></g></g></g></g></svg>