<?xml version="1.0" encoding="UTF-8" standalone="no"?>
<svg
   xmlns:dc="http://purl.org/dc/elements/1.1/"
   xmlns:cc="http://creativecommons.org/ns#"
   xmlns:rdf="http://www.w3.org/1999/02/22-rdf-syntax-ns#"
   xmlns:svg="http://www.w3.org/2000/svg"
   xmlns="http://www.w3.org/2000/svg"
   viewBox="0 0 222.948 55.706402"
   height="55.706402"
   width="222.948"
   xml:space="preserve"
   id="svg2"
   version="1.1"><metadata
     id="metadata8"><rdf:RDF><cc:Work
         rdf:about=""><dc:format>image/svg+xml</dc:format><dc:type
           rdf:resource="http://purl.org/dc/dcmitype/StillImage" /></cc:Work></rdf:RDF></metadata><defs
     id="defs6"><clipPath
       id="clipPath18"
       clipPathUnits="userSpaceOnUse"><path
         id="path16"
         d="M 0,41.78 H 167.211 V 0 H 0 Z" /></clipPath></defs><g
     transform="matrix(1.3333333,0,0,-1.3333333,0,55.7064)"
     id="g10"><g
       id="g12"><g
         clip-path="url(#clipPath18)"
         id="g14"><text
           id="text22"
           style="font-variant:normal;font-weight:normal;font-stretch:normal;font-size:43px;font-family:Hensa;-inkscape-font-specification:Hensa-Regular;writing-mode:lr-tb;fill:#231f20;fill-opacity:1;fill-rule:nonzero;stroke:none"
           transform="matrix(1,0,0,-1,1.4995,6.0376)"><tspan
             id="tspan20"
             y="0"
             x="0 20.209999 36.334999 51.471001 62.049 91.805 111.155 131.19299 141.771">Cerimonia</tspan></text>
<g
           transform="translate(96.0347,34.0669)"
           id="g24"><path
             id="path26"
             style="fill:#231f20;fill-opacity:1;fill-rule:nonzero;stroke:none"
             d="M 0,0 0.174,0.042 C 0.203,0.049 0.268,0.034 0.333,0.02 L 0.361,0.026 C 0.449,0.047 0.485,0.025 0.528,-0.025 0.564,-0.047 0.593,-0.041 0.622,-0.034 0.644,0.002 0.666,0.04 0.701,0.017 0.761,0.031 0.796,0.009 0.884,0.03 0.905,0.065 0.97,0.051 1.027,0.065 1.086,0.079 1.122,0.058 1.129,0.028 L 1.238,-0.038 C 1.15,-0.059 1.15,-0.059 1.143,-0.153 1.156,-0.21 1.135,-0.247 1.076,-0.261 L 1.019,-0.275 C 0.986,-0.283 0.976,-0.297 0.974,-0.316 0.912,-0.301 0.847,-0.291 0.78,-0.273 0.683,-0.262 0.593,-0.234 0.502,-0.207 0.464,-0.191 0.428,-0.176 0.404,-0.147 0.387,-0.137 0.368,-0.149 0.349,-0.162 0.244,-0.122 0.141,-0.078 0.038,-0.025 0.012,-0.007 -0.01,-0.006 -0.032,0 -0.021,0 -0.011,-0.003 0,0 m 2.063,-0.021 c 0.03,0.007 0.058,0.013 0.125,-10e-4 0.093,-0.008 0.186,-0.017 0.273,0.005 0.029,0.006 0.022,0.037 0.06,0.014 L 2.519,-0.126 C 2.558,-0.172 2.602,-0.145 2.637,-0.155 2.609,-0.169 2.583,-0.179 2.559,-0.174 c -0.035,0 0.157,-0.153 0.398,-0.34 0.016,-0.039 0.026,-0.08 0.05,-0.108 0.046,-0.027 0.095,-0.033 0.143,-0.041 0.344,-0.263 0.697,-0.531 0.635,-0.516 -0.148,0.062 -0.296,0.183 -0.444,0.275 -0.089,0.061 -0.148,0.121 -0.237,0.093 -0.031,0 -0.031,0.03 -0.06,0.029 -0.06,0.092 -0.118,0.152 -0.208,0.094 -0.03,10e-4 -0.059,0.061 -0.09,0.031 -0.059,-0.03 -0.118,0.06 -0.18,0.002 -0.059,-0.059 -0.088,0.06 -0.148,0.032 -0.028,0.001 -0.06,0.001 -0.06,-0.03 -0.028,0.001 -0.059,0.002 -0.088,0.031 -0.026,0.026 -0.074,0.03 -0.124,0.03 0.028,0.012 0.055,0.027 0.073,0.055 0.051,0.044 0.087,0.021 0.137,0.065 0.075,0.079 0.074,-0.044 0.138,-0.059 0.102,-0.037 0.159,-0.023 0.202,0.049 0.06,0.014 0.124,-0.001 0.11,0.057 C 2.793,-0.367 2.748,-0.438 2.712,-0.417 2.705,-0.388 2.669,-0.366 2.669,-0.366 2.633,-0.344 2.561,-0.3 2.538,-0.336 2.467,-0.415 2.401,-0.4 2.314,-0.421 c 0,0 -0.029,-0.007 -0.065,0.014 -0.043,0.051 -0.151,0.118 -0.113,0.219 l -0.037,0.021 c -0.06,-0.014 -0.087,-0.021 -0.102,0.037 -0.015,0.058 0.008,0.094 0.066,0.109 m 3.519,-3.031 c 0.03,-10e-4 0.061,0.058 0.119,-0.002 0.03,-0.03 0,-0.09 -0.031,-0.149 z m 0.651,1.181 c -0.005,-0.033 -0.004,-0.069 0.01,-0.112 0.034,0.048 0.059,0.031 0.101,0.038 L 6.313,-1.987 c -0.087,0.001 -0.186,0.002 -0.299,0.003 0.083,0.042 0.145,0.076 0.219,0.113 m 0.902,0.062 0.007,-0.042 C 7.129,-1.852 7.114,-1.865 7.101,-1.874 c 0.003,0.011 0.009,0.021 0.011,0.036 -0.006,0.023 0.002,0.039 0.017,0.053 0.003,-0.009 0.004,-0.014 0.006,-0.024 M 6.831,-1.997 C 6.853,-1.985 6.872,-1.988 6.89,-2 6.89,-2 6.914,-2.018 6.896,-2.042 6.879,-2.067 6.854,-2.05 6.812,-2.057 6.788,-2.04 6.806,-2.016 6.806,-2.016 6.81,-2.01 6.812,-2.012 6.815,-2.008 6.892,-2.004 6.918,-2 6.831,-1.997 M 6.284,-2.03 C 6.276,-2.048 6.267,-2.064 6.256,-2.078 6.227,-2.067 6.2,-2.055 6.162,-2.045 6.151,-2.04 6.204,-2.035 6.284,-2.03 m -4.372,1.444 c -0.012,0 -0.023,0.012 -0.038,0.023 0.048,0.006 0.084,-0.01 0.142,-0.023 0.005,-0.003 0.013,0 0.019,-0.003 l -0.034,0.001 c -0.029,0.001 -0.06,0.031 -0.089,0.002 m -3.574,0.732 c -0.061,-0.089 -0.002,-0.179 -0.003,-0.24 -0.03,-0.058 0.029,-0.059 0.058,-0.09 10e-4,-0.029 -0.061,-0.087 -0.001,-0.119 0.06,-0.03 0.029,-0.06 -10e-4,-0.09 0,-0.029 -0.001,-0.088 0.028,-0.089 0.06,-0.091 0.057,-0.24 0.206,-0.242 l 0.03,-0.03 c 0.059,-0.09 0.177,-0.121 0.268,-0.123 0.029,0 0.089,-0.03 0.089,-0.03 0.031,0.089 0.089,0.028 0.119,0.028 0.12,-0.001 0.27,0.026 0.357,-0.095 0.03,-0.06 0.119,-0.061 0.179,-0.062 0.06,0.03 0.06,0.03 0.118,-10e-4 0.001,-0.03 0.03,-0.06 0.061,-0.061 0.028,-0.03 0.058,-0.03 0.058,-10e-4 0.032,0.06 0.121,0.06 0.181,0.088 0.03,0.059 0.06,-0.001 0.12,-0.003 0.028,0.001 -0.002,-0.058 -0.002,-0.058 -0.03,-0.059 0,-0.059 0.028,-0.09 L 0.352,-1.193 C 0.44,-1.194 0.5,-1.225 0.588,-1.286 c 0,0 0.029,-0.03 0.031,-10e-4 0.06,0.03 0.118,-0.001 0.149,-0.002 0.03,0.03 0,0.031 0,0.06 0.002,0.089 0.002,0.089 0.122,0.059 0.029,-0.002 0.089,-0.032 0.148,-0.003 0.061,0.029 0.12,-0.002 0.179,-0.062 -0.061,-0.058 -0.092,-0.118 -0.152,-0.088 -0.029,0.031 -0.059,0.002 -0.059,0.002 -0.029,-0.03 -0.03,-0.06 0,-0.059 l 0.058,-0.092 c 0.09,0.029 0.119,-0.06 0.209,-0.062 0.059,-10e-4 0.089,-0.031 0.089,-0.061 0.058,-0.03 0.089,-0.06 0.117,-0.091 0.059,-0.061 0.149,-0.062 0.239,-0.063 0.029,-0.03 0.059,-10e-4 0.089,0.029 0.03,0.029 0.06,-0.001 0.06,0.029 0.03,0.06 0.003,0.149 -0.056,0.18 H 1.78 c -0.147,0.032 -0.267,0.093 -0.355,0.184 -0.029,10e-4 -0.059,0.031 -0.029,0.06 l 0.06,-0.001 c 0,0 0.058,-0.03 0.06,-10e-4 0.03,0.09 0.088,0.06 0.149,0.088 -0.03,-0.06 -0.032,-0.09 0.029,-0.119 l 0.088,-0.091 c 0.06,-10e-4 0.09,0.058 0.151,0.087 0.028,-0.059 0.028,-0.119 0.087,-0.12 0.06,-0.001 0.09,0.029 0.121,0.058 0.06,0.059 0.209,0.027 0.267,-0.033 0.029,-0.09 0.116,-0.182 0.206,-0.212 L 2.613,-1.671 C 2.585,-1.67 2.554,-1.7 2.493,-1.729 2.523,-1.759 2.552,-1.819 2.552,-1.849 2.521,-1.908 2.551,-1.939 2.58,-1.969 2.578,-2.088 2.729,-2.061 2.758,-2.15 h 0.029 c 0.061,0.058 0.149,-0.003 0.209,0.026 0.031,0.03 0.061,0 0.061,0 0.029,-0.061 0.088,-0.091 0.118,-0.091 0.09,0.028 0.148,-0.003 0.21,-0.003 0.028,-10e-4 0.058,-10e-4 0.058,0.03 -0.029,0.028 -0.029,0.028 -0.058,0.118 0.003,0.091 -0.086,0.182 -0.177,0.153 -0.06,-0.03 -0.119,0.002 -0.179,0.033 -0.058,0.06 -0.118,0.06 -0.177,0.092 0,0 -0.06,-10e-4 -0.06,0.029 l 0.001,0.03 v 0.03 l 0.09,-10e-4 c 0.058,-0.06 0.058,-0.031 0.09,0.029 0.029,-10e-4 0.03,0.029 0.03,0.029 0.03,0.029 0.09,0.029 0.089,-0.002 C 3.09,-1.796 3.27,-1.8 3.328,-1.889 L 3.357,-1.89 c 0.092,0.059 0.151,-0.002 0.209,-0.062 0.029,-0.09 0.119,-0.091 0.178,-0.091 0.061,0.029 0.089,-0.002 0.119,-0.032 0.03,-0.031 0.059,-0.091 0.089,-10e-4 0.03,-10e-4 0.059,-0.031 0.03,-0.03 -0.03,-0.03 -0.001,-0.09 -0.002,-0.12 -0.06,10e-4 -0.119,0.032 -0.178,0.032 0,0 -0.029,10e-4 -0.06,-0.028 -10e-4,-0.031 -0.002,-0.09 0.029,-0.091 0.059,-10e-4 0.058,-0.03 0.088,-0.061 0.03,-0.03 0.059,-0.06 0.12,-10e-4 h 0.06 c 0.087,-0.091 0.237,-0.064 0.357,-0.095 0.058,-10e-4 0.149,0.028 0.208,-0.062 l 0.059,-10e-4 c 0.061,-10e-4 0.15,0.028 0.179,-0.092 -10e-4,-0.03 0.089,-0.061 0.117,-0.091 0,-0.031 0.03,-0.03 0.03,-0.03 0.06,0.059 0.119,-0.003 0.149,-0.032 0.03,-0.03 0.03,-0.06 0.089,-0.061 0.031,0 0.031,0 0.06,-0.031 0.028,-0.06 0.058,-0.09 0.117,-0.091 0.031,0 0.03,-0.03 0.03,-0.06 -0.031,-0.03 -0.061,-0.059 -0.09,-0.059 -0.03,0.09 -0.151,0.003 -0.178,0.092 l -0.062,0.002 c -0.029,-0.03 -0.029,-0.06 0,-0.061 l 0.118,-0.18 c 0.059,-0.031 0.09,-0.031 0.119,-0.002 0.03,0.03 0.032,0.09 0.09,0.088 0.03,-0.029 0.09,-0.061 0.059,-0.149 -0.029,10e-4 0,-0.03 0,-0.03 0.029,-0.031 0.058,-0.061 0.027,-0.12 l 0.03,-0.03 C 5.605,-3.471 5.666,-3.501 5.726,-3.502 5.767,-3.503 5.808,-3.511 5.84,-3.521 5.873,-3.545 5.9,-3.576 5.884,-3.63 5.892,-3.672 5.898,-3.714 5.923,-3.731 5.971,-3.765 6.02,-3.8 5.985,-3.849 5.934,-3.921 5.982,-3.956 6.014,-4.015 6.069,-4.091 6.118,-4.125 6.191,-4.177 6.282,-4.204 6.338,-4.28 6.359,-4.405 6.342,-4.429 6.366,-4.447 6.373,-4.488 6.454,-4.582 6.476,-4.707 6.597,-4.793 6.621,-4.81 6.653,-4.869 6.66,-4.91 6.644,-4.935 6.65,-4.976 6.675,-4.994 6.766,-5.021 6.828,-5.139 6.926,-5.208 6.975,-5.242 7.048,-5.293 7.104,-5.37 L 7.226,-5.456 C 7.382,-5.493 7.504,-5.579 7.65,-5.682 7.698,-5.717 7.789,-5.745 7.854,-5.754 l 0.296,-0.1 c 0.042,0.007 0.09,-0.027 0.133,-0.02 0.107,-0.003 0.142,0.046 0.127,0.129 -0.007,0.042 -0.014,0.083 0.003,0.107 0.034,0.049 0.069,0.098 0.063,0.14 -0.008,0.042 0.009,0.066 0.026,0.091 0.104,0.146 0.225,0.317 0.352,0.446 0.042,0.007 0.059,0.031 0.059,0.031 0.155,0.22 0.317,0.397 0.472,0.617 0.087,0.121 0.173,0.243 0.276,0.39 l 0.225,0.317 c 0.061,0.139 0.14,0.302 0.244,0.449 l 0.102,0.146 c 0.07,0.097 0.055,0.18 0.124,0.278 -0.097,0.069 0.027,0.09 0.021,0.132 -0.008,0.041 0.01,0.066 0.026,0.09 0.018,0.025 -0.007,0.042 -0.031,0.059 -0.042,-0.007 -0.083,-0.014 -0.007,0.041 0,0 0.017,0.025 -0.008,0.042 -0.077,0.201 -0.103,0.475 -0.322,0.631 0.018,0.024 -0.007,0.041 -0.031,0.058 -0.063,0.118 -0.144,0.211 -0.258,0.256 -0.024,0.017 -0.031,0.059 0.01,0.066 0,0 0.017,0.024 -0.007,0.041 -0.066,0.01 -0.073,0.052 -0.104,0.11 C 9.596,-1.172 9.529,-1.162 9.54,-1.096 9.459,-1.002 9.345,-0.958 9.281,-0.839 9.215,-0.83 9.143,-0.778 9.068,-0.726 9.027,-0.733 9.003,-0.716 8.979,-0.699 8.856,-0.613 8.718,-0.551 8.544,-0.538 8.502,-0.545 8.502,-0.545 8.495,-0.504 8.505,-0.438 8.464,-0.445 8.398,-0.435 8.355,-0.442 8.298,-0.474 8.231,-0.463 8.189,-0.471 8.148,-0.478 8.131,-0.502 8.114,-0.526 8.072,-0.534 8.048,-0.517 8.023,-0.499 7.992,-0.44 7.95,-0.448 7.843,-0.445 7.767,-0.501 7.666,-0.54 7.632,-0.588 7.639,-0.63 7.629,-0.696 7.611,-0.72 7.595,-0.745 7.619,-0.762 7.739,-0.591 7.781,-0.584 7.935,-0.729 7.899,-0.778 7.841,-0.81 7.807,-0.858 7.772,-0.907 7.821,-0.941 7.838,-0.917 7.862,-0.934 7.879,-0.91 7.903,-0.927 7.945,-0.92 7.987,-0.913 8.012,-0.93 8.036,-0.947 8.043,-0.989 8.025,-1.013 7.942,-1.027 7.884,-1.059 7.817,-1.049 7.85,-1.107 7.863,-1.191 7.87,-1.232 7.885,-1.315 7.976,-1.343 7.947,-1.433 l -0.096,0.069 c -0.04,0.028 -0.088,0.038 -0.134,0.032 -0.071,0.042 -0.135,0.09 -0.202,0.115 -0.034,0.02 -0.058,0.045 -0.08,0.071 0.001,0.009 -0.002,0.017 0.008,0.033 0.018,0.024 0.018,0.024 -0.006,0.042 -0.033,0.058 -0.046,0.142 -0.12,0.193 -0.021,-0.03 -0.047,-0.057 -0.08,-0.079 -0.002,0.004 -0.002,0.006 -0.003,0.009 -0.056,0.109 -0.216,0.133 -0.302,0.234 -0.036,0.023 -0.094,0.008 -0.13,0.03 -0.058,-0.013 -0.123,0 -0.138,0.059 -0.036,0.022 -0.071,0.044 -0.138,0.059 -0.186,0.016 -0.381,0.184 -0.577,0.228 -0.006,0.03 -0.006,0.03 -0.043,0.051 -0.079,0.073 -0.194,0.168 -0.339,0.132 -0.058,-0.013 -0.101,0.038 -0.167,0.052 -0.029,-0.006 -0.065,0.016 -0.129,0.031 -0.074,0.044 -0.144,0.088 -0.253,0.03 0,0 -0.066,0.015 -0.095,0.008 C 4.916,-0.005 4.887,-0.012 4.852,0.01 4.75,0.047 4.627,0.048 4.525,0.085 4.498,0.078 4.498,0.078 4.461,0.099 4.382,0.172 4.266,0.145 4.172,0.153 4.113,0.138 4.085,0.131 4.02,0.146 3.991,0.139 3.925,0.154 3.889,0.176 3.824,0.19 3.759,0.206 3.701,0.192 3.65,0.148 3.601,0.229 3.571,0.221 L 3.542,0.214 C 3.492,0.172 3.426,0.187 3.39,0.208 3.325,0.223 3.252,0.268 3.179,0.188 L 3.144,0.211 3.043,0.247 C 2.941,0.284 2.854,0.263 2.753,0.299 2.645,0.242 2.58,0.258 2.471,0.323 2.464,0.353 2.435,0.345 2.435,0.345 2.333,0.259 2.225,0.325 2.132,0.333 2.095,0.355 2.088,0.383 2.06,0.377 1.942,0.349 1.877,0.364 1.805,0.408 1.74,0.423 1.646,0.43 1.602,0.358 1.608,0.33 1.58,0.322 1.58,0.322 1.516,0.336 1.456,0.323 1.406,0.28 1.355,0.236 1.312,0.288 1.261,0.245 1.181,0.194 1.094,0.174 1.015,0.247 1.008,0.275 0.979,0.269 0.95,0.261 0.855,0.269 0.782,0.19 0.71,0.111 0.666,0.162 0.688,0.198 0.682,0.227 0.61,0.271 0.573,0.292 0.531,0.344 0.495,0.366 0.466,0.358 0.437,0.352 0.364,0.272 0.35,0.331 0.336,0.388 0.329,0.417 0.292,0.439 0.271,0.403 0.241,0.397 0.213,0.39 0.176,0.411 0.104,0.455 0.083,0.419 0.061,0.383 L 0.016,0.311 C -0.064,0.261 -0.15,0.24 -0.216,0.255 -0.281,0.27 -0.288,0.298 -0.354,0.314 -0.39,0.336 -0.425,0.358 -0.482,0.343 -0.541,0.329 -0.629,0.309 -0.672,0.359 -0.681,0.388 -0.681,0.388 -0.708,0.381 -0.736,0.374 -0.759,0.338 -0.787,0.331 -0.817,0.324 -0.86,0.375 -0.911,0.332 c 0,0 -0.035,0.022 -0.058,-0.014 -0.054,-0.035 -0.077,-0.069 -0.093,-0.113 -0.033,0.007 -0.056,0.024 -0.091,0.024 -0.031,0 -0.09,0.001 -0.119,0.031 l -0.09,0.002 c -0.03,-0.03 -0.06,0 -0.089,0.031 C -1.51,0.354 -1.601,0.324 -1.66,0.266 -1.69,0.207 -1.632,0.175 -1.662,0.146" /></g></g></g></g></svg>