<?xml version="1.0" encoding="UTF-8" standalone="no"?>
<svg
   xmlns:dc="http://purl.org/dc/elements/1.1/"
   xmlns:cc="http://creativecommons.org/ns#"
   xmlns:rdf="http://www.w3.org/1999/02/22-rdf-syntax-ns#"
   xmlns:svg="http://www.w3.org/2000/svg"
   xmlns="http://www.w3.org/2000/svg"
   viewBox="0 0 213.30667 203.97333"
   height="203.97333"
   width="213.30667"
   xml:space="preserve"
   id="svg2"
   version="1.1"><metadata
     id="metadata8"><rdf:RDF><cc:Work
         rdf:about=""><dc:format>image/svg+xml</dc:format><dc:type
           rdf:resource="http://purl.org/dc/dcmitype/StillImage" /></cc:Work></rdf:RDF></metadata><defs
     id="defs6"><clipPath
       id="clipPath18"
       clipPathUnits="userSpaceOnUse"><path
         id="path16"
         d="M 0,152.98 H 159.98 V 0 H 0 Z" /></clipPath></defs><g
     transform="matrix(1.3333333,0,0,-1.3333333,0,203.97333)"
     id="g10"><g
       id="g12"><g
         clip-path="url(#clipPath18)"
         id="g14"><path
           id="path20"
           style="fill:#231f20;fill-opacity:1;fill-rule:evenodd;stroke:none"
           d="m 96.321,111.985 h 0.333 v 1 h -0.333 z m -16.664,1 h -0.333 v -1 h 0.333 z m 35.662,-57.993 h 0.333 v 1 h -0.333 z m -24.331,58.66 h -1 v -0.333 h 1 z m 35.329,-52.66 h 0.333 v 1 h -0.333 z m -46.66,19.997 h -0.333 v -1 h 0.333 z m 7.332,-10.332 h -1 v -0.333 h 1 z m 35.995,47.994 h -1 v -0.333 h 1 z M 103.987,75.656 h -1 v -0.333 h 1 z m -4,-0.333 h 1 v 0.333 h -1 z m 18.331,0.667 h 0.333 v 1 h -0.333 z m -2.999,42.994 h 0.333 v 1 h -0.333 z m 5.999,2 h 0.333 v 1 h -0.333 z M 101.321,86.988 h 0.333 v 1 h -0.333 z M 90.988,97.321 h 1 v 0.333 h -1 z m 23.997,5.999 h 1 v 0.333 h -1 z m -15.998,0 h 1 v 0.333 h -1 z m -5.333,0.666 h -0.332 v -1 h 0.332 z m 27.16,-71.149 -0.864,-0.108 c 0.13,-0.542 0.259,-1.084 0.389,-1.627 0.158,0.026 0.317,0.052 0.475,0.079 z m 6.92,1.158 h -0.5 v -2 h 0.5 z m -26.497,76.99 h 0.5 v 2 h -0.5 z M 85.989,72.74 h -2 v -0.5 h 2 z M 73.162,85.147 c 0.287,0.037 0.575,0.073 0.863,0.109 -0.129,0.542 -0.258,1.085 -0.388,1.627 -0.158,-0.027 -0.317,-0.053 -0.475,-0.079 z m 41.994,7.999 0.865,0.109 c -0.13,0.542 -0.259,1.085 -0.389,1.627 -0.158,-0.027 -0.318,-0.053 -0.476,-0.079 z m -21.984,20.668 c 0.017,-0.285 0.037,-0.57 0.055,-0.855 0.556,0.121 1.114,0.242 1.67,0.363 l -0.067,0.492 z M 79.07,123.845 c 0.872,0.16 1.313,0.242 1.943,0.358 -0.798,0.527 -1.411,0.933 -1.943,1.283 z m 38.801,-1.253 c 1.926,-0.666 2.461,-0.182 2.077,0.744 -0.611,-0.219 -1.344,-0.482 -2.077,-0.744 m -10.13,-47.517 c -0.41,0.76 -0.761,1.41 -1.59,2.948 v -2.948 z m -17.673,30.299 c 0.707,0.327 1.391,0.645 2.075,0.962 -0.118,0.158 -0.235,0.316 -0.353,0.477 h -1.722 z m 0.084,-7.171 c 0.823,1.752 1.244,2.651 1.735,3.698 h -1.735 z m 11.879,-3.969 c 1.972,-0.602 2.654,0.54 3.133,2.446 -0.688,0.134 -1.242,0.242 -1.706,0.333 -0.501,-0.977 -0.917,-1.786 -1.427,-2.779 M 131.872,62.38 c -1.176,2.299 -2.992,1.623 -4.985,1.39 1.403,-0.978 2.581,-1.8 3.756,-2.62 0.37,0.371 0.722,0.724 1.229,1.23 m -24.961,-9.285 c 0.335,1.939 -0.094,3.104 -0.833,3.439 -1.057,-0.432 -1.641,-0.672 -2.223,-0.91 0.544,-0.544 0.781,-0.779 1.013,-1.019 -0.259,-0.433 -0.517,-0.866 -0.903,-1.51 z m -22.841,50.34 c -0.104,0.521 -0.197,0.977 -0.298,1.478 -0.772,-0.425 -1.409,-0.775 -2.142,-1.179 -0.429,0.886 -0.757,1.561 -1.085,2.238 h -1.267 c -0.614,-1.615 -0.383,-2.951 1.026,-3.743 1.376,0.441 2.543,0.814 3.766,1.206 m -12.754,16.06 c 2.324,-0.793 3.915,-1.337 5.524,-1.887 0.181,-0.527 0.376,-1.095 0.59,-1.721 0.568,0.131 1.016,0.234 1.756,0.406 -1.292,1.708 -2.436,3.219 -3.303,4.365 -1.582,-0.402 -2.615,-0.666 -4.567,-1.163 m 32.671,-11.509 c 1.808,1.104 0.816,2.582 0.881,4.069 -1.396,-0.992 -2.514,-1.785 -4.088,-2.903 -0.233,-0.317 1.081,-1.931 -1.406,-2.204 0.15,0.015 0.301,0.031 0.451,0.046 v 3.902 c -1.065,-0.539 -1.966,-0.993 -2.927,-1.477 0.137,-0.492 0.259,-0.935 0.415,-1.499 0.462,0.417 0.792,0.729 1.147,1.012 0.027,0.022 0.222,-0.166 0.339,-0.255 0.191,-0.576 0.384,-1.153 1.188,-1.691 v -2.52 c 1.682,1.479 2.841,2.5 4,3.52 M 98.624,92.204 c -0.728,-0.788 -1.176,-1.274 -2.126,-2.306 1.348,0.152 1.887,0.212 2.63,0.295 -0.195,0.781 -0.329,1.314 -1.14,1.829 v 1.857 c -1.755,-0.626 -2.831,2.625 -4.95,0.596 0.314,-0.364 0.607,-0.704 0.751,-0.871 -0.355,-0.805 -0.647,-1.468 -1.273,-2.887 2.301,0.549 3.882,0.927 6.108,1.487 m -14.815,8.901 c -0.856,-0.138 -1.87,-0.301 -3.836,-0.619 1.445,-1.002 2.103,-1.458 2.798,-1.939 -0.17,-0.336 -0.398,-0.785 -0.691,-1.362 0.797,-0.474 1.561,-0.929 2.324,-1.383 0.204,0.152 0.409,0.305 0.613,0.459 -0.308,0.404 -0.617,0.808 -0.937,1.228 0.32,0.421 0.681,0.895 1.061,1.394 -0.459,0.765 -0.846,1.411 -1.256,2.194 0.065,-0.064 0.13,-0.13 0.195,-0.195 0.272,0.232 0.545,0.465 0.816,0.697 -0.104,0.106 -0.209,0.211 -0.314,0.316 -0.232,-0.273 -0.465,-0.545 -0.773,-0.79 M 93.916,65.413 c -1.006,1.386 -1.768,2.437 -2.554,3.52 -1.331,-2.052 0.876,-3.213 0.913,-5.13 0.788,0.771 1.254,1.23 1.608,2.279 0.066,-0.065 0.131,-0.13 0.195,-0.195 0.274,0.232 0.545,0.465 0.818,0.697 -0.105,0.104 -0.21,0.21 -0.316,0.314 -0.232,-0.271 -0.465,-0.544 -0.664,-1.485 m 5.089,31.537 c 0.593,0.048 1.192,0.096 1.792,0.145 v 4.573 c -0.784,-2.064 -1.282,-3.375 -1.81,-4.681 -0.333,0 -0.666,0 -5.403,-1.398 1.361,0.44 1.809,0.548 2.223,0.731 0.416,0.183 0.784,0.479 1.201,0.66 1.129,0.494 1.272,0.776 0.632,1.825 -0.281,0.46 -0.769,0.793 -0.997,1.02 -0.946,-1.309 -1.731,-2.396 1.345,-2.838 l 0.328,-0.829 c 0.224,0.277 0.448,0.553 0.689,0.792 m 31.786,34.446 c 0.479,-0.852 0.956,-1.704 1.552,-2.766 1.349,1.917 -0.071,2.484 -1.514,-2.069 0.765,0.68 1.142,0.878 1.121,1.021 -0.067,0.479 -0.277,0.936 -0.432,1.401 -0.171,-0.602 -0.343,-1.205 -0.727,2.413 m -35.77,-30.412 c -0.175,0.166 -0.353,0.333 -0.53,0.5 -0.458,-0.709 -0.916,-1.417 -1.522,-2.353 0.668,-0.045 1.207,-0.08 1.908,-0.127 0.059,0.8 0.102,1.39 0.007,2.073 0.065,-0.064 0.13,-0.13 0.194,-0.195 0.274,0.232 0.545,0.465 0.818,0.697 -0.105,0.106 -0.21,0.211 -0.316,0.316 -0.232,-0.273 -0.465,-0.545 -0.559,-0.911 m -6.877,10.424 c -0.765,-0.679 -1.142,-0.879 -1.122,-1.021 0.068,-0.478 0.278,-0.936 0.433,-1.401 0.172,0.603 0.343,1.205 -0.361,-0.09 -0.065,0.065 -0.13,0.129 -0.196,0.195 -0.271,-0.233 -0.544,-0.465 -0.816,-0.697 0.105,-0.105 0.21,-0.21 0.314,-0.316 0.233,0.273 0.465,0.545 1.748,3.33 m 2.741,-22.329 c 0.064,-0.065 0.129,-0.13 0.194,-0.195 l 0.817,0.697 c -0.105,0.105 -0.21,0.21 -0.315,0.315 -0.232,-0.272 -0.465,-0.544 -0.487,-0.998 -0.066,0.065 -0.131,0.13 -0.196,0.195 -0.272,-0.232 -0.544,-0.464 -0.817,-0.697 0.105,-0.105 0.21,-0.21 0.315,-0.315 0.233,0.273 0.465,0.545 0.489,0.998 m 22.191,27.011 c -0.064,-0.066 -0.13,-0.13 -0.194,-0.195 0.231,-0.273 0.464,-0.545 0.696,-0.818 0.106,0.106 0.21,0.211 0.316,0.316 -0.273,0.232 -0.545,0.464 -0.908,0.592 -0.11,0.277 -0.219,0.553 -0.329,0.829 -0.223,-0.276 -0.447,-0.552 -0.566,-0.919 l -0.195,0.195 -0.818,-0.697 c 0.106,-0.105 0.211,-0.21 0.316,-0.316 0.232,0.273 0.464,0.545 0.592,0.908 0.333,0 0.666,0 1.09,0.105 m 19.862,-46.152 c 0.378,-0.947 0.711,-1.947 1.045,-2.947 h -2.545 c -0.314,0.666 -0.636,1.351 -1.169,2.481 -0.982,-0.991 -1.79,-1.807 -3.189,-3.216 2.44,-0.175 4.011,-0.288 5.974,-0.429 -0.347,-0.485 -0.559,-0.781 -0.995,-1.392 1.255,-0.607 2.506,-1.21 3.778,-1.825 -0.494,-0.857 -0.849,-1.896 -1.552,-2.575 -0.766,-0.74 -1.856,-1.147 -3.327,-2.003 -0.467,-0.023 -1.587,-0.079 -3.094,-0.153 0.435,-0.563 0.606,-1.009 0.915,-1.149 2.102,-0.949 4.254,-1.788 6.344,-2.761 0.701,-0.327 1.269,-0.942 1.905,-1.431 -0.535,-0.535 -1.006,-1.005 -1.506,-1.505 -0.345,0.311 -0.694,0.624 -1.174,1.057 -3.461,-2.176 -7.518,-0.526 -11.586,-1.306 3.148,-6.815 6.17,-13.356 9.256,-20.038 -0.212,-0.294 -0.486,-0.674 -0.724,-1.004 0.23,-1.002 0.529,-1.994 0.672,-3.007 0.173,-1.23 2.548,-0.235 2.017,-2.079 4.011,-4.533 4.812,-10.703 7.959,-15.685 0.301,-0.477 0.04,-1.307 0.04,-1.972 -2.288,0.619 -2.689,2.918 -3.936,4.457 -2.711,3.346 -5.359,6.742 -8.011,10.092 0.425,0.426 0.656,0.657 0.721,0.721 l -2.772,2.727 c 1.872,-0.08 2.903,0.72 3.05,3 h -3.05 c 0.305,0.524 0.61,1.048 1.203,2.068 -1.152,-0.325 -1.936,-0.546 -2.905,-0.821 -0.455,0.429 -1.14,1.076 -1.863,1.758 -1.358,-3.054 0.242,-5.475 1.562,-7.794 -0.361,-1.165 -0.678,-2.187 -0.997,-3.21 -5.463,6.979 -9.921,14.646 -14.963,21.914 -3.553,5.122 -6.732,10.501 -10.208,15.678 -0.677,1.009 -1.875,1.752 -2.971,2.378 -3.616,2.067 -7.312,3.996 -10.942,6.04 -1.207,0.68 -2.308,1.544 -3.854,2.592 -0.392,1.136 -0.943,2.737 -1.658,4.811 -0.284,-1.437 -0.481,-2.441 -0.749,-3.805 -2.423,1.564 -5.583,1.763 -5.648,5.385 1.014,-0.702 2.029,-1.404 3.459,-2.395 0.313,0.833 0.615,1.634 0.945,2.51 -0.992,1.166 -2.539,2.985 -4.393,5.164 0.378,1.975 2.202,-1.525 2.98,0.449 -1.859,1.079 -3.78,2.194 -5.951,3.454 -0.082,1.597 0.181,3.413 -1.04,4.816 0.885,0.24 1.771,0.478 2.83,0.764 3.757,-0.86 7.803,-1.786 12.411,-2.841 -3.285,5.584 -6.308,10.723 -9.33,15.86 0.443,0.892 0.848,1.705 1.563,3.141 -1.321,-0.223 -2.098,-0.354 -3.352,-0.565 -0.807,2.146 -1.749,4.651 -2.837,7.544 -0.19,0.135 -0.855,0.608 -1.81,1.287 1.135,0.564 1.796,0.894 2.458,1.223 -0.262,1.058 -2.481,0.158 -2.04,2.086 0.056,0.245 -1.346,0.825 -2.386,1.432 1.731,1.231 3.082,2.191 4.549,3.234 0.537,-0.392 1.022,-0.748 1.841,-1.346 0.05,1.003 0.089,1.779 0.136,2.741 2.039,1.751 3.961,3.914 7.011,4.488 -0.019,-0.013 -0.085,-0.078 -0.15,-0.142 0.232,-0.273 0.465,-0.545 0.697,-0.818 0.106,0.105 0.211,0.21 0.315,0.316 -0.272,0.232 -0.544,0.464 -0.862,0.644 2.467,1.936 4.981,3.923 6.975,5.502 0.847,-0.393 1.602,-0.744 2.48,-1.152 -1.237,-1.872 -4.156,-1.825 -3.501,-4.403 -0.521,0.298 -1.043,0.597 -1.577,0.902 -0.383,-0.791 -0.816,-1.685 -1.146,-2.367 0.234,-0.552 0.406,-0.956 0.65,-1.534 -0.965,0 -1.445,0 -1.972,-0.052 0.021,0.012 0.085,0.078 0.151,0.142 l -0.698,0.818 -0.315,-0.316 c 0.272,-0.232 0.545,-0.465 0.862,-0.644 -0.258,-0.472 -0.563,-0.995 -0.928,-1.621 0.716,-0.5 1.476,-1.031 2.343,-1.637 0.448,0.958 0.766,1.639 1.188,2.541 0.582,-1.582 0.449,-2.826 0.023,-4.291 -0.316,-1.09 0.379,-2.473 0.62,-3.708 1.676,-0.043 2.923,-2.456 4.798,-0.719 v 1.488 c 1.37,1.006 1.37,1.994 0,2.999 -1.576,2.545 -3.634,4.849 -3.999,7.999 1.297,-0.395 2.595,-0.792 3.798,-1.159 0.187,-1.061 0.344,-1.956 0.496,-2.823 0.66,0.382 1.184,0.683 1.705,0.983 v -1.974 c 1.793,0.419 3.234,0.756 5.07,1.184 -0.145,-1.074 -0.221,-1.642 -0.32,-2.375 -0.572,0.509 -0.925,0.824 -1.279,1.137 -0.471,-0.472 -0.941,-0.941 -1.593,-1.594 0.35,-0.741 0.736,-1.559 1.122,-2.378 -0.869,0.085 -2.07,-0.439 -2.047,1.237 0.004,0.25 -0.619,0.508 -0.998,0.712 0.02,0.012 0.084,0.077 0.151,0.142 l -0.698,0.818 c -0.105,-0.106 -0.21,-0.211 -0.316,-0.316 0.274,-0.232 0.545,-0.465 0.863,-0.644 0.045,-1.574 0.045,-3.199 0.045,-5.323 1.291,0.596 2.092,0.965 2.958,1.366 1.461,-0.631 3.004,-2.244 4.513,0.074 0.593,-1.034 1.133,-1.975 1.884,-3.283 1.077,1.352 2.546,2.029 2.815,4.426 -1.218,-0.439 -1.992,-0.719 -3.137,-1.133 0.231,0.857 0.444,1.647 0.71,2.633 -0.095,0.105 -0.413,0.454 -0.801,0.88 0.456,0.171 0.887,0.334 1.457,0.548 0.359,-0.73 0.683,-1.392 1.043,-2.124 0.43,0.046 0.883,0.095 1.486,0.158 -0.301,0.595 -0.53,1.049 -1.059,2.091 1.674,-0.648 2.895,-1.121 4.067,-1.574 0.052,-0.92 0.096,-1.708 0.145,-2.585 h 1.917 v 6.901 c 0.808,-1.685 1.102,-2.297 1.434,-2.989 0.436,0.045 0.889,0.092 1.499,0.155 -0.646,1.268 -1.22,2.393 -1.777,3.486 l 1.068,1.068 c -1.338,0.07 -2.498,1.119 -3.224,-0.724 -0.804,0.383 -1.61,0.767 -2.562,1.22 -0.282,-0.811 -0.483,-1.389 -0.807,-2.322 -1.713,0.188 -3.51,0.386 -5.446,0.597 -0.072,-0.186 -0.294,-0.756 -0.671,-1.725 -0.533,2.144 -0.985,3.964 -1.47,5.916 0.437,0.13 0.878,0.261 1.681,0.498 0.151,-1.018 0.283,-1.904 0.444,-2.99 h 4.92 c -0.411,0.528 -0.662,0.852 -1.054,1.357 0.611,0.547 1.257,1.125 2.284,2.044 0.452,-1.101 0.718,-1.75 1.024,-2.496 h 3.478 v 2.024 c -0.569,-0.457 -0.901,-0.724 -1.316,-1.06 -0.416,0.387 -0.866,0.804 -1.595,1.481 2.272,0.983 4.381,1.895 6.491,2.806 0.183,-0.219 0.367,-0.438 0.55,-0.657 -0.911,-1.462 -1.821,-2.923 -2.736,-4.392 0.358,-0.365 0.821,-0.838 1.46,-1.488 0.606,0.344 1.257,0.714 1.712,0.973 1.673,-0.62 3.241,-1.232 4.845,-1.736 0.141,-0.045 0.506,0.616 0.766,0.95 h 3.687 c 0.166,-0.88 0.339,-1.793 0.532,-2.815 0.735,0.505 1.422,0.977 2.281,1.566 -0.693,0.839 -1.081,1.309 -1.357,1.644 0.362,0.731 0.691,1.398 1.072,2.17 -0.857,0.313 -1.434,0.524 -2.114,0.771 v 2.827 c 0.984,-0.374 1.756,-0.666 2.904,-1.101 0.431,1.157 0.911,2.453 1.47,3.956 2.076,-2.166 4.645,-3.919 4.538,-7.032 -1.934,-3.814 -5.817,-5.189 -8.146,-8.375 -2.261,-3.093 -5.03,-6.048 -8.604,-7.684 0.274,-1.177 0.778,-2.201 0.692,-3.173 -0.474,-5.369 1.197,-10.849 -0.835,-16.131 1.723,-2.164 0.827,-4.701 0.792,-7.03 -0.034,-2.317 0.595,-4.417 1.116,-6.577 0.14,-0.583 0.604,-1.09 0.819,-1.458 5.894,-1.63 11.565,-3.198 17.151,-4.743 V 70.99 c -0.663,0.355 -1.326,0.709 -2.292,1.225 -0.434,-0.778 -0.837,-1.501 -1.243,-2.224 -0.488,0 -0.976,0 -1.509,-0.053 0.02,0.013 0.085,0.079 0.15,0.143 -0.232,0.273 -0.464,0.545 -0.696,0.817 -0.106,-0.105 -0.211,-0.21 -0.316,-0.315 0.273,-0.232 0.545,-0.465 0.862,-0.645" /><path
           id="path22"
           style="fill:#231f20;fill-opacity:1;fill-rule:evenodd;stroke:none"
           d="m 32.33,108.986 h 0.333 v 1 H 32.33 Z m -5.333,3.999 c 2.076,-0.459 0.084,-3.366 2.716,-3.748 0.496,0.694 1.153,1.611 1.974,2.757 1.838,0.067 3.124,-2.312 5.308,-2.008 0.647,-0.521 1.293,-1.042 1.931,-1.556 -0.264,-0.278 -0.59,-0.618 -1.136,-1.191 h 2.954 c -0.281,1.032 -0.515,1.889 -0.749,2.747 0.675,0.354 1.35,0.709 2.293,1.203 0.517,-0.907 1.005,-1.76 1.654,-2.896 -0.491,-0.134 -1.03,-0.281 -1.76,-0.48 -0.121,-0.832 -0.253,-1.741 -0.437,-3.01 -0.842,0.329 -1.506,0.588 -2.453,0.957 -0.168,-1.124 -0.359,-2.396 -0.558,-3.723 -2.788,1.874 -6.086,2.613 -8.119,5.598 -0.74,1.087 -3.058,1.099 -5.027,1.719 0.531,1.369 0.97,2.5 1.409,3.631" /><g
           transform="translate(144.4043,68.7793)"
           id="g24"><path
             id="path26"
             style="fill:#231f20;fill-opacity:1;fill-rule:evenodd;stroke:none"
             d="M 0,0 C 2.059,1.212 3.54,1.212 5.232,1.212 5.451,0.952 5.804,0.602 6.074,0.197 6.324,-0.177 6.488,-0.609 6.856,-1.351 3.449,-1.88 0.265,-2.374 -2.706,-2.836 c -1.317,1.79 -2.517,3.419 -3.716,5.047 1.128,0.434 2.256,0.867 3.516,1.352 C -2.578,2.62 -2.377,2.043 -2.171,1.452 -1.274,1.197 -0.111,3.78 0,0 0.188,-0.531 0.564,-0.332 0.545,-0.189 0.477,0.288 0.268,0.746 0.112,1.212 -0.06,0.609 -0.23,0.007 0,0" /></g><g
           transform="translate(20.9585,113.0488)"
           id="g28"><path
             id="path30"
             style="fill:#231f20;fill-opacity:1;fill-rule:evenodd;stroke:none"
             d="m 0,0 c -2.685,-0.454 -4.993,0.354 -6.876,2.355 -0.901,0.959 -1.816,1.532 -3.29,1.712 -1.354,0.167 -2.571,1.439 -3.536,2.893 0.907,-0.342 1.831,-1.007 2.719,-0.962 2.502,0.126 3.977,-2.364 6.606,-2.17 C -2.285,3.982 -0.123,3.169 2.059,2.776 1.982,2.062 1.935,1.613 1.867,0.981 1.274,1.301 0.832,1.539 0.169,1.896 0.105,1.18 0.051,0.565 0,0" /></g><g
           transform="translate(135.5977,133.8691)"
           id="g32"><path
             id="path34"
             style="fill:#231f20;fill-opacity:1;fill-rule:evenodd;stroke:none"
             d="m 0,0 c -0.232,0.232 -0.811,0.81 -1.622,1.621 0.032,0.668 0.075,1.559 0.114,2.378 1.32,-1.418 2.503,-2.69 3.928,-4.223 -0.69,-0.729 -1.603,-1.694 -2.516,-2.66 -0.192,0.089 -0.385,0.177 -0.579,0.266 C -0.504,-1.955 -0.333,-1.293 0,0" /></g><g
           transform="translate(121.9844,130.9834)"
           id="g36"><path
             id="path38"
             style="fill:#231f20;fill-opacity:1;fill-rule:evenodd;stroke:none"
             d="m 0,0 h -3.59 c -0.522,0.67 -1.091,1.398 -1.63,2.091 0.412,0.431 0.604,0.633 0.796,0.834 C -2.756,1.304 -1.052,1.89 1,2.997 V 1 C 0.667,0.666 0.334,0.333 0,0" /></g><g
           transform="translate(121.9844,125.9844)"
           id="g40"><path
             id="path42"
             style="fill:#231f20;fill-opacity:1;fill-rule:evenodd;stroke:none"
             d="m 0,0 c -1.65,1.044 -1.069,2.473 -0.632,3.85 0.13,0.408 0.417,0.767 0.632,1.149 0.334,0.333 0.667,0.666 1,1 H 2 V 2.464 C 1.345,2.163 0.661,1.848 0,1.544 Z" /></g><g
           transform="translate(36.9951,109.9863)"
           id="g44"><path
             id="path46"
             style="fill:#231f20;fill-opacity:1;fill-rule:evenodd;stroke:none"
             d="m 0,0 c -0.933,0.906 -1.865,1.812 -3,2.915 v 1.084 h 2.372 C -0.07,3.149 0.41,2.229 1.074,1.473 1.598,0.877 2.35,0.483 3,0 Z" /></g><g
           transform="translate(57.9927,88.9883)"
           id="g48"><path
             id="path50"
             style="fill:#231f20;fill-opacity:1;fill-rule:evenodd;stroke:none"
             d="M 0,0 C -0.831,0.399 -1.661,0.798 -2.713,1.303 -3.122,2.151 -3.656,3.259 -4.65,5.322 -3.375,4.67 -2.964,4.46 -2.418,4.18 -2.224,4.345 -1.882,4.633 -1.54,4.923 -1.371,4.726 -1.108,4.536 -1.015,4.284 -0.724,3.5 -1.673,2.178 0,2 Z" /></g><g
           transform="translate(94.7813,137.5801)"
           id="g52"><path
             id="path54"
             style="fill:#231f20;fill-opacity:1;fill-rule:evenodd;stroke:none"
             d="m 0,0 c 0.106,-1.777 0.178,-2.98 0.295,-4.919 -1.373,0.965 -2.07,1.902 -3.156,2.814 C -2.015,-1.482 -1.247,-0.918 0,0" /></g><g
           transform="translate(125.9844,18.9971)"
           id="g56"><path
             id="path58"
             style="fill:#231f20;fill-opacity:1;fill-rule:evenodd;stroke:none"
             d="M 0,0 H 1.624 C 2.07,-1.622 2.535,-3.311 3,-4.999 0.732,-4.093 0.354,-2.055 0,0" /></g><g
           transform="translate(121.9404,135.6709)"
           id="g60"><path
             id="path62"
             style="fill:#231f20;fill-opacity:1;fill-rule:evenodd;stroke:none"
             d="M 0,0 C 1.511,0.527 3.021,1.055 4.531,1.582 4.669,1.315 4.808,1.05 4.945,0.783 4.228,0.293 3.569,-0.417 2.778,-0.628 1.937,-0.853 0.969,-0.604 0.057,-0.562 0.038,-0.375 0.019,-0.187 0,0" /></g><g
           transform="translate(155.8359,149.624)"
           id="g64"><path
             id="path66"
             style="fill:#231f20;fill-opacity:1;fill-rule:evenodd;stroke:none"
             d="m 0,0 c -0.867,-0.8 -1.734,-1.6 -2.601,-2.397 -0.285,0.285 -0.637,0.638 -1.036,1.036 0.07,0.203 0.085,0.572 0.236,0.638 0.982,0.438 1.994,0.811 2.997,1.204 C -0.27,0.321 -0.135,0.16 0,0" /></g><g
           transform="translate(146.6484,143.0977)"
           id="g68"><path
             id="path70"
             style="fill:#231f20;fill-opacity:1;fill-rule:evenodd;stroke:none"
             d="M 0,0 C 1.394,0.979 2.373,1.667 3.236,2.273 3.004,2.628 3.35,2.336 3.304,2.134 2.973,0.68 2.254,-0.31 0,0" /></g><g
           transform="translate(143.1787,140.2852)"
           id="g72"><path
             id="path74"
             style="fill:#231f20;fill-opacity:1;fill-rule:evenodd;stroke:none"
             d="M 0,0 C 1.096,0.535 0.115,3.352 2.442,2.573 1.481,0.393 1.331,0.213 0,0" /></g><g
           transform="translate(127.9844,24.9961)"
           id="g76"><path
             id="path78"
             style="fill:#231f20;fill-opacity:1;fill-rule:evenodd;stroke:none"
             d="M 0,0 C -0.757,0.657 -1.514,1.313 -2.89,2.509 -1.376,2.766 -0.688,2.883 0,3 Z" /></g><g
           transform="translate(67.1328,88.041)"
           id="g80"><path
             id="path82"
             style="fill:#231f20;fill-opacity:1;fill-rule:evenodd;stroke:none"
             d="M 0,0 C -0.052,0.66 -0.087,1.094 -0.138,1.74 H 3.504 C 1.92,0.954 1.059,0.525 0,0" /></g><g
           transform="translate(71.1714,78.3096)"
           id="g84"><path
             id="path86"
             style="fill:#231f20;fill-opacity:1;fill-rule:evenodd;stroke:none"
             d="m 0,0 c -1.278,1.277 -1.729,1.729 -2.18,2.18 0.451,0.451 0.902,0.902 1.659,1.66 C -0.365,2.692 -0.245,1.807 0,0" /></g><g
           transform="translate(74.3721,75.2383)"
           id="g88"><path
             id="path90"
             style="fill:#231f20;fill-opacity:1;fill-rule:evenodd;stroke:none"
             d="M 0,0 C -1.493,0.332 -2.834,0.767 -1.999,3.079 -1.183,1.821 -0.591,0.91 0,0" /></g><g
           transform="translate(96.3867,138.6387)"
           id="g92"><path
             id="path94"
             style="fill:#231f20;fill-opacity:1;fill-rule:evenodd;stroke:none"
             d="M 0,0 C 0.346,-0.422 0.801,-0.976 1.102,-1.344 -0.305,-1.455 -0.305,-1.455 0,0" /></g><g
           transform="translate(153.9004,68.6035)"
           id="g96"><path
             id="path98"
             style="fill:#231f20;fill-opacity:1;fill-rule:evenodd;stroke:none"
             d="M 0,0 V -1.437 H -1.721 C -1.839,-1.279 -1.956,-1.12 -2.074,-0.962 -1.39,-0.645 -0.706,-0.327 0,0" /></g><path
           id="path100"
           style="fill:#231f20;fill-opacity:1;fill-rule:evenodd;stroke:none"
           d="m 97.988,118.734 h 1.999 v -0.5 h -1.999 z" /><g
           transform="translate(136.4062,65.8369)"
           id="g102"><path
             id="path104"
             style="fill:#231f20;fill-opacity:1;fill-rule:evenodd;stroke:none"
             d="M 0,0 C -1.218,0.346 -1.82,0.518 -2.423,0.688 -1.957,0.844 -1.5,1.054 -1.021,1.121 -0.879,1.142 -0.681,0.765 0,0" /></g><g
           transform="translate(96.1582,130.1416)"
           id="g106"><path
             id="path108"
             style="fill:#231f20;fill-opacity:1;fill-rule:evenodd;stroke:none"
             d="M 0,0 V 1.658 C 0.158,1.684 0.317,1.71 0.476,1.735 0.605,1.193 0.734,0.65 0.864,0.108 Z" /></g><g
           transform="translate(140.1406,139.8115)"
           id="g110"><path
             id="path112"
             style="fill:#231f20;fill-opacity:1;fill-rule:evenodd;stroke:none"
             d="M 0,0 H 1.658 C 1.685,-0.158 1.71,-0.317 1.735,-0.476 1.191,-0.605 0.646,-0.735 0.101,-0.866 0.067,-0.577 0.033,-0.289 0,0" /></g><path
           id="path114"
           style="fill:#231f20;fill-opacity:1;fill-rule:evenodd;stroke:none"
           d="m 137.982,52.743 h 2 v -0.5 h -2 z" /><g
           transform="translate(92.9609,125.7607)"
           id="g116"><path
             id="path118"
             style="fill:#231f20;fill-opacity:1;fill-rule:evenodd;stroke:none"
             d="M 0,0 C 0.64,0.055 1.278,0.109 1.918,0.164 1.945,-0.051 1.973,-0.267 2,-0.481 1.348,-0.609 0.697,-0.736 0.045,-0.864 0.03,-0.576 0.016,-0.288 0,0" /></g><g
           transform="translate(142.9824,4.999)"
           id="g120"><path
             id="path122"
             style="fill:#231f20;fill-opacity:1;fill-rule:evenodd;stroke:none"
             d="M 0,0 C -1.496,0.085 -0.85,1.242 -1,2 0.496,1.914 -0.15,0.758 0,0" /></g><g
           transform="translate(105.0771,143.0869)"
           id="g124"><path
             id="path126"
             style="fill:#231f20;fill-opacity:1;fill-rule:evenodd;stroke:none"
             d="M 0,0 0.817,-0.697 C 0.712,-0.802 0.606,-0.907 0.502,-1.013 l -0.697,0.818 C -0.13,-0.131 -0.064,-0.065 0,0" /></g><path
           id="path128"
           style="fill:#231f20;fill-opacity:1;fill-rule:evenodd;stroke:none"
           d="m 41.328,102.986 h 0.333 v -0.999 h -0.333 z" /><path
           id="path130"
           style="fill:#231f20;fill-opacity:1;fill-rule:evenodd;stroke:none"
           d="m 99.987,141.648 h 1 v -0.333 h -1 z" /><path
           id="path132"
           style="fill:#231f20;fill-opacity:1;fill-rule:evenodd;stroke:none"
           d="m 136.983,138.316 h -1 v 0.332 h 1 z" /><path
           id="path134"
           style="fill:#231f20;fill-opacity:1;fill-rule:evenodd;stroke:none"
           d="m 103.987,137.649 h 1 v -0.333 h -1 z" /><path
           id="path136"
           style="fill:#231f20;fill-opacity:1;fill-rule:evenodd;stroke:none"
           d="m 142.315,137.982 h 0.333 v -1 h -0.333 z" /><g
           transform="translate(123.8799,132.0732)"
           id="g138"><path
             id="path140"
             style="fill:#231f20;fill-opacity:1;fill-rule:evenodd;stroke:none"
             d="M 0,0 0.697,0.817 1.013,0.502 0.195,-0.195 C 0.13,-0.13 0.065,-0.064 0,0" /></g><path
           id="path142"
           style="fill:#231f20;fill-opacity:1;fill-rule:evenodd;stroke:none"
           d="m 91.655,129.983 h -0.333 v 1 h 0.333 z" /><path
           id="path144"
           style="fill:#231f20;fill-opacity:1;fill-rule:evenodd;stroke:none"
           d="m 98.987,130.649 h 1 v -0.333 h -1 z" /><g
           transform="translate(57.8877,91.0781)"
           id="g146"><path
             id="path148"
             style="fill:#231f20;fill-opacity:1;fill-rule:evenodd;stroke:none"
             d="M 0,0 0.697,0.817 C 0.802,0.713 0.908,0.607 1.013,0.502 L 0.195,-0.195 C 0.13,-0.129 0.065,-0.064 0,0" /></g><path
           id="path150"
           style="fill:#231f20;fill-opacity:1;fill-rule:evenodd;stroke:none"
           d="m 94.988,127.65 h 1 v -0.333 h -1 z" /><path
           id="path152"
           style="fill:#231f20;fill-opacity:1;fill-rule:evenodd;stroke:none"
           d="m 60.992,90.654 h 1 v -0.332 h -1 z" /><g
           transform="translate(110.0762,125.0889)"
           id="g154"><path
             id="path156"
             style="fill:#231f20;fill-opacity:1;fill-rule:evenodd;stroke:none"
             d="M 0,0 0.817,-0.697 0.502,-1.013 C 0.27,-0.74 0.037,-0.468 -0.194,-0.195 -0.13,-0.13 -0.064,-0.065 0,0" /></g><g
           transform="translate(58.083,89.0928)"
           id="g158"><path
             id="path160"
             style="fill:#231f20;fill-opacity:1;fill-rule:evenodd;stroke:none"
             d="M 0,0 C 0.272,-0.231 0.545,-0.464 0.817,-0.696 0.712,-0.802 0.607,-0.907 0.502,-1.012 l -0.697,0.818 C -0.13,-0.13 -0.065,-0.064 0,0" /></g><g
           transform="translate(96.0781,119.0889)"
           id="g162"><path
             id="path164"
             style="fill:#231f20;fill-opacity:1;fill-rule:evenodd;stroke:none"
             d="M 0,0 C 0.272,-0.231 0.545,-0.464 0.817,-0.696 0.713,-0.802 0.607,-0.907 0.502,-1.012 l -0.697,0.818 C -0.13,-0.13 -0.064,-0.064 0,0" /></g><g
           transform="translate(33.9053,113.8809)"
           id="g166"><path
             id="path168"
             style="fill:#231f20;fill-opacity:1;fill-rule:evenodd;stroke:none"
             d="m 0,0 -0.817,0.697 c 0.105,0.105 0.21,0.21 0.315,0.315 C -0.27,0.74 -0.037,0.467 0.195,0.195 0.13,0.13 0.065,0.065 0,0" /></g><path
           id="path170"
           style="fill:#231f20;fill-opacity:1;fill-rule:evenodd;stroke:none"
           d="m 156.647,66.991 h -0.333 v 1 h 0.333 z" /><g
           transform="translate(26.9063,112.8809)"
           id="g172"><path
             id="path174"
             style="fill:#231f20;fill-opacity:1;fill-rule:evenodd;stroke:none"
             d="m 0,0 -0.817,0.697 c 0.105,0.105 0.21,0.21 0.315,0.316 L 0.195,0.195 C 0.13,0.13 0.065,0.065 0,0" /></g><g
           transform="translate(21.0874,113.0898)"
           id="g176"><path
             id="path178"
             style="fill:#231f20;fill-opacity:1;fill-rule:evenodd;stroke:none"
             d="M 0,0 C 0.272,-0.231 0.545,-0.464 0.817,-0.696 0.712,-0.802 0.607,-0.907 0.502,-1.012 0.27,-0.739 0.037,-0.467 -0.195,-0.194 -0.13,-0.13 -0.065,-0.064 0,0" /></g><g
           transform="translate(124.9844,19.9971)"
           id="g180"><path
             id="path182"
             style="fill:#231f20;fill-opacity:1;fill-rule:evenodd;stroke:none"
             d="M 0,0 C 0.334,-0.333 0.666,-0.666 1,-1 0.666,-0.666 0.334,-0.333 0,0" /></g><g
           transform="translate(104.8965,142.877)"
           id="g184"><path
             id="path186"
             style="fill:#231f20;fill-opacity:1;fill-rule:evenodd;stroke:none"
             d="m 0,0 -0.817,0.697 c 0.105,0.105 0.211,0.21 0.315,0.316 L 0.195,0.195 Z" /></g><g
           transform="translate(129.0742,14.1025)"
           id="g188"><path
             id="path190"
             style="fill:#231f20;fill-opacity:1;fill-rule:evenodd;stroke:none"
             d="M 0,0 0.817,-0.697 C 0.712,-0.802 0.606,-0.907 0.502,-1.013 0.27,-0.74 0.037,-0.468 -0.194,-0.195 -0.13,-0.13 -0.064,-0.065 0,0" /></g><path
           id="path192"
           style="fill:#231f20;fill-opacity:1;fill-rule:evenodd;stroke:none"
           d="m 43.661,104.986 h -0.333 v 1 h 0.333 z" /><g
           transform="translate(143.0723,5.1035)"
           id="g194"><path
             id="path196"
             style="fill:#231f20;fill-opacity:1;fill-rule:evenodd;stroke:none"
             d="M 0,0 0.817,-0.697 C 0.713,-0.802 0.607,-0.907 0.502,-1.012 0.27,-0.74 0.037,-0.468 -0.195,-0.195 -0.13,-0.13 -0.064,-0.065 0,0" /></g><g
           transform="translate(90.9883,119.9844)"
           id="g198"><path
             id="path200"
             style="fill:#231f20;fill-opacity:1;fill-rule:evenodd;stroke:none"
             d="m 0,0 v -2.999 c -0.666,0.666 -1.333,1.333 -2,1.999 0.667,0.334 1.334,0.667 2,1" /></g><g
           transform="translate(88.8984,118.8799)"
           id="g202"><path
             id="path204"
             style="fill:#231f20;fill-opacity:1;fill-rule:evenodd;stroke:none"
             d="M 0,0 -0.817,0.697 -0.502,1.013 0.195,0.195 C 0.13,0.13 0.064,0.065 0,0" /></g><g
           transform="translate(103.8965,107.8818)"
           id="g206"><path
             id="path208"
             style="fill:#231f20;fill-opacity:1;fill-rule:evenodd;stroke:none"
             d="M 0,0 C -0.272,0.231 -0.545,0.464 -0.817,0.696 L -0.502,1.012 0.195,0.194 C 0.13,0.13 0.065,0.064 0,0" /></g></g></g></g></svg>