<?xml version="1.0" encoding="UTF-8" standalone="no"?>
<svg
   xmlns:dc="http://purl.org/dc/elements/1.1/"
   xmlns:cc="http://creativecommons.org/ns#"
   xmlns:rdf="http://www.w3.org/1999/02/22-rdf-syntax-ns#"
   xmlns:svg="http://www.w3.org/2000/svg"
   xmlns="http://www.w3.org/2000/svg"
   viewBox="0 0 132.93494 55.706402"
   height="55.706402"
   width="132.93494"
   xml:space="preserve"
   id="svg2"
   version="1.1"><metadata
     id="metadata8"><rdf:RDF><cc:Work
         rdf:about=""><dc:format>image/svg+xml</dc:format><dc:type
           rdf:resource="http://purl.org/dc/dcmitype/StillImage" /></cc:Work></rdf:RDF></metadata><defs
     id="defs6"><clipPath
       id="clipPath18"
       clipPathUnits="userSpaceOnUse"><path
         id="path16"
         d="M 0,41.78 H 99.701 V 0 H 0 Z" /></clipPath></defs><g
     transform="matrix(1.3333333,0,0,-1.3333333,0,55.7064)"
     id="g10"><g
       id="g12"><g
         clip-path="url(#clipPath18)"
         id="g14"><g
           transform="translate(10.6484,6.1538)"
           id="g20"><path
             id="path22"
             style="fill:#231f20;fill-opacity:1;fill-rule:nonzero;stroke:none"
             d="M 0,0 C 0,0.043 -0.043,0.043 -0.086,0.043 -0.129,0.043 -0.129,0 -0.129,0 c 0,-0.043 0.043,-0.086 0.086,-0.043 0,0 0.086,0 0.043,0.043 m -3.526,20.511 c 0,0.172 0,0.343 0.043,0.516 0,0.043 0,0.086 -0.043,0.129 -0.086,0.043 -0.043,0.129 -0.086,0.215 0.043,-0.086 -0.043,-0.129 -0.043,-0.172 0.043,-0.086 0,-0.216 -0.129,-0.259 0,0 -0.043,0 -0.043,-0.043 0,-0.171 -0.086,-0.343 0.086,-0.472 0.043,0 0.043,-0.043 0.043,-0.086 0.086,-0.087 0.086,-0.172 0.129,-0.301 0,0.171 0,0.344 0.043,0.473 m -0.903,-2.623 c 0,0 0.043,0.043 0,0.086 -0.043,0 -0.129,0 -0.129,-0.043 0,-0.043 0.043,-0.086 0.043,-0.129 0.043,0.043 0.086,0.043 0.086,0.086 M -0.43,-0.387 c -0.043,0.043 -0.129,0.043 -0.172,0.043 -0.129,-0.086 -0.258,0 -0.301,0.129 0,0.043 -0.043,0.086 -0.129,0.086 -0.043,0 -0.086,0.086 -0.129,0.086 C -1.247,0 -1.29,0.043 -1.376,0 c -0.086,-0.043 -0.172,-0.043 -0.258,-0.086 -0.172,-0.086 -0.301,-0.043 -0.387,0 C -2.15,0 -2.322,-0.043 -2.451,0 -2.58,0.043 -2.708,0.086 -2.795,0.172 -2.924,0.344 -3.139,0.473 -3.311,0.559 -3.526,0.645 -3.612,0.774 -3.741,0.903 -3.784,0.989 -3.87,1.032 -3.999,1.032 -4.128,1.075 -4.3,1.118 -4.386,1.29 -4.429,1.333 -4.472,1.376 -4.558,1.419 -4.687,1.462 -4.773,1.591 -4.902,1.634 L -4.988,1.72 c -0.043,0.172 -0.129,0.344 -0.215,0.473 v 0.086 c 0,0.172 0,0.344 -0.043,0.473 -0.043,0.086 -0.043,0.172 0,0.258 0,0.086 -0.086,0.129 -0.129,0.215 0,0.086 0.129,0.215 0.043,0.344 0,0 0,0.043 0.043,0.043 0.086,0.086 0.086,0.129 0.043,0.215 v 0.129 c 0,0.086 0,0.172 -0.086,0.301 -0.043,0.043 -0.128,0.172 0,0.301 0.043,0 0,0.043 0,0.086 0,0.172 -0.085,0.301 -0.128,0.473 0,0.129 0,0.215 0.043,0.301 0.042,0.086 0.042,0.172 0.042,0.258 0,0.215 -0.042,0.43 0.043,0.645 0,0 0,0.043 -0.043,0.043 -0.042,0.129 0,0.258 -0.042,0.387 -0.043,0.043 -0.043,0.086 0,0.129 0.042,0.086 0.042,0.215 0.042,0.344 V 7.31 c 0.043,0.129 0.043,0.215 0,0.344 0,0.129 0,0.258 0.043,0.387 v 0.258 c -0.043,0.215 -0.043,0.387 0.043,0.602 v 0.301 c 0,0.258 0,0.473 0.043,0.731 0.043,0.086 0.043,0.215 0.043,0.344 v 0.473 c 0,0.258 0,0.516 0.043,0.774 0,0.043 0.043,0.043 0.043,0.086 -0.086,0.301 0.043,0.602 0.086,0.86 0,0.043 0.043,0.086 0.043,0.129 -0.043,0.086 -0.043,0.215 -0.043,0.301 0,0.129 0.043,0.215 0.086,0.301 v 0.043 c -0.043,0.215 0,0.43 0.043,0.645 0,0.215 0.043,0.43 0.086,0.645 0.043,0.215 0.043,0.43 0.087,0.645 0.042,0.129 0,0.258 -0.044,0.344 -0.043,0.086 -0.086,0.129 -0.172,0.086 0,0 -0.043,0 -0.043,0.043 0.043,0.086 -0.129,0 -0.043,0.129 -0.043,0.172 0.043,0.301 0.129,0.43 0.086,0.129 0,0.258 0.086,0.344 0.043,0.129 0.087,0.215 0.087,0.344 0,0.043 -0.044,0.129 0,0.215 0.042,0.043 0.128,0.086 0.171,0.043 0.043,-0.043 0.086,-0.086 0.086,-0.172 0,-0.13 0.043,-0.258 0.043,-0.387 0,-0.043 0.043,-0.086 0.086,-0.129 0.043,-0.086 0.172,-0.043 0.172,0.043 0.043,0.172 0.087,0.387 0.087,0.559 0.042,0.043 0,0.043 -0.044,0.086 -0.043,0.043 0,0.086 0.044,0.129 0,0.043 0.042,0.129 0,0.172 -0.13,0.042 -0.087,0.129 -0.087,0.215 0,0.043 0.043,0.086 0.043,0.129 -0.086,-0.043 -0.129,-0.086 -0.172,-0.086 -0.043,-0.043 -0.086,-0.043 -0.086,0 -0.086,0.043 -0.129,0.043 -0.172,0.043 -0.086,-0.043 -0.129,-0.043 -0.129,0 -0.042,0.043 -0.086,0.129 -0.042,0.172 0.042,0.043 0.128,0.086 0.085,0.129 0,0.043 0.043,0.043 0.043,0.043 0.086,-0.043 0.172,0 0.258,-0.043 0.043,-0.043 0.129,-0.043 0.086,0.043 v 0.128 c 0.043,0.087 0.043,0.13 0.129,0.173 l 0.129,0.172 c 0.043,0.129 0,0.215 -0.129,0.257 0,0.043 -0.043,0.043 -0.086,0.043 v 0.259 C -4.257,19.092 -4.3,19.092 -4.3,19.092 c 0,0 0,-0.043 -0.043,-0.043 -0.043,-0.086 -0.043,-0.086 0.086,-0.129 0,-0.044 0,-0.044 0.043,-0.044 -0.043,-0.043 0.043,-0.085 0,-0.128 0,-0.043 -0.086,-0.086 -0.172,-0.043 -0.086,0 -0.129,0.043 -0.215,0.086 -0.128,0.042 -0.172,0.301 -0.086,0.344 0.086,0.086 0.086,0.129 0.086,0.172 -0.043,0.086 -0.043,0.172 0,0.214 0.086,0.086 0.172,0.216 0.215,0.345 0.043,0.086 0.043,0.172 -0.043,0.258 -0.086,0.043 -0.043,0.085 -0.043,0.128 0.172,0.173 0.215,0.388 0.215,0.602 v 0.043 c -0.129,0.043 -0.086,0.13 -0.086,0.216 0,0.129 0.129,0.258 0.043,0.387 -0.043,0.042 0,0.128 0.043,0.172 0.129,0.043 0.129,0.172 0.129,0.258 0,0.086 0,0.129 -0.043,0.215 -0.043,0 -0.043,-0.043 -0.086,-0.043 C -4.3,22.059 -4.3,22.016 -4.343,22.016 -4.558,21.973 -4.644,21.758 -4.729,21.628 -4.773,21.542 -4.859,21.5 -4.945,21.414 c -0.043,0 -0.043,0 -0.086,0.043 L -5.074,21.5 c -0.086,-0.043 -0.129,0 -0.172,-0.043 -0.086,0 -0.129,-0.086 -0.171,-0.129 0,-0.043 0.042,-0.043 0.042,-0.043 0,-0.043 0,-0.129 -0.085,-0.129 -0.044,0 -0.173,0.043 -0.13,-0.129 -0.043,-0.044 -0.086,-0.044 -0.129,0 -0.086,0.043 -0.172,0.043 -0.258,0.086 -0.085,0 -0.172,0.043 -0.215,-0.043 -0.043,-0.043 0,-0.13 0.087,-0.173 -0.13,-0.043 -0.216,-0.085 -0.345,0 -0.129,0.043 -0.3,0.043 -0.386,-0.085 -0.044,-0.043 -0.087,-0.043 -0.13,0 -0.043,0 -0.086,0.042 -0.086,0.085 0,0.086 0.043,0.173 0.129,0.173 0.043,0.043 0.087,0.043 0.087,0.043 l 0.043,0.043 c -0.043,0.043 -0.13,0.086 -0.173,0.129 -0.043,0 -0.086,-0.043 -0.086,-0.043 -0.172,-0.043 -0.301,-0.086 -0.386,-0.215 -0.043,0 -0.087,-0.044 -0.043,-0.087 0,-0.043 0.043,-0.043 0.085,-0.043 0.129,0 0.301,-0.043 0.387,-0.171 0.086,-0.086 0.043,-0.172 0.129,-0.258 -0.086,0 -0.215,0.043 -0.258,-0.043 h -0.129 c 0,0.043 -0.043,0.086 -0.086,0 h -0.043 c -0.085,0.086 -0.172,0.043 -0.215,0 0,-0.043 -0.043,-0.043 -0.043,0 -0.043,0 -0.043,0.043 -0.043,0.043 0.129,0.086 0.043,0.301 0.172,0.386 -0.086,0.086 -0.172,0.086 -0.258,0.086 -0.043,0 -0.043,0 -0.043,-0.043 0,-0.043 -0.043,-0.085 -0.086,-0.043 0,-0.042 -0.043,-0.128 -0.086,-0.128 -0.085,0 -0.085,0.043 -0.171,0 -0.087,0.086 -0.173,-0.043 -0.259,-0.086 -0.129,-0.043 -0.215,-0.086 -0.343,-0.086 -0.086,0 -0.173,0.043 -0.216,0.129 -0.086,0.129 -0.172,0.214 -0.215,0.344 -0.043,0.043 -0.043,0.129 -0.043,0.172 0.043,0.172 0.129,0.301 0.129,0.429 0,0.044 0,0.087 0.043,0.087 0.172,0.129 0.302,0.344 0.559,0.344 0.086,0.043 0.258,0.043 0.302,0.214 0,0.086 0.129,0.086 0.171,0.086 h 0.086 c 0.043,0.173 0.129,0.087 0.215,0.087 0.043,0 0.129,0 0.129,0.086 0.043,0.043 0.043,0.129 0.043,0.172 0.043,0.086 0.087,0.129 0.172,0.129 0.043,0 0.086,-0.043 0.129,-0.043 0.043,0 0.086,0 0.129,0.043 0.043,0.085 0.172,0.085 0.215,0.215 l 0.173,0.129 c 0.042,0 0.128,0 0.128,0.086 0,0.043 0.043,0.043 0.086,0.043 0.172,0.043 0.344,0.172 0.431,0.343 0.085,0.13 0.257,0.259 0.3,0.431 0.215,0.043 0.258,0.257 0.345,0.387 0.043,0.086 0.043,0.129 0.128,0.172 0.129,0.043 0.172,0.172 0.258,0.257 0.086,0.129 0.215,0.215 0.345,0.302 0.128,0.043 0.214,0.172 0.3,0.301 0.129,0.257 0.301,0.473 0.43,0.73 0.043,0.043 0.086,0.086 0.172,0.129 0.129,0.086 0.258,0.216 0.301,0.388 0,0.043 0.043,0.086 0.043,0.129 0.129,0.128 0.129,0.301 0.172,0.43 0,0.129 0.043,0.215 0.086,0.3 0.043,0.172 0.129,0.302 0.172,0.474 v 0.043 c 0.172,0.171 0.301,0.386 0.516,0.473 0.086,0.043 0.172,0.086 0.215,0.215 0,0.086 0.086,0.128 0.129,0.214 0.043,0.043 0.086,0.086 0.172,0.086 0.086,0 0.172,0 0.215,0.129 0.086,0.13 0.215,0.216 0.387,0.173 h 0.043 c 0.215,0.129 0.473,0.129 0.731,0.171 h 0.043 c 0.172,0.172 0.387,0.129 0.602,0.258 0.086,0.043 0.215,0 0.344,0.043 0.215,0.087 0.43,-0.043 0.645,-0.043 0,0 0.043,0 0.043,-0.043 0.129,-0.129 0.301,-0.086 0.473,-0.172 0.043,0 0.043,0 0.086,0.043 0.086,0.043 0.129,0 0.172,-0.043 l 0.215,-0.3 0.129,-0.173 c 0.129,-0.086 0.172,-0.3 0.344,-0.386 L 2.494,28.724 C 2.58,28.422 2.795,28.165 2.881,27.863 l 0.086,-0.215 c 0,-0.128 0.043,-0.257 0.129,-0.386 0.043,-0.043 0.043,-0.13 0.043,-0.173 -0.043,-0.129 -0.043,-0.214 0,-0.343 0,-0.043 0,-0.129 -0.043,-0.172 L 2.967,26.401 C 2.838,26.272 2.795,26.144 2.752,25.972 v -0.043 c 0.043,-0.173 -0.086,-0.302 0,-0.473 0.043,0 0,-0.043 0,-0.086 C 2.709,25.327 2.666,25.284 2.623,25.284 2.537,25.198 2.451,25.111 2.537,25.025 V 24.896 C 2.494,24.811 2.494,24.768 2.58,24.725 c 0.043,-0.043 0,-0.086 0,-0.129 0,-0.172 -0.086,-0.302 -0.043,-0.473 0,-0.129 -0.043,-0.258 -0.086,-0.344 C 2.408,23.692 2.365,23.606 2.408,23.521 L 2.537,23.134 V 22.961 C 2.451,22.875 2.494,22.79 2.58,22.704 2.623,22.661 2.623,22.618 2.623,22.532 2.58,22.489 2.58,22.446 2.58,22.403 2.58,22.273 2.494,22.23 2.408,22.187 2.322,22.145 2.279,22.059 2.236,21.973 c 0,-0.086 0,-0.129 -0.043,-0.215 -0.043,-0.043 0,-0.13 0,-0.216 0.086,-0.085 0.086,-0.171 0.043,-0.3 0,-0.259 -0.043,-0.473 -0.129,-0.731 v -0.129 c 0,0 0.043,-0.043 0.043,-0.086 -0.043,-0.129 -0.086,-0.258 0.086,-0.344 0,-0.086 0,-0.172 -0.043,-0.258 -0.043,-0.087 -0.043,-0.13 0,-0.215 0,-0.172 0,-0.344 0.043,-0.473 0,-0.258 -0.086,-0.43 -0.043,-0.645 C 2.107,18.188 2.15,18.017 2.15,17.845 c 0,-0.043 0.043,-0.086 0,-0.129 -0.043,-0.129 0,-0.216 0.086,-0.301 0.086,-0.086 0.086,-0.129 0,-0.172 C 2.15,17.2 2.107,17.157 2.107,17.071 2.064,16.985 1.978,16.942 1.935,16.899 1.978,16.855 2.064,16.855 2.107,16.812 2.15,16.77 2.193,16.727 2.193,16.684 c 0.043,-0.043 0,-0.086 -0.043,-0.129 -0.043,-0.086 -0.086,-0.129 0,-0.172 0.043,-0.043 0,-0.129 -0.043,-0.172 -0.043,-0.043 0,-0.043 0,-0.086 0.086,-0.129 0.086,-0.301 0.086,-0.43 0,-0.172 -0.043,-0.344 -0.086,-0.516 0,-0.129 -0.043,-0.215 0.043,-0.344 0.043,-0.043 0,-0.086 0,-0.129 C 2.107,14.534 2.064,14.362 1.935,14.19 1.892,14.147 1.849,14.061 1.892,14.018 2.021,13.889 1.892,13.76 1.935,13.631 1.892,13.502 1.892,13.287 1.849,13.115 1.806,13.072 1.806,12.986 1.806,12.9 1.806,12.728 1.72,12.599 1.634,12.47 1.548,12.341 1.548,12.212 1.548,12.04 l 0.086,0.129 c 0.043,-0.172 0.043,-0.301 -0.129,-0.387 0.043,-0.086 -0.086,-0.129 0,-0.172 L 1.548,11.438 C 1.505,11.352 1.505,11.309 1.505,11.223 1.462,11.137 1.376,11.223 1.29,11.18 1.333,11.137 1.333,11.051 1.333,11.008 1.376,10.922 1.333,10.922 1.29,10.922 1.247,10.879 1.118,10.707 1.118,10.664 1.075,10.621 1.075,10.621 1.032,10.621 c 0,0 -0.043,0.172 -0.043,0 0,-0.043 -0.043,-0.043 -0.086,-0.043 0,0 -0.043,0 -0.043,-0.043 0.043,-0.086 0.043,-0.043 0.086,-0.043 0.086,0 0.129,0 0.215,-0.043 0.043,-0.043 0.086,-0.086 0.086,-0.172 0.086,0.043 0.086,0.129 0.172,0.129 0,-0.258 -0.086,-0.516 -0.215,-0.731 -0.043,0 -0.086,0 -0.086,-0.043 C 1.032,9.589 1.032,9.503 1.032,9.374 1.118,9.46 1.161,9.589 1.204,9.675 c 0.043,0 0.043,-0.043 0.043,-0.086 -0.086,-0.172 -0.086,-0.344 0,-0.473 0.043,-0.043 0,-0.043 0,-0.086 0,-0.086 -0.043,-0.215 0,-0.344 L 1.118,8.428 C 1.075,8.385 1.075,8.385 1.075,8.342 c 0.043,-0.129 0,-0.301 0.043,-0.43 0,-0.129 0,-0.301 -0.043,-0.43 C 0.989,7.224 1.032,6.966 1.032,6.708 V 6.149 c 0,-0.086 0,-0.129 -0.043,-0.172 C 0.817,5.934 0.903,5.805 0.903,5.676 c 0.043,0.043 0.043,0.086 0.086,0.086 0,0.043 0,0.086 0.086,0.086 C 1.118,5.805 1.118,5.762 1.118,5.719 1.075,5.504 1.032,5.289 0.946,5.074 V 4.945 C 0.946,4.816 0.903,4.773 0.774,4.73 0.731,4.73 0.688,4.687 0.731,4.644 0.774,4.558 0.688,4.429 0.774,4.343 V 4.214 c 0.086,0 0.086,0 0.043,-0.086 L 0.731,3.999 C 0.688,3.956 0.688,3.956 0.688,3.913 c 0.043,-0.043 0.043,-0.043 0.086,0 0,0 0.043,0.043 0.043,0.086 C 0.86,3.784 0.817,3.655 0.731,3.526 0.645,3.354 0.645,3.354 0.43,3.311 0.645,3.268 0.645,3.096 0.731,2.967 c 0.043,0.086 0.043,0.172 0.086,0.215 0,0.043 0,0.043 0.043,0.043 L 0.903,3.182 C 0.86,3.053 0.903,2.924 0.817,2.838 0.774,2.752 0.774,2.666 0.731,2.623 c 0,-0.043 -0.043,-0.086 0,-0.129 0.043,0 0.086,0.043 0.129,-0.043 0,-0.043 -0.086,-0.043 -0.086,-0.086 0,-0.129 0,-0.215 -0.086,-0.301 -0.043,-0.043 -0.043,-0.129 0,-0.172 0.043,-0.043 0,-0.086 0,-0.129 C 0.559,1.634 0.559,1.462 0.602,1.333 0.602,1.161 0.645,1.032 0.516,0.903 0.43,0.817 0.43,0.774 0.473,0.688 0.473,0.559 0.473,0.473 0.43,0.344 0.387,0.258 0.387,0.172 0.387,0.086 0.387,0 0.344,-0.086 0.215,-0.129 L 0.129,-0.215 c -0.086,-0.086 -0.086,-0.086 -0.172,0 -0.043,0.043 -0.086,0 -0.086,0 -0.043,-0.086 0,-0.172 -0.086,-0.215 -0.086,-0.043 -0.129,0.043 -0.215,0.043" /></g><g
           transform="translate(40.3145,23.6792)"
           id="g24"><path
             id="path26"
             style="fill:#231f20;fill-opacity:1;fill-rule:nonzero;stroke:none"
             d="m 0,0 c 0,0.043 0.043,0.086 0.043,0.129 -0.086,0.043 -0.129,0 -0.172,-0.043 V 0 c 0.043,-0.043 0.043,-0.043 0.086,-0.043 C 0,-0.043 0,0 0,0 m -0.172,-0.43 c 0.043,0.086 0,0.215 -0.086,0.258 -0.086,0 -0.129,-0.043 -0.129,-0.086 0.043,-0.086 0.043,-0.172 0,-0.301 0,0 0,-0.043 0.043,-0.043 0,-0.043 0.086,-0.043 0.086,-0.043 z m -1.763,-4.128 c 0,0.043 0,0.086 -0.043,0.086 -0.043,0 -0.086,-0.043 -0.129,-0.043 -0.043,-0.129 -0.129,-0.258 -0.129,-0.43 0,-0.043 -0.086,-0.086 -0.043,-0.172 0.301,0.129 0.387,0.301 0.344,0.559 m -0.903,-3.483 c 0,0.043 0,0.086 0.086,0.129 0.086,0.086 0.086,0.172 -0.043,0.258 -0.043,0.043 -0.043,0.043 -0.086,0.043 0,0 -0.043,-0.043 -0.086,-0.043 -0.086,-0.043 -0.129,-0.086 -0.129,-0.215 0,-0.172 0.043,-0.301 0.172,-0.43 0.086,0.086 0.086,0.172 0.086,0.258 m -0.516,-2.795 c -0.086,0.043 -0.129,0.258 -0.086,0.344 v 0.129 0.172 c 0.043,0.086 0.086,0.129 0.086,0.215 0.172,-0.043 0.215,0.172 0.344,0.215 0.043,-0.043 0.043,-0.086 0.043,-0.086 0.043,-0.086 0.043,-0.172 -0.043,-0.258 -0.086,-0.086 -0.129,-0.172 -0.043,-0.258 0.086,-0.129 0,-0.215 -0.043,-0.301 0,-0.086 -0.129,-0.129 -0.172,-0.215 -0.043,0 -0.086,0 -0.086,0.043 M -3.999,-8.6 v 0.043 c 0,0.086 0,0.129 -0.086,0.129 0,0.043 0,0 -0.043,0 0,-0.043 0,-0.129 0.043,-0.172 z m -0.086,-2.451 c 0.129,0.043 0.172,0.043 0.129,0.172 -0.043,0.086 0,0.129 0,0.172 0.043,0.043 0,0.086 0,0.129 -0.086,0.043 -0.215,0.043 -0.258,-0.086 0,-0.086 -0.043,-0.129 -0.043,-0.215 0,-0.043 0,-0.086 0.043,-0.129 0.043,0 0.043,-0.043 0.086,-0.086 z m -0.215,-1.29 c 0.043,0.086 0.129,0.172 0.215,0.215 0.043,0 0.043,-0.043 0.043,-0.086 0,-0.086 -0.086,-0.172 -0.215,-0.172 -0.043,0 -0.043,0 -0.043,0.043 m -0.043,2.107 c 0,0.043 0,0.043 -0.043,0.086 h -0.043 -0.129 c -0.043,0 -0.043,-0.043 -0.043,-0.086 0,-0.043 0.043,-0.086 0.086,-0.086 0.043,0 0.129,0.043 0.172,0.086 m -0.344,-0.043 c -0.043,0.043 -0.086,0.043 -0.172,0 0.043,-0.043 0.086,-0.086 0.172,-0.043 z m 0.215,17.673 c 0,0.085 0.086,0.128 0.086,0.215 0,0.043 0,0.043 -0.043,0.043 L -4.988,7.611 c 0,0 0,-0.044 -0.043,-0.044 0.172,0 0.344,-0.043 0.43,-0.171 0.043,-0.043 0.129,-0.043 0.129,0 m -0.602,-24.037 c -0.086,-0.043 -0.129,-0.129 -0.086,-0.215 0.086,0.086 0.129,0.129 0.086,0.215 M -7.267,7.396 c 0,0 -0.043,0.042 -0.043,0.085 -0.043,0.043 -0.086,0.043 -0.129,0 -0.043,-0.085 0,-0.171 0.043,-0.171 0.043,-0.043 0.086,-0.043 0.129,-0.043 0.043,0.043 0,0.086 0,0.129 m -0.688,0.128 c -0.043,0.13 -0.043,0.13 -0.171,0.087 -0.044,-0.044 -0.087,-0.044 -0.173,-0.087 -0.043,0 -0.043,-0.043 0,-0.086 0,0 0,-0.042 0.043,-0.085 0.13,0 0.258,-0.086 0.387,-0.043 0.043,0.086 -0.043,0.128 -0.086,0.214 M -9.632,7.481 c -0.043,0.086 0,0.086 0.043,0.086 0.043,0 0.13,-0.086 0.172,0 L -9.546,7.783 C -9.589,7.826 -9.632,7.826 -9.675,7.74 -9.718,7.697 -9.718,7.697 -9.761,7.697 c -0.086,0 -0.129,-0.043 -0.172,-0.13 l 0.215,-0.129 c 0.043,0 0.086,0.043 0.086,0.043 m 3.569,-25.842 c 0,0.043 -0.043,0.086 -0.043,0.129 -0.043,0 -0.086,0.043 -0.129,0 -0.129,-0.043 -0.258,0 -0.387,-0.086 -0.043,0 -0.086,0 -0.128,-0.043 -0.087,-0.172 -0.13,-0.172 -0.259,-0.129 -0.129,0.043 -0.301,0 -0.473,0.086 0,0 -0.043,0 -0.043,-0.043 -0.129,-0.086 -0.258,0 -0.387,0 -0.086,0 -0.171,0.086 -0.258,0.086 -0.043,0 -0.043,0.043 -0.043,0.086 0.043,0.086 0.13,0.129 0.13,0.215 0,0.043 0,0.086 -0.043,0.086 -0.173,-0.043 -0.216,-0.043 -0.302,0.086 h -0.086 c -0.129,-0.043 -0.257,-0.043 -0.387,0 -0.043,0.043 -0.129,0 -0.172,0 -0.043,-0.043 -0.129,-0.043 -0.129,0.043 l -0.3,0.516 c 0,0.086 -0.044,0.129 -0.044,0.215 0,0.043 0,0.086 -0.043,0.129 -0.043,0.043 -0.086,0.086 -0.129,0.043 -0.043,-0.086 -0.086,-0.043 -0.129,0 -0.086,0.172 -0.215,0.301 -0.3,0.43 -0.087,0.172 -0.087,0.344 -0.216,0.473 v 0.043 c 0.043,0.215 0,0.387 -0.043,0.559 -0.086,0.301 -0.043,0.602 -0.086,0.903 -0.043,0.129 -0.043,0.301 -0.086,0.43 0,0.129 0,0.258 0.043,0.387 0,0.129 0,0.258 0.043,0.387 v 0.172 c -0.043,0.129 -0.086,0.301 -0.043,0.43 0,0.086 0.043,0.172 0,0.301 v 0.129 c 0.043,0.172 0,0.344 0.129,0.516 v 0.215 c 0,0.129 0,0.258 0.043,0.387 0.043,0.043 0,0.086 0,0.129 v 0.301 c 0,0.086 0,0.086 0.043,0.129 0.043,0.129 0.129,0.258 0.129,0.43 0,0.043 0.044,0.086 0.087,0.172 0,0.043 0.042,0.129 -0.043,0.172 -0.044,0 -0.044,0.043 0,0.086 l 0.128,0.258 c 0.043,0.043 0,0.043 -0.043,0.086 -0.042,0.086 -0.085,0.172 -0.042,0.258 0,0.129 0.085,0.215 0.085,0.344 v 0.086 c -0.085,0.172 0,0.301 0.043,0.43 0.086,0.301 0.172,0.602 0.301,0.903 0.043,0.172 0.129,0.344 0.173,0.516 0.043,0.129 0.085,0.258 0.085,0.387 0,0.129 0.043,0.215 0.129,0.301 0.129,0.129 0.172,0.258 0.172,0.43 0,0.129 0.043,0.258 0.086,0.387 0.043,0.086 0.086,0.172 0.086,0.301 v 0.043 c 0.129,0.129 0.173,0.344 0.215,0.559 0.086,0.215 0.172,0.43 0.215,0.645 0,0.043 0.043,0.086 0.043,0.129 0.043,0.086 0.129,0.215 0.129,0.301 0,0.043 0.043,0.086 0.043,0.086 0.129,0.129 0.173,0.258 0.129,0.43 0,0.043 0,0.129 0.087,0.172 0.085,0.086 0.128,0.215 0.171,0.301 0,0.086 0,0.129 0.086,0.129 0.129,0.043 0.172,0.172 0.215,0.301 0.043,0.043 0,0.129 0.043,0.215 0,0 -0.043,0.043 -0.086,0 -0.043,0 -0.043,0.043 -0.043,0.043 0,0.043 0.043,0.086 0.086,0.086 0.086,0.043 0.172,0.086 0.215,0.172 l 0.172,0.301 c 0.043,0.172 0.129,0.258 0.172,0.387 0.129,0.215 0.258,0.387 0.302,0.559 0,0.043 0.042,0.086 0.042,0.086 0.086,0.172 0.172,0.258 0.215,0.43 0.086,0.129 0.215,0.258 0.258,0.386 0.086,0.13 0.172,0.259 0.215,0.431 0.043,0 0.043,0.043 0.043,0.043 0.301,0.301 0.43,0.688 0.688,0.989 0,0.043 0,0.043 0.043,0.086 0.258,0.258 0.43,0.602 0.731,0.86 0.215,0.258 0.344,0.516 0.602,0.731 0.129,0.129 0.258,0.301 0.387,0.473 l 0.129,0.086 c 0.086,0.086 0.215,0.215 0.258,0.386 0,0.043 0.043,0.087 0.129,0.13 0.086,0 0.129,0.129 0.172,0.215 0.086,0.215 0.258,0.387 0.43,0.559 0.172,0.172 0.301,0.386 0.43,0.559 l 0.301,0.344 c 0.043,0.043 0.086,0.086 0.086,0.129 0.086,0.172 0.215,0.258 0.344,0.387 0.129,0.086 0.258,0.172 0.344,0.301 0.043,0.128 0.172,0.215 0.301,0.301 0.086,0 0.129,0.043 0.129,0.172 0,0.043 0.043,0.129 0.129,0.129 0.086,0 0.129,0.043 0.129,0.085 0.043,0.086 0.129,0.129 0.172,0.216 0.129,0.043 0.172,0.129 0.172,0.301 0.043,0.171 0.172,0.3 0.344,0.343 0.043,0 0.086,0.044 0.043,0.087 0,0.043 0,0.043 0.043,0.086 0.172,0.086 0.215,0.258 0.301,0.386 0,0.043 0,0.086 -0.043,0.13 -0.043,0 -0.086,0 -0.086,-0.044 C 0.731,9.502 0.688,9.459 0.602,9.459 0.473,9.374 0.301,9.331 0.129,9.245 -0.043,9.331 -0.086,9.159 -0.215,9.116 c 0.043,0 0.129,-0.043 0.043,-0.086 0,-0.043 -0.043,-0.043 -0.086,-0.043 C -0.387,8.987 -0.473,8.9 -0.602,8.814 -0.645,8.771 -0.731,8.771 -0.774,8.729 H -0.86 c -0.129,0.128 -0.172,0 -0.215,-0.086 C -1.161,8.514 -1.29,8.428 -1.376,8.256 -1.419,8.212 -1.505,8.212 -1.548,8.169 -1.634,8.169 -1.72,8.126 -1.806,8.083 -1.892,7.998 -1.978,7.955 -2.107,7.955 L -2.58,7.826 c -0.086,-0.043 -0.172,-0.043 -0.215,0 -0.086,0 -0.172,0.043 -0.301,0.043 -0.043,0 -0.086,0 -0.172,-0.043 C -3.311,7.74 -3.44,7.783 -3.526,7.74 h -0.043 c -0.043,0 -0.043,0.086 -0.086,0.043 -0.043,0 -0.043,-0.086 -0.086,-0.129 -0.043,0 -0.043,-0.043 -0.086,-0.043 -0.086,0.043 -0.129,0 -0.215,-0.044 0.043,-0.086 0.172,-0.043 0.215,-0.171 0,-0.086 -0.086,-0.129 -0.086,-0.215 L -3.956,7.138 c 0,-0.043 0.043,-0.129 -0.043,-0.172 H -4.171 -4.257 C -4.429,6.88 -4.601,6.88 -4.816,6.923 c -0.043,0 -0.086,0.043 -0.086,0.043 -0.043,0 -0.086,0.043 -0.129,0.043 -0.129,0 -0.129,0 -0.172,-0.129 0,-0.044 -0.043,-0.087 -0.043,-0.087 0,-0.043 -0.043,-0.085 -0.086,-0.085 -0.086,0.042 -0.129,0 -0.215,0.085 0,0 -0.043,0.043 -0.043,0 -0.086,-0.043 -0.129,-0.043 -0.215,0 l -0.215,0.13 c -0.129,0.129 -0.215,0.129 -0.387,0 H -6.45 c -0.129,0 -0.215,-0.087 -0.344,-0.13 -0.129,-0.085 -0.258,0 -0.387,-0.043 0,0 -0.043,0 -0.043,0.043 -0.043,0.043 -0.043,0.087 -0.129,0.087 -0.086,0 -0.172,0 -0.258,-0.044 -0.086,-0.086 -0.301,-0.086 -0.387,0 -0.085,0.087 -0.085,0.13 0,0.259 -0.085,0.043 -0.172,0 -0.215,-0.043 -0.043,-0.043 -0.086,-0.086 -0.172,-0.086 -0.043,0.043 -0.086,0.086 -0.086,0.129 -0.043,0.172 -0.086,0.172 -0.258,0.129 -0.042,-0.043 -0.086,-0.043 -0.086,0 -0.043,0.043 -0.086,0.043 -0.086,0 0,-0.043 -0.043,-0.043 0,-0.086 0,-0.043 0.043,-0.086 0.086,-0.086 h 0.129 c 0.043,0 0.086,-0.043 0.086,-0.086 0,-0.043 -0.043,-0.086 -0.086,-0.086 0,-0.044 -0.043,-0.087 -0.085,-0.044 -0.087,0 -0.087,0 -0.087,-0.043 -0.086,-0.085 -0.172,-0.085 -0.258,0 l -0.129,0.173 c -0.086,0.043 -0.043,0.129 0.043,0.172 0,0 0.043,0 0.043,0.043 -0.086,0.086 -0.172,0.129 -0.215,0.257 0,0 0,0.043 -0.043,0 -0.042,0 -0.042,-0.042 -0.042,-0.042 V 7.224 c 0,-0.086 -0.043,-0.172 -0.087,-0.172 -0.129,-0.043 -0.258,-0.129 -0.387,-0.086 -0.171,0.086 -0.301,0.129 -0.43,0.215 -0.258,0.172 -0.429,0.343 -0.515,0.602 l -0.13,0.215 c -0.086,0.043 -0.129,0.085 -0.129,0.171 0,0.043 -0.043,0.043 -0.086,0.087 -0.172,0.129 -0.215,0.344 -0.3,0.558 -0.044,0.129 -0.044,0.259 -0.173,0.388 v 0.043 c -0.043,0.257 -0.086,0.516 -0.129,0.774 0,0.214 0.129,0.473 0.043,0.688 -0.043,0.043 0,0.085 0.043,0.128 0.086,0.043 0.129,0.173 0.086,0.302 0,0.043 0,0.086 0.043,0.172 0.043,0 0.087,0.043 0.13,0.129 0.042,0.042 0.042,0.085 0.042,0.171 -0.085,0.173 -0.042,0.345 -0.042,0.516 0.042,0.129 0.128,0.259 0.214,0.345 h 0.043 c 0.043,0.086 0.086,0.129 0.129,0.215 -0.043,0.086 0.129,0.086 0.129,0.171 l 0.258,0.129 c 0.215,0.043 0.344,0 0.516,-0.043 l 0.087,-0.086 c 0.085,-0.085 0.171,-0.171 0.3,-0.128 0.043,0.043 0.043,0 0.086,0 0.129,-0.086 0.216,-0.129 0.344,-0.129 0.258,-0.086 0.344,-0.043 0.344,-0.388 0,-0.171 0.043,-0.343 0.172,-0.472 0.172,-0.216 0.344,-0.344 0.516,-0.559 0.043,-0.043 0.129,-0.086 0.216,-0.129 0.171,0 0.343,-0.043 0.515,-0.13 h 0.172 c 0.172,0 0.301,-0.086 0.473,-0.086 h 0.086 c -0.043,-0.171 0.043,-0.085 0.13,-0.085 0.085,0 0.171,-0.043 0.257,0 0.086,0.042 0.172,0.042 0.215,0.085 0.086,0.043 0.172,0.043 0.258,0 0.043,-0.043 0.129,-0.085 0.172,-0.043 0.043,0.043 0.172,-0.042 0.215,-0.085 0,-0.043 0.043,-0.043 0.086,-0.043 0.086,-0.043 0.172,0.043 0.258,-0.043 0.086,-0.086 0.215,-0.086 0.301,-0.086 0.086,-0.043 0.172,-0.086 0.258,-0.043 0.086,0 0.086,-0.043 0.129,-0.086 0,0.043 0.043,0.086 0.086,0.086 0,0 0.043,0 0.086,-0.043 0,-0.043 0.043,-0.043 0.086,0 0,0 0.043,0.043 0.086,0.043 0.043,0.043 0.086,0.043 0.129,0 0.172,-0.129 0.387,-0.173 0.602,-0.216 h 0.043 c 0.129,0.13 0.301,0.087 0.473,0.13 0.172,0.086 0.344,0.086 0.516,0.172 0.258,-0.043 0.473,0.172 0.731,0.172 0,0 0,0.042 0.043,0.042 0.172,-0.042 0.301,0 0.473,0.043 0.129,0.043 0.301,0.086 0.473,0.086 0.129,0.043 0.215,0.043 0.344,0 h 0.215 c 0.043,0 0.086,0 0.129,0.043 0.129,0.087 0.215,0.13 0.344,0.173 0.344,0.043 0.645,0.086 0.903,0.258 0.086,0.043 0.215,0.128 0.344,0.128 0.043,-0.043 0.086,0 0.129,0.043 0.172,0.086 0.387,0.173 0.602,0.216 0.043,0 0.129,0 0.172,0.043 0.043,0.043 0.086,0.086 0.172,0.086 0.086,0 0.129,0.043 0.172,0.129 0.086,0.214 0.301,0.3 0.516,0.214 0.043,-0.043 0.086,-0.043 0.129,0 0.129,0.043 0.215,0 0.301,0 0.172,-0.043 0.258,-0.171 0.43,-0.214 0,-0.043 0.043,-0.086 0.043,-0.086 C 4.3,11.868 4.3,11.695 4.429,11.609 4.515,11.523 4.601,11.395 4.644,11.266 4.687,11.137 4.73,11.008 4.73,10.878 V 10.792 C 4.816,10.664 4.816,10.578 4.816,10.449 V 10.363 C 4.687,10.276 4.73,10.104 4.73,9.976 c 0,-0.129 0,-0.258 -0.043,-0.344 -0.043,-0.087 0.043,-0.087 0,-0.173 0,-0.042 -0.043,-0.085 0,-0.128 V 9.159 C 4.73,9.116 4.73,9.073 4.687,8.987 4.644,8.943 4.644,8.814 4.644,8.729 V 8.428 C 4.644,8.299 4.687,8.169 4.558,8.083 4.601,7.912 4.386,7.826 4.429,7.611 4.3,7.524 4.343,7.31 4.171,7.181 4.128,7.138 4.128,7.095 4.171,7.009 4.214,6.923 4.257,6.836 4.214,6.708 4.171,6.536 4.214,6.321 4.257,6.148 4.3,6.02 4.343,5.891 4.257,5.762 4.214,5.762 4.214,5.762 4.214,5.719 4.214,5.504 4.042,5.417 3.913,5.375 3.784,5.332 3.655,5.246 3.569,5.16 3.44,5.074 3.311,4.902 3.311,4.729 c 0,-0.128 0,-0.257 -0.129,-0.3 C 3.053,4.3 3.01,4.171 3.01,4.042 3.01,3.87 2.924,3.784 2.838,3.698 L 2.537,3.439 C 2.494,3.439 2.494,3.396 2.451,3.396 2.322,3.396 2.322,3.354 2.279,3.268 2.236,3.182 2.15,3.139 2.236,3.053 V 2.967 C 2.15,2.881 2.15,2.795 2.15,2.708 2.15,2.666 2.107,2.666 2.107,2.623 2.021,2.494 1.935,2.365 1.806,2.279 1.72,2.193 1.634,2.063 1.591,1.935 1.591,1.849 1.505,1.806 1.462,1.806 1.333,1.763 1.247,1.763 1.204,1.677 1.161,1.677 1.118,1.72 1.118,1.72 1.075,1.806 1.075,1.849 0.989,1.763 c 0,-0.043 -0.086,-0.043 -0.129,0 -0.043,0 -0.086,0 -0.129,0.043 C 0.645,1.677 0.731,1.591 0.645,1.462 0.645,1.419 0.731,1.419 0.774,1.419 0.903,1.376 0.903,1.376 0.946,1.29 0.946,1.247 0.946,1.204 0.903,1.161 0.86,1.118 0.817,1.032 0.731,0.989 c 0,0 0,-0.043 -0.043,-0.086 0,-0.086 0,-0.216 -0.043,-0.301 C 0.688,0.516 0.602,0.473 0.602,0.387 0.559,0.301 0.559,0.215 0.473,0.172 0.43,0.129 0.43,0.086 0.43,0.043 0.43,0 0.387,-0.086 0.344,-0.086 0.215,-0.172 0.258,-0.301 0.258,-0.387 l 0.086,-0.129 c 0,-0.086 0,-0.172 -0.043,-0.258 -0.043,-0.129 -0.086,-0.258 -0.215,-0.387 0,0 -0.043,-0.086 -0.043,-0.129 0,-0.043 -0.043,-0.086 -0.086,-0.129 -0.086,-0.043 -0.086,-0.086 -0.086,-0.172 v -0.172 c 0,-0.086 0.086,-0.172 0,-0.258 -0.043,-0.086 -0.086,-0.129 -0.086,-0.215 l -0.043,-0.043 c -0.086,-0.215 -0.172,-0.387 -0.344,-0.516 0.086,-0.086 0.086,-0.172 0.086,-0.258 0,-0.129 -0.043,-0.258 0.043,-0.344 0,-0.043 0,-0.086 -0.043,-0.129 -0.129,-0.086 -0.301,-0.172 -0.43,-0.301 -0.043,0 -0.043,0 -0.086,0.043 -0.172,0.086 -0.215,0.258 -0.129,0.43 0.043,0.043 0.086,0.129 0.043,0.215 -0.043,0.086 0.043,0.215 0.043,0.301 0.258,0.043 0.258,0.043 0.387,0.301 0.043,0.043 0.086,0.129 0,0.172 -0.086,0.172 -0.043,0.301 -0.043,0.43 0.043,0.086 0.043,0.129 0,0.129 -0.043,0.043 -0.086,0.043 -0.129,0 -0.043,0 -0.043,-0.043 -0.043,-0.129 0,0 0.043,-0.043 0.043,-0.086 0,-0.086 -0.086,-0.129 -0.172,-0.086 -0.043,0 -0.129,0.043 -0.215,0.043 -0.043,-0.043 -0.043,-0.172 -0.172,-0.172 v -0.086 c 0.043,-0.043 0.043,-0.129 0.043,-0.215 0,-0.129 0,-0.129 0.172,-0.172 l 0.043,-0.043 c 0,0 0.043,-0.043 0,-0.043 -0.086,-0.043 -0.086,-0.129 -0.129,-0.215 -0.043,-0.086 -0.043,-0.129 -0.129,-0.086 -0.086,0 -0.129,0.043 -0.215,0 -0.043,-0.043 -0.129,-0.043 -0.129,-0.129 0.043,-0.043 0.043,-0.129 0.129,-0.129 l 0.129,-0.086 c 0.043,-0.086 0.043,-0.129 -0.043,-0.215 0,-0.043 -0.043,-0.043 -0.043,-0.086 0.043,-0.172 -0.086,-0.301 -0.129,-0.43 0,-0.043 0,-0.086 0.043,-0.129 0.043,0 0.043,0 0.086,0.043 0.043,0 0.086,0.043 0.129,0.043 v 0.043 c -0.086,0.172 -0.086,0.215 0.043,0.301 0.172,0.129 0.215,0.086 0.301,-0.086 0,-0.043 0.043,-0.086 0.043,-0.086 0.086,-0.172 0.043,-0.344 -0.129,-0.473 -0.043,-0.043 -0.086,-0.086 -0.086,-0.129 -0.086,-0.086 -0.129,-0.215 -0.215,-0.301 -0.086,-0.086 -0.129,-0.215 -0.086,-0.344 0.086,-0.129 0.043,-0.215 -0.043,-0.344 -0.043,-0.043 -0.086,-0.129 -0.043,-0.215 0.043,-0.129 0,-0.258 -0.043,-0.344 -0.043,-0.129 -0.129,-0.172 -0.258,-0.172 -0.043,-0.043 -0.043,-0.086 -0.086,-0.086 -0.086,-0.129 -0.172,-0.172 -0.301,-0.129 -0.086,0.043 -0.129,0 -0.172,0 0,0.172 0,0.344 0.086,0.516 0.086,0.086 0,0.172 -0.086,0.215 -0.129,0 -0.215,-0.043 -0.301,-0.172 -0.043,-0.086 -0.129,-0.215 -0.043,-0.344 0,-0.043 0,-0.086 -0.043,-0.086 -0.086,-0.129 -0.129,-0.172 0,-0.301 0.086,-0.129 0,-0.258 -0.043,-0.344 0,-0.043 -0.043,-0.043 -0.043,-0.043 -0.129,0 -0.129,-0.043 -0.129,-0.129 0,-0.086 0.086,-0.129 0.086,-0.215 0.043,-0.043 0.043,-0.086 0.086,-0.043 0.043,0.043 0,0.043 0,0.086 -0.043,0.043 0,0.215 0.086,0.215 0.086,0.043 0.172,0.129 0.215,0.215 0.086,0.043 0.129,0 0.172,-0.043 0.043,-0.043 0.129,-0.086 0.043,-0.215 -0.043,-0.086 -0.043,-0.172 0.043,-0.258 0.172,-0.086 0.086,-0.215 0.086,-0.344 0,-0.043 -0.043,-0.129 -0.086,-0.172 0,-0.043 0,-0.043 -0.043,-0.043 -0.258,0 -0.043,-0.215 -0.129,-0.301 0.043,-0.086 0,-0.172 0.043,-0.258 0.086,-0.129 0,-0.258 -0.086,-0.387 -0.043,-0.043 -0.086,-0.086 -0.086,-0.129 -0.043,-0.043 -0.043,-0.129 0,-0.129 0.043,-0.086 0.043,-0.129 0,-0.215 -0.043,-0.129 -0.043,-0.172 -0.215,-0.215 0,0.086 -0.043,0.129 -0.086,0.172 -0.172,0.172 -0.301,0.344 -0.172,0.559 0,0.086 0.043,0.129 0.043,0.215 0,0.086 0,0.172 -0.043,0.215 -0.043,0.086 -0.043,0.129 0,0.215 0,0 0,0.043 -0.043,0.043 l -0.043,-0.043 c -0.043,-0.043 0,-0.129 -0.086,-0.172 -0.086,0 -0.129,-0.086 -0.172,-0.086 -0.129,-0.129 -0.172,-0.301 -0.172,-0.473 0,-0.043 0,-0.129 -0.043,-0.215 -0.043,-0.043 -0.086,-0.086 -0.086,-0.129 0,-0.086 0,-0.129 0.043,-0.172 0.086,-0.043 0.215,-0.086 0.258,-0.215 0.043,-0.129 0.043,-0.215 -0.043,-0.301 -0.086,-0.086 -0.129,-0.215 -0.129,-0.301 0,-0.086 -0.086,-0.172 -0.129,-0.215 -0.043,-0.129 -0.043,-0.215 0.086,-0.258 0.043,-0.043 0.086,-0.086 0.086,-0.172 l 0.043,-0.301 c 0,-0.086 0,-0.129 -0.086,-0.172 -0.086,-0.086 -0.215,-0.129 -0.215,-0.258 -0.043,-0.086 -0.129,-0.086 -0.172,0 v 0.043 c -0.043,0.086 -0.086,0.086 -0.129,0.043 -0.043,-0.129 -0.129,-0.172 -0.258,-0.215 -0.086,-0.043 -0.086,-0.129 0,-0.172 0.086,-0.043 0.043,-0.086 0.043,-0.172 0,-0.043 -0.086,-0.086 0,-0.172 0,0 0,-0.043 -0.043,-0.043 -0.086,-0.086 -0.043,-0.215 -0.043,-0.344 0,-0.043 0,-0.086 -0.043,-0.129 0,-0.043 -0.043,-0.086 -0.086,-0.043 -0.086,0 -0.086,0.043 -0.086,0.086 v 0.043 c -0.129,0 -0.129,-0.086 -0.172,-0.172 -0.043,-0.086 0,-0.172 0,-0.258 0,-0.043 0.043,-0.043 0.043,-0.043 0.043,0 0.043,0 0.086,0.043 0.086,0.043 0.172,0 0.215,-0.043 0.086,-0.086 0.043,-0.129 0,-0.215 -0.043,-0.043 -0.086,-0.129 -0.129,-0.215 -0.086,-0.129 -0.129,-0.129 -0.301,-0.129 0,-0.086 0.043,-0.129 0.086,-0.172 0.043,-0.086 0.086,-0.129 0,-0.172 -0.086,-0.129 -0.086,-0.258 -0.129,-0.387 0,-0.129 0,-0.215 -0.086,-0.344 -0.043,-0.043 0.043,-0.129 0.043,-0.172 0.129,0.086 0.129,0.086 0.172,-0.043 l 0.129,-0.215 c 0,-0.172 0.043,-0.344 -0.129,-0.473 -0.129,-0.129 -0.129,-0.387 -0.043,-0.516 0.086,-0.086 0.086,-0.215 0.129,-0.344 0,-0.043 -0.043,-0.129 -0.129,-0.129 -0.043,-0.043 -0.043,-0.043 -0.043,-0.086 0.086,-0.172 -0.043,-0.258 -0.129,-0.344 -0.129,-0.086 -0.172,-0.215 -0.258,-0.301 -0.043,-0.086 0,-0.172 -0.043,-0.301 0,-0.129 -0.043,-0.215 -0.043,-0.387 0,-0.129 -0.258,-0.344 -0.387,-0.301 -0.129,0.043 -0.172,0.129 -0.215,0.215" /></g><g
           transform="translate(93.4814,23.6792)"
           id="g28"><path
             id="path30"
             style="fill:#231f20;fill-opacity:1;fill-rule:nonzero;stroke:none"
             d="m 0,0 c 0,0.043 0.043,0.086 0.043,0.129 -0.086,0.043 -0.129,0 -0.172,-0.043 V 0 c 0.043,-0.043 0.043,-0.043 0.086,-0.043 C 0,-0.043 0,0 0,0 m -0.172,-0.43 c 0.043,0.086 0,0.215 -0.086,0.258 -0.086,0 -0.129,-0.043 -0.129,-0.086 0.043,-0.086 0.043,-0.172 0,-0.301 0,0 0,-0.043 0.043,-0.043 0,-0.043 0.086,-0.043 0.086,-0.043 z m -1.763,-4.128 c 0,0.043 0,0.086 -0.043,0.086 -0.043,0 -0.086,-0.043 -0.129,-0.043 -0.043,-0.129 -0.129,-0.258 -0.129,-0.43 0,-0.043 -0.086,-0.086 -0.043,-0.172 0.301,0.129 0.387,0.301 0.344,0.559 m -0.903,-3.483 c 0,0.043 0,0.086 0.086,0.129 0.086,0.086 0.086,0.172 -0.043,0.258 -0.043,0.043 -0.043,0.043 -0.086,0.043 0,0 -0.043,-0.043 -0.086,-0.043 -0.086,-0.043 -0.129,-0.086 -0.129,-0.215 0,-0.172 0.043,-0.301 0.172,-0.43 0.086,0.086 0.086,0.172 0.086,0.258 m -0.516,-2.795 c -0.086,0.043 -0.129,0.258 -0.086,0.344 v 0.129 0.172 c 0.043,0.086 0.086,0.129 0.086,0.215 0.172,-0.043 0.215,0.172 0.344,0.215 0.043,-0.043 0.043,-0.086 0.043,-0.086 0.043,-0.086 0.043,-0.172 -0.043,-0.258 -0.086,-0.086 -0.129,-0.172 -0.043,-0.258 0.086,-0.129 0,-0.215 -0.043,-0.301 0,-0.086 -0.129,-0.129 -0.172,-0.215 -0.043,0 -0.086,0 -0.086,0.043 M -3.999,-8.6 v 0.043 c 0,0.086 0,0.129 -0.086,0.129 0,0.043 0,0 -0.043,0 0,-0.043 0,-0.129 0.043,-0.172 z m -0.086,-2.451 c 0.129,0.043 0.172,0.043 0.129,0.172 -0.043,0.086 0,0.129 0,0.172 0.043,0.043 0,0.086 0,0.129 -0.086,0.043 -0.215,0.043 -0.258,-0.086 0,-0.086 -0.043,-0.129 -0.043,-0.215 0,-0.043 0,-0.086 0.043,-0.129 0.043,0 0.043,-0.043 0.086,-0.086 z m -0.215,-1.29 c 0.043,0.086 0.129,0.172 0.215,0.215 0.043,0 0.043,-0.043 0.043,-0.086 0,-0.086 -0.086,-0.172 -0.215,-0.172 -0.043,0 -0.043,0 -0.043,0.043 m -0.043,2.107 c 0,0.043 0,0.043 -0.043,0.086 h -0.043 -0.129 c -0.043,0 -0.043,-0.043 -0.043,-0.086 0,-0.043 0.043,-0.086 0.086,-0.086 0.043,0 0.129,0.043 0.172,0.086 m -0.344,-0.043 c -0.043,0.043 -0.086,0.043 -0.172,0 0.043,-0.043 0.086,-0.086 0.172,-0.043 z m 0.215,17.673 c 0,0.085 0.086,0.128 0.086,0.215 0,0.043 0,0.043 -0.043,0.043 L -4.988,7.611 c 0,0 0,-0.044 -0.043,-0.044 0.172,0 0.344,-0.043 0.43,-0.171 0.043,-0.043 0.129,-0.043 0.129,0 m -0.602,-24.037 c -0.086,-0.043 -0.129,-0.129 -0.086,-0.215 0.086,0.086 0.129,0.129 0.086,0.215 M -7.267,7.396 c 0,0 -0.043,0.042 -0.043,0.085 -0.043,0.043 -0.086,0.043 -0.129,0 -0.043,-0.085 0,-0.171 0.043,-0.171 0.043,-0.043 0.086,-0.043 0.129,-0.043 0.043,0.043 0,0.086 0,0.129 m -0.688,0.128 c -0.043,0.13 -0.043,0.13 -0.171,0.087 -0.044,-0.044 -0.087,-0.044 -0.173,-0.087 -0.043,0 -0.043,-0.043 0,-0.086 0,0 0,-0.042 0.043,-0.085 0.13,0 0.258,-0.086 0.387,-0.043 0.043,0.086 -0.043,0.128 -0.086,0.214 M -9.632,7.481 c -0.043,0.086 0,0.086 0.043,0.086 0.043,0 0.13,-0.086 0.172,0 L -9.546,7.783 C -9.589,7.826 -9.632,7.826 -9.675,7.74 -9.718,7.697 -9.718,7.697 -9.761,7.697 c -0.086,0 -0.129,-0.043 -0.172,-0.13 l 0.215,-0.129 c 0.043,0 0.086,0.043 0.086,0.043 m 3.569,-25.842 c 0,0.043 -0.043,0.086 -0.043,0.129 -0.043,0 -0.086,0.043 -0.129,0 -0.129,-0.043 -0.258,0 -0.387,-0.086 -0.043,0 -0.086,0 -0.128,-0.043 -0.087,-0.172 -0.13,-0.172 -0.259,-0.129 -0.129,0.043 -0.301,0 -0.473,0.086 0,0 -0.043,0 -0.043,-0.043 -0.129,-0.086 -0.258,0 -0.387,0 -0.086,0 -0.171,0.086 -0.258,0.086 -0.043,0 -0.043,0.043 -0.043,0.086 0.043,0.086 0.13,0.129 0.13,0.215 0,0.043 0,0.086 -0.043,0.086 -0.173,-0.043 -0.216,-0.043 -0.302,0.086 h -0.086 c -0.129,-0.043 -0.257,-0.043 -0.387,0 -0.043,0.043 -0.129,0 -0.172,0 -0.043,-0.043 -0.129,-0.043 -0.129,0.043 l -0.3,0.516 c 0,0.086 -0.044,0.129 -0.044,0.215 0,0.043 0,0.086 -0.043,0.129 -0.043,0.043 -0.086,0.086 -0.129,0.043 -0.043,-0.086 -0.086,-0.043 -0.129,0 -0.086,0.172 -0.215,0.301 -0.3,0.43 -0.087,0.172 -0.087,0.344 -0.216,0.473 v 0.043 c 0.043,0.215 0,0.387 -0.043,0.559 -0.086,0.301 -0.043,0.602 -0.086,0.903 -0.043,0.129 -0.043,0.301 -0.086,0.43 0,0.129 0,0.258 0.043,0.387 0,0.129 0,0.258 0.043,0.387 v 0.172 c -0.043,0.129 -0.086,0.301 -0.043,0.43 0,0.086 0.043,0.172 0,0.301 v 0.129 c 0.043,0.172 0,0.344 0.129,0.516 v 0.215 c 0,0.129 0,0.258 0.043,0.387 0.043,0.043 0,0.086 0,0.129 v 0.301 c 0,0.086 0,0.086 0.043,0.129 0.043,0.129 0.129,0.258 0.129,0.43 0,0.043 0.044,0.086 0.087,0.172 0,0.043 0.042,0.129 -0.043,0.172 -0.044,0 -0.044,0.043 0,0.086 l 0.128,0.258 c 0.043,0.043 0,0.043 -0.043,0.086 -0.042,0.086 -0.085,0.172 -0.042,0.258 0,0.129 0.085,0.215 0.085,0.344 v 0.086 c -0.085,0.172 0,0.301 0.043,0.43 0.086,0.301 0.172,0.602 0.301,0.903 0.043,0.172 0.129,0.344 0.173,0.516 0.043,0.129 0.085,0.258 0.085,0.387 0,0.129 0.043,0.215 0.129,0.301 0.129,0.129 0.172,0.258 0.172,0.43 0,0.129 0.043,0.258 0.086,0.387 0.043,0.086 0.086,0.172 0.086,0.301 v 0.043 c 0.129,0.129 0.173,0.344 0.215,0.559 0.086,0.215 0.172,0.43 0.215,0.645 0,0.043 0.043,0.086 0.043,0.129 0.043,0.086 0.129,0.215 0.129,0.301 0,0.043 0.043,0.086 0.043,0.086 0.129,0.129 0.173,0.258 0.129,0.43 0,0.043 0,0.129 0.087,0.172 0.085,0.086 0.128,0.215 0.171,0.301 0,0.086 0,0.129 0.086,0.129 0.129,0.043 0.172,0.172 0.215,0.301 0.043,0.043 0,0.129 0.043,0.215 0,0 -0.043,0.043 -0.086,0 -0.043,0 -0.043,0.043 -0.043,0.043 0,0.043 0.043,0.086 0.086,0.086 0.086,0.043 0.172,0.086 0.215,0.172 l 0.172,0.301 c 0.043,0.172 0.129,0.258 0.172,0.387 0.129,0.215 0.258,0.387 0.302,0.559 0,0.043 0.042,0.086 0.042,0.086 0.086,0.172 0.172,0.258 0.215,0.43 0.086,0.129 0.215,0.258 0.258,0.386 0.086,0.13 0.172,0.259 0.215,0.431 0.043,0 0.043,0.043 0.043,0.043 0.301,0.301 0.43,0.688 0.688,0.989 0,0.043 0,0.043 0.043,0.086 0.258,0.258 0.43,0.602 0.731,0.86 0.215,0.258 0.344,0.516 0.602,0.731 0.129,0.129 0.258,0.301 0.387,0.473 l 0.129,0.086 c 0.086,0.086 0.215,0.215 0.258,0.386 0,0.043 0.043,0.087 0.129,0.13 0.086,0 0.129,0.129 0.172,0.215 0.086,0.215 0.258,0.387 0.43,0.559 0.172,0.172 0.301,0.386 0.43,0.559 l 0.301,0.344 c 0.043,0.043 0.086,0.086 0.086,0.129 0.086,0.172 0.215,0.258 0.344,0.387 0.129,0.086 0.258,0.172 0.344,0.301 0.043,0.128 0.172,0.215 0.301,0.301 0.086,0 0.129,0.043 0.129,0.172 0,0.043 0.043,0.129 0.129,0.129 0.086,0 0.129,0.043 0.129,0.085 0.043,0.086 0.129,0.129 0.172,0.216 0.129,0.043 0.172,0.129 0.172,0.301 0.043,0.171 0.172,0.3 0.344,0.343 0.043,0 0.086,0.044 0.043,0.087 0,0.043 0,0.043 0.043,0.086 0.172,0.086 0.215,0.258 0.301,0.386 0,0.043 0,0.086 -0.043,0.13 -0.043,0 -0.086,0 -0.086,-0.044 C 0.731,9.502 0.688,9.459 0.602,9.459 0.473,9.374 0.301,9.331 0.129,9.245 -0.043,9.331 -0.086,9.159 -0.215,9.116 c 0.043,0 0.129,-0.043 0.043,-0.086 0,-0.043 -0.043,-0.043 -0.086,-0.043 C -0.387,8.987 -0.473,8.9 -0.602,8.814 -0.645,8.771 -0.731,8.771 -0.774,8.729 H -0.86 c -0.129,0.128 -0.172,0 -0.215,-0.086 C -1.161,8.514 -1.29,8.428 -1.376,8.256 -1.419,8.212 -1.505,8.212 -1.548,8.169 -1.634,8.169 -1.72,8.126 -1.806,8.083 -1.892,7.998 -1.978,7.955 -2.107,7.955 L -2.58,7.826 c -0.086,-0.043 -0.172,-0.043 -0.215,0 -0.086,0 -0.172,0.043 -0.301,0.043 -0.043,0 -0.086,0 -0.172,-0.043 C -3.311,7.74 -3.44,7.783 -3.526,7.74 h -0.043 c -0.043,0 -0.043,0.086 -0.086,0.043 -0.043,0 -0.043,-0.086 -0.086,-0.129 -0.043,0 -0.043,-0.043 -0.086,-0.043 -0.086,0.043 -0.129,0 -0.215,-0.044 0.043,-0.086 0.172,-0.043 0.215,-0.171 0,-0.086 -0.086,-0.129 -0.086,-0.215 L -3.956,7.138 c 0,-0.043 0.043,-0.129 -0.043,-0.172 H -4.171 -4.257 C -4.429,6.88 -4.601,6.88 -4.816,6.923 c -0.043,0 -0.086,0.043 -0.086,0.043 -0.043,0 -0.086,0.043 -0.129,0.043 -0.129,0 -0.129,0 -0.172,-0.129 0,-0.044 -0.043,-0.087 -0.043,-0.087 0,-0.043 -0.043,-0.085 -0.086,-0.085 -0.086,0.042 -0.129,0 -0.215,0.085 0,0 -0.043,0.043 -0.043,0 -0.086,-0.043 -0.129,-0.043 -0.215,0 l -0.215,0.13 c -0.129,0.129 -0.215,0.129 -0.387,0 H -6.45 c -0.129,0 -0.215,-0.087 -0.344,-0.13 -0.129,-0.085 -0.258,0 -0.387,-0.043 0,0 -0.043,0 -0.043,0.043 -0.043,0.043 -0.043,0.087 -0.129,0.087 -0.086,0 -0.172,0 -0.258,-0.044 -0.086,-0.086 -0.301,-0.086 -0.387,0 -0.085,0.087 -0.085,0.13 0,0.259 -0.085,0.043 -0.172,0 -0.215,-0.043 -0.043,-0.043 -0.086,-0.086 -0.172,-0.086 -0.043,0.043 -0.086,0.086 -0.086,0.129 -0.043,0.172 -0.086,0.172 -0.258,0.129 -0.042,-0.043 -0.086,-0.043 -0.086,0 -0.043,0.043 -0.086,0.043 -0.086,0 0,-0.043 -0.043,-0.043 0,-0.086 0,-0.043 0.043,-0.086 0.086,-0.086 h 0.129 c 0.043,0 0.086,-0.043 0.086,-0.086 0,-0.043 -0.043,-0.086 -0.086,-0.086 0,-0.044 -0.043,-0.087 -0.085,-0.044 -0.087,0 -0.087,0 -0.087,-0.043 -0.086,-0.085 -0.172,-0.085 -0.258,0 l -0.129,0.173 c -0.086,0.043 -0.043,0.129 0.043,0.172 0,0 0.043,0 0.043,0.043 -0.086,0.086 -0.172,0.129 -0.215,0.257 0,0 0,0.043 -0.043,0 -0.042,0 -0.042,-0.042 -0.042,-0.042 V 7.224 c 0,-0.086 -0.043,-0.172 -0.087,-0.172 -0.129,-0.043 -0.258,-0.129 -0.387,-0.086 -0.171,0.086 -0.301,0.129 -0.43,0.215 -0.258,0.172 -0.429,0.343 -0.515,0.602 l -0.13,0.215 c -0.086,0.043 -0.129,0.085 -0.129,0.171 0,0.043 -0.043,0.043 -0.086,0.087 -0.172,0.129 -0.215,0.344 -0.3,0.558 -0.044,0.129 -0.044,0.259 -0.173,0.388 v 0.043 c -0.043,0.257 -0.086,0.516 -0.129,0.774 0,0.214 0.129,0.473 0.043,0.688 -0.043,0.043 0,0.085 0.043,0.128 0.086,0.043 0.129,0.173 0.086,0.302 0,0.043 0,0.086 0.043,0.172 0.043,0 0.087,0.043 0.13,0.129 0.042,0.042 0.042,0.085 0.042,0.171 -0.085,0.173 -0.042,0.345 -0.042,0.516 0.042,0.129 0.128,0.259 0.214,0.345 h 0.043 c 0.043,0.086 0.086,0.129 0.129,0.215 -0.043,0.086 0.129,0.086 0.129,0.171 l 0.258,0.129 c 0.215,0.043 0.344,0 0.516,-0.043 l 0.087,-0.086 c 0.085,-0.085 0.171,-0.171 0.3,-0.128 0.043,0.043 0.043,0 0.086,0 0.129,-0.086 0.216,-0.129 0.344,-0.129 0.258,-0.086 0.344,-0.043 0.344,-0.388 0,-0.171 0.043,-0.343 0.172,-0.472 0.172,-0.216 0.344,-0.344 0.516,-0.559 0.043,-0.043 0.129,-0.086 0.216,-0.129 0.171,0 0.343,-0.043 0.515,-0.13 h 0.172 c 0.172,0 0.301,-0.086 0.473,-0.086 h 0.086 c -0.043,-0.171 0.043,-0.085 0.13,-0.085 0.085,0 0.171,-0.043 0.257,0 0.086,0.042 0.172,0.042 0.215,0.085 0.086,0.043 0.172,0.043 0.258,0 0.043,-0.043 0.129,-0.085 0.172,-0.043 0.043,0.043 0.172,-0.042 0.215,-0.085 0,-0.043 0.043,-0.043 0.086,-0.043 0.086,-0.043 0.172,0.043 0.258,-0.043 0.086,-0.086 0.215,-0.086 0.301,-0.086 0.086,-0.043 0.172,-0.086 0.258,-0.043 0.086,0 0.086,-0.043 0.129,-0.086 0,0.043 0.043,0.086 0.086,0.086 0,0 0.043,0 0.086,-0.043 0,-0.043 0.043,-0.043 0.086,0 0,0 0.043,0.043 0.086,0.043 0.043,0.043 0.086,0.043 0.129,0 0.172,-0.129 0.387,-0.173 0.602,-0.216 h 0.043 c 0.129,0.13 0.301,0.087 0.473,0.13 0.172,0.086 0.344,0.086 0.516,0.172 0.258,-0.043 0.473,0.172 0.731,0.172 0,0 0,0.042 0.043,0.042 0.172,-0.042 0.301,0 0.473,0.043 0.129,0.043 0.301,0.086 0.473,0.086 0.129,0.043 0.215,0.043 0.344,0 h 0.215 c 0.043,0 0.086,0 0.129,0.043 0.129,0.087 0.215,0.13 0.344,0.173 0.344,0.043 0.645,0.086 0.903,0.258 0.086,0.043 0.215,0.128 0.344,0.128 0.043,-0.043 0.086,0 0.129,0.043 0.172,0.086 0.387,0.173 0.602,0.216 0.043,0 0.129,0 0.172,0.043 0.043,0.043 0.086,0.086 0.172,0.086 0.086,0 0.129,0.043 0.172,0.129 0.086,0.214 0.301,0.3 0.516,0.214 0.043,-0.043 0.086,-0.043 0.129,0 0.129,0.043 0.215,0 0.301,0 0.172,-0.043 0.258,-0.171 0.43,-0.214 0,-0.043 0.043,-0.086 0.043,-0.086 C 4.3,11.868 4.3,11.695 4.429,11.609 4.515,11.523 4.601,11.395 4.644,11.266 4.687,11.137 4.73,11.008 4.73,10.878 V 10.792 C 4.816,10.664 4.816,10.578 4.816,10.449 V 10.363 C 4.687,10.276 4.73,10.104 4.73,9.976 c 0,-0.129 0,-0.258 -0.043,-0.344 -0.043,-0.087 0.043,-0.087 0,-0.173 0,-0.042 -0.043,-0.085 0,-0.128 V 9.159 C 4.73,9.116 4.73,9.073 4.687,8.987 4.644,8.943 4.644,8.814 4.644,8.729 V 8.428 C 4.644,8.299 4.687,8.169 4.558,8.083 4.601,7.912 4.386,7.826 4.429,7.611 4.3,7.524 4.343,7.31 4.171,7.181 4.128,7.138 4.128,7.095 4.171,7.009 4.214,6.923 4.257,6.836 4.214,6.708 4.171,6.536 4.214,6.321 4.257,6.148 4.3,6.02 4.343,5.891 4.257,5.762 4.214,5.762 4.214,5.762 4.214,5.719 4.214,5.504 4.042,5.417 3.913,5.375 3.784,5.332 3.655,5.246 3.569,5.16 3.44,5.074 3.311,4.902 3.311,4.729 c 0,-0.128 0,-0.257 -0.129,-0.3 C 3.053,4.3 3.01,4.171 3.01,4.042 3.01,3.87 2.924,3.784 2.838,3.698 L 2.537,3.439 C 2.494,3.439 2.494,3.396 2.451,3.396 2.322,3.396 2.322,3.354 2.279,3.268 2.236,3.182 2.15,3.139 2.236,3.053 V 2.967 C 2.15,2.881 2.15,2.795 2.15,2.708 2.15,2.666 2.107,2.666 2.107,2.623 2.021,2.494 1.935,2.365 1.806,2.279 1.72,2.193 1.634,2.063 1.591,1.935 1.591,1.849 1.505,1.806 1.462,1.806 1.333,1.763 1.247,1.763 1.204,1.677 1.161,1.677 1.118,1.72 1.118,1.72 1.075,1.806 1.075,1.849 0.989,1.763 c 0,-0.043 -0.086,-0.043 -0.129,0 -0.043,0 -0.086,0 -0.129,0.043 C 0.645,1.677 0.731,1.591 0.645,1.462 0.645,1.419 0.731,1.419 0.774,1.419 0.903,1.376 0.903,1.376 0.946,1.29 0.946,1.247 0.946,1.204 0.903,1.161 0.86,1.118 0.817,1.032 0.731,0.989 c 0,0 0,-0.043 -0.043,-0.086 0,-0.086 0,-0.216 -0.043,-0.301 C 0.688,0.516 0.602,0.473 0.602,0.387 0.559,0.301 0.559,0.215 0.473,0.172 0.43,0.129 0.43,0.086 0.43,0.043 0.43,0 0.387,-0.086 0.344,-0.086 0.215,-0.172 0.258,-0.301 0.258,-0.387 l 0.086,-0.129 c 0,-0.086 0,-0.172 -0.043,-0.258 -0.043,-0.129 -0.086,-0.258 -0.215,-0.387 0,0 -0.043,-0.086 -0.043,-0.129 0,-0.043 -0.043,-0.086 -0.086,-0.129 -0.086,-0.043 -0.086,-0.086 -0.086,-0.172 v -0.172 c 0,-0.086 0.086,-0.172 0,-0.258 -0.043,-0.086 -0.086,-0.129 -0.086,-0.215 l -0.043,-0.043 c -0.086,-0.215 -0.172,-0.387 -0.344,-0.516 0.086,-0.086 0.086,-0.172 0.086,-0.258 0,-0.129 -0.043,-0.258 0.043,-0.344 0,-0.043 0,-0.086 -0.043,-0.129 -0.129,-0.086 -0.301,-0.172 -0.43,-0.301 -0.043,0 -0.043,0 -0.086,0.043 -0.172,0.086 -0.215,0.258 -0.129,0.43 0.043,0.043 0.086,0.129 0.043,0.215 -0.043,0.086 0.043,0.215 0.043,0.301 0.258,0.043 0.258,0.043 0.387,0.301 0.043,0.043 0.086,0.129 0,0.172 -0.086,0.172 -0.043,0.301 -0.043,0.43 0.043,0.086 0.043,0.129 0,0.129 -0.043,0.043 -0.086,0.043 -0.129,0 -0.043,0 -0.043,-0.043 -0.043,-0.129 0,0 0.043,-0.043 0.043,-0.086 0,-0.086 -0.086,-0.129 -0.172,-0.086 -0.043,0 -0.129,0.043 -0.215,0.043 -0.043,-0.043 -0.043,-0.172 -0.172,-0.172 v -0.086 c 0.043,-0.043 0.043,-0.129 0.043,-0.215 0,-0.129 0,-0.129 0.172,-0.172 l 0.043,-0.043 c 0,0 0.043,-0.043 0,-0.043 -0.086,-0.043 -0.086,-0.129 -0.129,-0.215 -0.043,-0.086 -0.043,-0.129 -0.129,-0.086 -0.086,0 -0.129,0.043 -0.215,0 -0.043,-0.043 -0.129,-0.043 -0.129,-0.129 0.043,-0.043 0.043,-0.129 0.129,-0.129 l 0.129,-0.086 c 0.043,-0.086 0.043,-0.129 -0.043,-0.215 0,-0.043 -0.043,-0.043 -0.043,-0.086 0.043,-0.172 -0.086,-0.301 -0.129,-0.43 0,-0.043 0,-0.086 0.043,-0.129 0.043,0 0.043,0 0.086,0.043 0.043,0 0.086,0.043 0.129,0.043 v 0.043 c -0.086,0.172 -0.086,0.215 0.043,0.301 0.172,0.129 0.215,0.086 0.301,-0.086 0,-0.043 0.043,-0.086 0.043,-0.086 0.086,-0.172 0.043,-0.344 -0.129,-0.473 -0.043,-0.043 -0.086,-0.086 -0.086,-0.129 -0.086,-0.086 -0.129,-0.215 -0.215,-0.301 -0.086,-0.086 -0.129,-0.215 -0.086,-0.344 0.086,-0.129 0.043,-0.215 -0.043,-0.344 -0.043,-0.043 -0.086,-0.129 -0.043,-0.215 0.043,-0.129 0,-0.258 -0.043,-0.344 -0.043,-0.129 -0.129,-0.172 -0.258,-0.172 -0.043,-0.043 -0.043,-0.086 -0.086,-0.086 -0.086,-0.129 -0.172,-0.172 -0.301,-0.129 -0.086,0.043 -0.129,0 -0.172,0 0,0.172 0,0.344 0.086,0.516 0.086,0.086 0,0.172 -0.086,0.215 -0.129,0 -0.215,-0.043 -0.301,-0.172 -0.043,-0.086 -0.129,-0.215 -0.043,-0.344 0,-0.043 0,-0.086 -0.043,-0.086 -0.086,-0.129 -0.129,-0.172 0,-0.301 0.086,-0.129 0,-0.258 -0.043,-0.344 0,-0.043 -0.043,-0.043 -0.043,-0.043 -0.129,0 -0.129,-0.043 -0.129,-0.129 0,-0.086 0.086,-0.129 0.086,-0.215 0.043,-0.043 0.043,-0.086 0.086,-0.043 0.043,0.043 0,0.043 0,0.086 -0.043,0.043 0,0.215 0.086,0.215 0.086,0.043 0.172,0.129 0.215,0.215 0.086,0.043 0.129,0 0.172,-0.043 0.043,-0.043 0.129,-0.086 0.043,-0.215 -0.043,-0.086 -0.043,-0.172 0.043,-0.258 0.172,-0.086 0.086,-0.215 0.086,-0.344 0,-0.043 -0.043,-0.129 -0.086,-0.172 0,-0.043 0,-0.043 -0.043,-0.043 -0.258,0 -0.043,-0.215 -0.129,-0.301 0.043,-0.086 0,-0.172 0.043,-0.258 0.086,-0.129 0,-0.258 -0.086,-0.387 -0.043,-0.043 -0.086,-0.086 -0.086,-0.129 -0.043,-0.043 -0.043,-0.129 0,-0.129 0.043,-0.086 0.043,-0.129 0,-0.215 -0.043,-0.129 -0.043,-0.172 -0.215,-0.215 0,0.086 -0.043,0.129 -0.086,0.172 -0.172,0.172 -0.301,0.344 -0.172,0.559 0,0.086 0.043,0.129 0.043,0.215 0,0.086 0,0.172 -0.043,0.215 -0.043,0.086 -0.043,0.129 0,0.215 0,0 0,0.043 -0.043,0.043 l -0.043,-0.043 c -0.043,-0.043 0,-0.129 -0.086,-0.172 -0.086,0 -0.129,-0.086 -0.172,-0.086 -0.129,-0.129 -0.172,-0.301 -0.172,-0.473 0,-0.043 0,-0.129 -0.043,-0.215 -0.043,-0.043 -0.086,-0.086 -0.086,-0.129 0,-0.086 0,-0.129 0.043,-0.172 0.086,-0.043 0.215,-0.086 0.258,-0.215 0.043,-0.129 0.043,-0.215 -0.043,-0.301 -0.086,-0.086 -0.129,-0.215 -0.129,-0.301 0,-0.086 -0.086,-0.172 -0.129,-0.215 -0.043,-0.129 -0.043,-0.215 0.086,-0.258 0.043,-0.043 0.086,-0.086 0.086,-0.172 l 0.043,-0.301 c 0,-0.086 0,-0.129 -0.086,-0.172 -0.086,-0.086 -0.215,-0.129 -0.215,-0.258 -0.043,-0.086 -0.129,-0.086 -0.172,0 v 0.043 c -0.043,0.086 -0.086,0.086 -0.129,0.043 -0.043,-0.129 -0.129,-0.172 -0.258,-0.215 -0.086,-0.043 -0.086,-0.129 0,-0.172 0.086,-0.043 0.043,-0.086 0.043,-0.172 0,-0.043 -0.086,-0.086 0,-0.172 0,0 0,-0.043 -0.043,-0.043 -0.086,-0.086 -0.043,-0.215 -0.043,-0.344 0,-0.043 0,-0.086 -0.043,-0.129 0,-0.043 -0.043,-0.086 -0.086,-0.043 -0.086,0 -0.086,0.043 -0.086,0.086 v 0.043 c -0.129,0 -0.129,-0.086 -0.172,-0.172 -0.043,-0.086 0,-0.172 0,-0.258 0,-0.043 0.043,-0.043 0.043,-0.043 0.043,0 0.043,0 0.086,0.043 0.086,0.043 0.172,0 0.215,-0.043 0.086,-0.086 0.043,-0.129 0,-0.215 -0.043,-0.043 -0.086,-0.129 -0.129,-0.215 -0.086,-0.129 -0.129,-0.129 -0.301,-0.129 0,-0.086 0.043,-0.129 0.086,-0.172 0.043,-0.086 0.086,-0.129 0,-0.172 -0.086,-0.129 -0.086,-0.258 -0.129,-0.387 0,-0.129 0,-0.215 -0.086,-0.344 -0.043,-0.043 0.043,-0.129 0.043,-0.172 0.129,0.086 0.129,0.086 0.172,-0.043 l 0.129,-0.215 c 0,-0.172 0.043,-0.344 -0.129,-0.473 -0.129,-0.129 -0.129,-0.387 -0.043,-0.516 0.086,-0.086 0.086,-0.215 0.129,-0.344 0,-0.043 -0.043,-0.129 -0.129,-0.129 -0.043,-0.043 -0.043,-0.043 -0.043,-0.086 0.086,-0.172 -0.043,-0.258 -0.129,-0.344 -0.129,-0.086 -0.172,-0.215 -0.258,-0.301 -0.043,-0.086 0,-0.172 -0.043,-0.301 0,-0.129 -0.043,-0.215 -0.043,-0.387 0,-0.129 -0.258,-0.344 -0.387,-0.301 -0.129,0.043 -0.172,0.129 -0.215,0.215" /></g><g
           transform="translate(67.3159,6.1538)"
           id="g32"><path
             id="path34"
             style="fill:#231f20;fill-opacity:1;fill-rule:nonzero;stroke:none"
             d="M 0,0 C 0,0.043 -0.043,0.043 -0.086,0.043 -0.129,0.043 -0.129,0 -0.129,0 c 0,-0.043 0.043,-0.086 0.086,-0.043 0,0 0.086,0 0.043,0.043 m -3.526,20.511 c 0,0.172 0,0.343 0.043,0.516 0,0.043 0,0.086 -0.043,0.129 -0.086,0.043 -0.043,0.129 -0.086,0.215 0.043,-0.086 -0.043,-0.129 -0.043,-0.172 0.043,-0.086 0,-0.216 -0.129,-0.259 0,0 -0.043,0 -0.043,-0.043 0,-0.171 -0.086,-0.343 0.086,-0.472 0.043,0 0.043,-0.043 0.043,-0.086 0.086,-0.087 0.086,-0.172 0.129,-0.301 0,0.171 0,0.344 0.043,0.473 m -0.903,-2.623 c 0,0 0.043,0.043 0,0.086 -0.043,0 -0.129,0 -0.129,-0.043 0,-0.043 0.043,-0.086 0.043,-0.129 0.043,0.043 0.086,0.043 0.086,0.086 M -0.43,-0.387 c -0.043,0.043 -0.129,0.043 -0.172,0.043 -0.129,-0.086 -0.258,0 -0.301,0.129 0,0.043 -0.043,0.086 -0.129,0.086 -0.043,0 -0.086,0.086 -0.129,0.086 C -1.247,0 -1.29,0.043 -1.376,0 c -0.086,-0.043 -0.172,-0.043 -0.258,-0.086 -0.172,-0.086 -0.301,-0.043 -0.387,0 C -2.15,0 -2.322,-0.043 -2.451,0 -2.58,0.043 -2.708,0.086 -2.795,0.172 -2.924,0.344 -3.139,0.473 -3.311,0.559 -3.526,0.645 -3.612,0.774 -3.741,0.903 -3.784,0.989 -3.87,1.032 -3.999,1.032 -4.128,1.075 -4.3,1.118 -4.386,1.29 -4.429,1.333 -4.472,1.376 -4.558,1.419 -4.687,1.462 -4.773,1.591 -4.902,1.634 L -4.988,1.72 c -0.043,0.172 -0.129,0.344 -0.215,0.473 v 0.086 c 0,0.172 0,0.344 -0.043,0.473 -0.043,0.086 -0.043,0.172 0,0.258 0,0.086 -0.086,0.129 -0.129,0.215 0,0.086 0.129,0.215 0.043,0.344 0,0 0,0.043 0.043,0.043 0.086,0.086 0.086,0.129 0.043,0.215 v 0.129 c 0,0.086 0,0.172 -0.086,0.301 -0.043,0.043 -0.128,0.172 0,0.301 0.043,0 0,0.043 0,0.086 0,0.172 -0.085,0.301 -0.128,0.473 0,0.129 0,0.215 0.043,0.301 0.042,0.086 0.042,0.172 0.042,0.258 0,0.215 -0.042,0.43 0.043,0.645 0,0 0,0.043 -0.043,0.043 -0.042,0.129 0,0.258 -0.042,0.387 -0.043,0.043 -0.043,0.086 0,0.129 0.042,0.086 0.042,0.215 0.042,0.344 V 7.31 c 0.043,0.129 0.043,0.215 0,0.344 0,0.129 0,0.258 0.043,0.387 v 0.258 c -0.043,0.215 -0.043,0.387 0.043,0.602 v 0.301 c 0,0.258 0,0.473 0.043,0.731 0.043,0.086 0.043,0.215 0.043,0.344 v 0.473 c 0,0.258 0,0.516 0.043,0.774 0,0.043 0.043,0.043 0.043,0.086 -0.086,0.301 0.043,0.602 0.086,0.86 0,0.043 0.043,0.086 0.043,0.129 -0.043,0.086 -0.043,0.215 -0.043,0.301 0,0.129 0.043,0.215 0.086,0.301 v 0.043 c -0.043,0.215 0,0.43 0.043,0.645 0,0.215 0.043,0.43 0.086,0.645 0.043,0.215 0.043,0.43 0.087,0.645 0.042,0.129 0,0.258 -0.044,0.344 -0.043,0.086 -0.086,0.129 -0.172,0.086 0,0 -0.043,0 -0.043,0.043 0.043,0.086 -0.129,0 -0.043,0.129 -0.043,0.172 0.043,0.301 0.129,0.43 0.086,0.129 0,0.258 0.086,0.344 0.043,0.129 0.087,0.215 0.087,0.344 0,0.043 -0.044,0.129 0,0.215 0.042,0.043 0.128,0.086 0.171,0.043 0.043,-0.043 0.086,-0.086 0.086,-0.172 0,-0.13 0.043,-0.258 0.043,-0.387 0,-0.043 0.043,-0.086 0.086,-0.129 0.043,-0.086 0.172,-0.043 0.172,0.043 0.043,0.172 0.087,0.387 0.087,0.559 0.042,0.043 0,0.043 -0.044,0.086 -0.043,0.043 0,0.086 0.044,0.129 0,0.043 0.042,0.129 0,0.172 -0.13,0.042 -0.087,0.129 -0.087,0.215 0,0.043 0.043,0.086 0.043,0.129 -0.086,-0.043 -0.129,-0.086 -0.172,-0.086 -0.043,-0.043 -0.086,-0.043 -0.086,0 -0.086,0.043 -0.129,0.043 -0.172,0.043 -0.086,-0.043 -0.129,-0.043 -0.129,0 -0.042,0.043 -0.086,0.129 -0.042,0.172 0.042,0.043 0.128,0.086 0.085,0.129 0,0.043 0.043,0.043 0.043,0.043 0.086,-0.043 0.172,0 0.258,-0.043 0.043,-0.043 0.129,-0.043 0.086,0.043 v 0.128 c 0.043,0.087 0.043,0.13 0.129,0.173 l 0.129,0.172 c 0.043,0.129 0,0.215 -0.129,0.257 0,0.043 -0.043,0.043 -0.086,0.043 v 0.259 C -4.257,19.092 -4.3,19.092 -4.3,19.092 c 0,0 0,-0.043 -0.043,-0.043 -0.043,-0.086 -0.043,-0.086 0.086,-0.129 0,-0.044 0,-0.044 0.043,-0.044 -0.043,-0.043 0.043,-0.085 0,-0.128 0,-0.043 -0.086,-0.086 -0.172,-0.043 -0.086,0 -0.129,0.043 -0.215,0.086 -0.128,0.042 -0.172,0.301 -0.086,0.344 0.086,0.086 0.086,0.129 0.086,0.172 -0.043,0.086 -0.043,0.172 0,0.214 0.086,0.086 0.172,0.216 0.215,0.345 0.043,0.086 0.043,0.172 -0.043,0.258 -0.086,0.043 -0.043,0.085 -0.043,0.128 0.172,0.173 0.215,0.388 0.215,0.602 v 0.043 c -0.129,0.043 -0.086,0.13 -0.086,0.216 0,0.129 0.129,0.258 0.043,0.387 -0.043,0.042 0,0.128 0.043,0.172 0.129,0.043 0.129,0.172 0.129,0.258 0,0.086 0,0.129 -0.043,0.215 -0.043,0 -0.043,-0.043 -0.086,-0.043 C -4.3,22.059 -4.3,22.016 -4.343,22.016 -4.558,21.973 -4.644,21.758 -4.729,21.628 -4.773,21.542 -4.859,21.5 -4.945,21.414 c -0.043,0 -0.043,0 -0.086,0.043 L -5.074,21.5 c -0.086,-0.043 -0.129,0 -0.172,-0.043 -0.086,0 -0.129,-0.086 -0.171,-0.129 0,-0.043 0.042,-0.043 0.042,-0.043 0,-0.043 0,-0.129 -0.085,-0.129 -0.044,0 -0.173,0.043 -0.13,-0.129 -0.043,-0.044 -0.086,-0.044 -0.129,0 -0.086,0.043 -0.172,0.043 -0.258,0.086 -0.085,0 -0.172,0.043 -0.215,-0.043 -0.043,-0.043 0,-0.13 0.087,-0.173 -0.13,-0.043 -0.216,-0.085 -0.345,0 -0.129,0.043 -0.3,0.043 -0.386,-0.085 -0.044,-0.043 -0.087,-0.043 -0.13,0 -0.043,0 -0.086,0.042 -0.086,0.085 0,0.086 0.043,0.173 0.129,0.173 0.043,0.043 0.087,0.043 0.087,0.043 l 0.043,0.043 c -0.043,0.043 -0.13,0.086 -0.173,0.129 -0.043,0 -0.086,-0.043 -0.086,-0.043 -0.172,-0.043 -0.301,-0.086 -0.386,-0.215 -0.043,0 -0.087,-0.044 -0.043,-0.087 0,-0.043 0.043,-0.043 0.085,-0.043 0.129,0 0.301,-0.043 0.387,-0.171 0.086,-0.086 0.043,-0.172 0.129,-0.258 -0.086,0 -0.215,0.043 -0.258,-0.043 h -0.129 c 0,0.043 -0.043,0.086 -0.086,0 h -0.043 c -0.085,0.086 -0.172,0.043 -0.215,0 0,-0.043 -0.043,-0.043 -0.043,0 -0.043,0 -0.043,0.043 -0.043,0.043 0.129,0.086 0.043,0.301 0.172,0.386 -0.086,0.086 -0.172,0.086 -0.258,0.086 -0.043,0 -0.043,0 -0.043,-0.043 0,-0.043 -0.043,-0.085 -0.086,-0.043 0,-0.042 -0.043,-0.128 -0.086,-0.128 -0.085,0 -0.085,0.043 -0.171,0 -0.087,0.086 -0.173,-0.043 -0.259,-0.086 -0.129,-0.043 -0.215,-0.086 -0.343,-0.086 -0.086,0 -0.173,0.043 -0.216,0.129 -0.086,0.129 -0.172,0.214 -0.215,0.344 -0.043,0.043 -0.043,0.129 -0.043,0.172 0.043,0.172 0.129,0.301 0.129,0.429 0,0.044 0,0.087 0.043,0.087 0.172,0.129 0.302,0.344 0.559,0.344 0.086,0.043 0.258,0.043 0.302,0.214 0,0.086 0.129,0.086 0.171,0.086 h 0.086 c 0.043,0.173 0.129,0.087 0.215,0.087 0.043,0 0.129,0 0.129,0.086 0.043,0.043 0.043,0.129 0.043,0.172 0.043,0.086 0.087,0.129 0.172,0.129 0.043,0 0.086,-0.043 0.129,-0.043 0.043,0 0.086,0 0.129,0.043 0.043,0.085 0.172,0.085 0.215,0.215 l 0.173,0.129 c 0.042,0 0.128,0 0.128,0.086 0,0.043 0.043,0.043 0.086,0.043 0.172,0.043 0.344,0.172 0.431,0.343 0.085,0.13 0.257,0.259 0.3,0.431 0.215,0.043 0.258,0.257 0.345,0.387 0.043,0.086 0.043,0.129 0.128,0.172 0.129,0.043 0.172,0.172 0.258,0.257 0.086,0.129 0.215,0.215 0.345,0.302 0.128,0.043 0.214,0.172 0.3,0.301 0.129,0.257 0.301,0.473 0.43,0.73 0.043,0.043 0.086,0.086 0.172,0.129 0.129,0.086 0.258,0.216 0.301,0.388 0,0.043 0.043,0.086 0.043,0.129 0.129,0.128 0.129,0.301 0.172,0.43 0,0.129 0.043,0.215 0.086,0.3 0.043,0.172 0.129,0.302 0.172,0.474 v 0.043 c 0.172,0.171 0.301,0.386 0.516,0.473 0.086,0.043 0.172,0.086 0.215,0.215 0,0.086 0.086,0.128 0.129,0.214 0.043,0.043 0.086,0.086 0.172,0.086 0.086,0 0.172,0 0.215,0.129 0.086,0.13 0.215,0.216 0.387,0.173 h 0.043 c 0.215,0.129 0.473,0.129 0.731,0.171 h 0.043 c 0.172,0.172 0.387,0.129 0.602,0.258 0.086,0.043 0.215,0 0.344,0.043 0.215,0.087 0.43,-0.043 0.645,-0.043 0,0 0.043,0 0.043,-0.043 0.129,-0.129 0.301,-0.086 0.473,-0.172 0.043,0 0.043,0 0.086,0.043 0.086,0.043 0.129,0 0.172,-0.043 l 0.215,-0.3 0.129,-0.173 c 0.129,-0.086 0.172,-0.3 0.344,-0.386 L 2.494,28.724 C 2.58,28.422 2.795,28.165 2.881,27.863 l 0.086,-0.215 c 0,-0.128 0.043,-0.257 0.129,-0.386 0.043,-0.043 0.043,-0.13 0.043,-0.173 -0.043,-0.129 -0.043,-0.214 0,-0.343 0,-0.043 0,-0.129 -0.043,-0.172 L 2.967,26.401 C 2.838,26.272 2.795,26.144 2.752,25.972 v -0.043 c 0.043,-0.173 -0.086,-0.302 0,-0.473 0.043,0 0,-0.043 0,-0.086 C 2.709,25.327 2.666,25.284 2.623,25.284 2.537,25.198 2.451,25.111 2.537,25.025 V 24.896 C 2.494,24.811 2.494,24.768 2.58,24.725 c 0.043,-0.043 0,-0.086 0,-0.129 0,-0.172 -0.086,-0.302 -0.043,-0.473 0,-0.129 -0.043,-0.258 -0.086,-0.344 C 2.408,23.692 2.365,23.606 2.408,23.521 L 2.537,23.134 V 22.961 C 2.451,22.875 2.494,22.79 2.58,22.704 2.623,22.661 2.623,22.618 2.623,22.532 2.58,22.489 2.58,22.446 2.58,22.403 2.58,22.273 2.494,22.23 2.408,22.187 2.322,22.145 2.279,22.059 2.236,21.973 c 0,-0.086 0,-0.129 -0.043,-0.215 -0.043,-0.043 0,-0.13 0,-0.216 0.086,-0.085 0.086,-0.171 0.043,-0.3 0,-0.259 -0.043,-0.473 -0.129,-0.731 v -0.129 c 0,0 0.043,-0.043 0.043,-0.086 -0.043,-0.129 -0.086,-0.258 0.086,-0.344 0,-0.086 0,-0.172 -0.043,-0.258 -0.043,-0.087 -0.043,-0.13 0,-0.215 0,-0.172 0,-0.344 0.043,-0.473 0,-0.258 -0.086,-0.43 -0.043,-0.645 C 2.107,18.188 2.15,18.017 2.15,17.845 c 0,-0.043 0.043,-0.086 0,-0.129 -0.043,-0.129 0,-0.216 0.086,-0.301 0.086,-0.086 0.086,-0.129 0,-0.172 C 2.15,17.2 2.107,17.157 2.107,17.071 2.064,16.985 1.978,16.942 1.935,16.899 1.978,16.855 2.064,16.855 2.107,16.812 2.15,16.77 2.193,16.727 2.193,16.684 c 0.043,-0.043 0,-0.086 -0.043,-0.129 -0.043,-0.086 -0.086,-0.129 0,-0.172 0.043,-0.043 0,-0.129 -0.043,-0.172 -0.043,-0.043 0,-0.043 0,-0.086 0.086,-0.129 0.086,-0.301 0.086,-0.43 0,-0.172 -0.043,-0.344 -0.086,-0.516 0,-0.129 -0.043,-0.215 0.043,-0.344 0.043,-0.043 0,-0.086 0,-0.129 C 2.107,14.534 2.064,14.362 1.935,14.19 1.892,14.147 1.849,14.061 1.892,14.018 2.021,13.889 1.892,13.76 1.935,13.631 1.892,13.502 1.892,13.287 1.849,13.115 1.806,13.072 1.806,12.986 1.806,12.9 1.806,12.728 1.72,12.599 1.634,12.47 1.548,12.341 1.548,12.212 1.548,12.04 l 0.086,0.129 c 0.043,-0.172 0.043,-0.301 -0.129,-0.387 0.043,-0.086 -0.086,-0.129 0,-0.172 L 1.548,11.438 C 1.505,11.352 1.505,11.309 1.505,11.223 1.462,11.137 1.376,11.223 1.29,11.18 1.333,11.137 1.333,11.051 1.333,11.008 1.376,10.922 1.333,10.922 1.29,10.922 1.247,10.879 1.118,10.707 1.118,10.664 1.075,10.621 1.075,10.621 1.032,10.621 c 0,0 -0.043,0.172 -0.043,0 0,-0.043 -0.043,-0.043 -0.086,-0.043 0,0 -0.043,0 -0.043,-0.043 0.043,-0.086 0.043,-0.043 0.086,-0.043 0.086,0 0.129,0 0.215,-0.043 0.043,-0.043 0.086,-0.086 0.086,-0.172 0.086,0.043 0.086,0.129 0.172,0.129 0,-0.258 -0.086,-0.516 -0.215,-0.731 -0.043,0 -0.086,0 -0.086,-0.043 C 1.032,9.589 1.032,9.503 1.032,9.374 1.118,9.46 1.161,9.589 1.204,9.675 c 0.043,0 0.043,-0.043 0.043,-0.086 -0.086,-0.172 -0.086,-0.344 0,-0.473 0.043,-0.043 0,-0.043 0,-0.086 0,-0.086 -0.043,-0.215 0,-0.344 L 1.118,8.428 C 1.075,8.385 1.075,8.385 1.075,8.342 c 0.043,-0.129 0,-0.301 0.043,-0.43 0,-0.129 0,-0.301 -0.043,-0.43 C 0.989,7.224 1.032,6.966 1.032,6.708 V 6.149 c 0,-0.086 0,-0.129 -0.043,-0.172 C 0.817,5.934 0.903,5.805 0.903,5.676 c 0.043,0.043 0.043,0.086 0.086,0.086 0,0.043 0,0.086 0.086,0.086 C 1.118,5.805 1.118,5.762 1.118,5.719 1.075,5.504 1.032,5.289 0.946,5.074 V 4.945 C 0.946,4.816 0.903,4.773 0.774,4.73 0.731,4.73 0.688,4.687 0.731,4.644 0.774,4.558 0.688,4.429 0.774,4.343 V 4.214 c 0.086,0 0.086,0 0.043,-0.086 L 0.731,3.999 C 0.688,3.956 0.688,3.956 0.688,3.913 c 0.043,-0.043 0.043,-0.043 0.086,0 0,0 0.043,0.043 0.043,0.086 C 0.86,3.784 0.817,3.655 0.731,3.526 0.645,3.354 0.645,3.354 0.43,3.311 0.645,3.268 0.645,3.096 0.731,2.967 c 0.043,0.086 0.043,0.172 0.086,0.215 0,0.043 0,0.043 0.043,0.043 L 0.903,3.182 C 0.86,3.053 0.903,2.924 0.817,2.838 0.774,2.752 0.774,2.666 0.731,2.623 c 0,-0.043 -0.043,-0.086 0,-0.129 0.043,0 0.086,0.043 0.129,-0.043 0,-0.043 -0.086,-0.043 -0.086,-0.086 0,-0.129 0,-0.215 -0.086,-0.301 -0.043,-0.043 -0.043,-0.129 0,-0.172 0.043,-0.043 0,-0.086 0,-0.129 C 0.559,1.634 0.559,1.462 0.602,1.333 0.602,1.161 0.645,1.032 0.516,0.903 0.43,0.817 0.43,0.774 0.473,0.688 0.473,0.559 0.473,0.473 0.43,0.344 0.387,0.258 0.387,0.172 0.387,0.086 0.387,0 0.344,-0.086 0.215,-0.129 L 0.129,-0.215 c -0.086,-0.086 -0.086,-0.086 -0.172,0 -0.043,0.043 -0.086,0 -0.086,0 -0.043,-0.086 0,-0.172 -0.086,-0.215 -0.086,-0.043 -0.129,0.043 -0.215,0.043" /></g><g
           transform="translate(20.8228,21.8032)"
           id="g36"><path
             id="path38"
             style="fill:#231f20;fill-opacity:1;fill-rule:nonzero;stroke:none"
             d="M 0,0 H 0.043 C 0.215,-0.086 0.43,-0.129 0.559,-0.258 0.645,-0.301 0.731,-0.344 0.817,-0.344 l 0.774,-0.387 c 0.043,0 0.086,-0.043 0.129,-0.086 0.129,-0.129 0.215,-0.215 0.387,-0.258 0.172,-0.043 0.301,-0.129 0.43,-0.258 0.086,-0.129 0.172,-0.301 0.172,-0.473 v -0.086 c 0.086,-0.129 0.129,-0.301 0.215,-0.473 0,-0.043 0.043,-0.043 0,-0.086 -0.043,-0.086 -0.043,-0.172 0,-0.301 0,-0.086 -0.043,-0.172 0.043,-0.258 0.086,-0.043 0.086,-0.172 0.086,-0.258 0,-0.043 0,-0.129 0.043,-0.215 V -3.526 C 2.967,-3.612 3.096,-3.784 3.01,-3.87 2.924,-3.956 2.967,-4.085 2.838,-4.171 V -4.257 C 2.838,-4.386 2.795,-4.515 2.709,-4.644 2.666,-4.773 2.58,-4.902 2.537,-4.988 2.537,-5.031 2.494,-5.074 2.494,-5.074 2.322,-5.16 2.279,-5.289 2.193,-5.418 L 2.064,-5.547 C 2.021,-5.59 1.978,-5.59 1.978,-5.547 1.892,-5.461 1.849,-5.504 1.849,-5.59 1.806,-5.633 1.763,-5.676 1.677,-5.633 c -0.086,-0.043 -0.172,0 -0.258,-0.086 0,-0.043 -0.086,-0.086 -0.129,0 H 1.204 c -0.043,0.043 -0.086,0.043 -0.086,0 C 1.075,-5.762 1.075,-5.805 1.032,-5.762 0.903,-5.719 0.774,-5.805 0.645,-5.805 c -0.086,0.043 -0.215,-0.043 -0.344,0 -0.043,0 -0.043,0 -0.086,-0.043 C 0.172,-5.891 0.129,-5.891 0.043,-5.891 h -0.129 c -0.043,0 -0.129,-0.043 -0.172,0 -0.258,-0.043 -0.43,0.086 -0.645,0.172 -0.043,0.043 -0.086,0.043 -0.129,0.043 -0.086,0 -0.129,0.043 -0.215,0.043 -0.043,0 -0.086,0.086 -0.086,0.129 -0.086,0.129 -0.258,0.215 -0.344,0.344 -0.043,0.086 -0.086,0.172 -0.086,0.258 0,0.172 -0.043,0.344 0,0.516 0,0.043 -0.043,0.043 -0.043,0.086 -0.086,0.086 -0.086,0.172 0,0.215 0.086,0.129 0.043,0.258 0,0.344 -0.043,0.086 0,0.215 -0.043,0.301 0.086,0.129 0,0.301 0,0.43 -0.043,0.086 -0.043,0.172 -0.086,0.258 v 0.086 c 0.086,0.129 0.043,0.258 0.043,0.43 -0.043,0.172 0,0.344 0.086,0.516 v 0.172 c 0.043,0.258 0.086,0.473 0.215,0.688 0.043,0.086 0.086,0.172 0.172,0.215 0.043,0.043 0.086,0.086 0.086,0.172 0,0.086 0.086,0.172 0.215,0.129 0.086,0 0.172,0.043 0.258,0.129 0.043,0.043 0.086,0.043 0.129,0.043 0.172,0.043 0.344,0.043 0.516,0.129 C -0.172,0.043 -0.086,0 0,0" /></g><g
           transform="translate(48.6563,21.8032)"
           id="g40"><path
             id="path42"
             style="fill:#231f20;fill-opacity:1;fill-rule:nonzero;stroke:none"
             d="M 0,0 H 0.043 C 0.215,-0.086 0.43,-0.129 0.559,-0.258 0.645,-0.301 0.731,-0.344 0.817,-0.344 l 0.774,-0.387 c 0.043,0 0.086,-0.043 0.129,-0.086 0.129,-0.129 0.215,-0.215 0.387,-0.258 0.172,-0.043 0.301,-0.129 0.43,-0.258 0.086,-0.129 0.172,-0.301 0.172,-0.473 v -0.086 c 0.086,-0.129 0.129,-0.301 0.215,-0.473 0,-0.043 0.043,-0.043 0,-0.086 -0.043,-0.086 -0.043,-0.172 0,-0.301 0,-0.086 -0.043,-0.172 0.043,-0.258 0.086,-0.043 0.086,-0.172 0.086,-0.258 0,-0.043 0,-0.129 0.043,-0.215 V -3.526 C 2.967,-3.612 3.096,-3.784 3.01,-3.87 2.924,-3.956 2.967,-4.085 2.838,-4.171 V -4.257 C 2.838,-4.386 2.795,-4.515 2.709,-4.644 2.666,-4.773 2.58,-4.902 2.537,-4.988 2.537,-5.031 2.494,-5.074 2.494,-5.074 2.322,-5.16 2.279,-5.289 2.193,-5.418 L 2.064,-5.547 C 2.021,-5.59 1.978,-5.59 1.978,-5.547 1.892,-5.461 1.849,-5.504 1.849,-5.59 1.806,-5.633 1.763,-5.676 1.677,-5.633 c -0.086,-0.043 -0.172,0 -0.258,-0.086 0,-0.043 -0.086,-0.086 -0.129,0 H 1.204 c -0.043,0.043 -0.086,0.043 -0.086,0 C 1.075,-5.762 1.075,-5.805 1.032,-5.762 0.903,-5.719 0.774,-5.805 0.645,-5.805 c -0.086,0.043 -0.215,-0.043 -0.344,0 -0.043,0 -0.043,0 -0.086,-0.043 C 0.172,-5.891 0.129,-5.891 0.043,-5.891 h -0.129 c -0.043,0 -0.129,-0.043 -0.172,0 -0.258,-0.043 -0.43,0.086 -0.645,0.172 -0.043,0.043 -0.086,0.043 -0.129,0.043 -0.086,0 -0.129,0.043 -0.215,0.043 -0.043,0 -0.086,0.086 -0.086,0.129 -0.086,0.129 -0.258,0.215 -0.344,0.344 -0.043,0.086 -0.086,0.172 -0.086,0.258 0,0.172 -0.043,0.344 0,0.516 0,0.043 -0.043,0.043 -0.043,0.086 -0.086,0.086 -0.086,0.172 0,0.215 0.086,0.129 0.043,0.258 0,0.344 -0.043,0.086 0,0.215 -0.043,0.301 0.086,0.129 0,0.301 0,0.43 -0.043,0.086 -0.043,0.172 -0.086,0.258 v 0.086 c 0.086,0.129 0.043,0.258 0.043,0.43 -0.043,0.172 0,0.344 0.086,0.516 v 0.172 c 0.043,0.258 0.086,0.473 0.215,0.688 0.043,0.086 0.086,0.172 0.172,0.215 0.043,0.043 0.086,0.086 0.086,0.172 0,0.086 0.086,0.172 0.215,0.129 0.086,0 0.172,0.043 0.258,0.129 0.043,0.043 0.086,0.043 0.129,0.043 0.172,0.043 0.344,0.043 0.516,0.129 C -0.172,0.043 -0.086,0 0,0" /></g></g></g></g></svg>