<?xml version="1.0" encoding="UTF-8" standalone="no"?>
<svg
   xmlns:dc="http://purl.org/dc/elements/1.1/"
   xmlns:cc="http://creativecommons.org/ns#"
   xmlns:rdf="http://www.w3.org/1999/02/22-rdf-syntax-ns#"
   xmlns:svg="http://www.w3.org/2000/svg"
   xmlns="http://www.w3.org/2000/svg"
   viewBox="0 0 458.05865 52.444668"
   height="52.444668"
   width="458.05865"
   xml:space="preserve"
   id="svg2"
   version="1.1"><metadata
     id="metadata8"><rdf:RDF><cc:Work
         rdf:about=""><dc:format>image/svg+xml</dc:format><dc:type
           rdf:resource="http://purl.org/dc/dcmitype/StillImage" /></cc:Work></rdf:RDF></metadata><defs
     id="defs6"><clipPath
       id="clipPath18"
       clipPathUnits="userSpaceOnUse"><path
         id="path16"
         d="M 0,39.333 H 343.544 V 0 H 0 Z" /></clipPath></defs><g
     transform="matrix(1.3333333,0,0,-1.3333333,0,52.444667)"
     id="g10"><g
       id="g12"><g
         clip-path="url(#clipPath18)"
         id="g14"><text
           id="text22"
           style="font-variant:normal;font-weight:normal;font-stretch:normal;font-size:43px;font-family:Hensa;-inkscape-font-specification:Hensa-Regular;writing-mode:lr-tb;fill:#231f20;fill-opacity:1;fill-rule:nonzero;stroke:none"
           transform="matrix(1,0,0,-1,3.833,4.1172)"><tspan
             id="tspan20"
             y="0"
             x="0 16.598 35.948002 50.868999 71.595001 82.129997 92.708 103.501 121.131 141.85699 156.778 167.356 186.70599 199.606 217.23599 233.36099 248.49699 264.62201 284.66 305.38599 316.17899">Localitzacio Serenata</tspan></text>
<g
           transform="translate(183.9526,32.9785)"
           id="g24"><path
             id="path26"
             style="fill:#231f20;fill-opacity:1;fill-rule:nonzero;stroke:none"
             d="m 0,0 c -0.021,-0.006 -0.043,-0.007 -0.07,-0.024 -0.102,-0.054 -0.205,-0.097 -0.311,-0.137 -0.019,0.013 -0.037,0.024 -0.055,0.015 -0.023,-0.03 -0.06,-0.045 -0.098,-0.061 -0.091,-0.026 -0.18,-0.055 -0.278,-0.066 -0.066,-0.018 -0.132,-0.028 -0.193,-0.042 -0.002,0.018 -0.013,0.032 -0.045,0.041 l -0.058,0.013 c -0.059,0.015 -0.08,0.051 -0.066,0.109 -0.008,0.093 -0.008,0.093 -0.096,0.115 l 0.109,0.066 c 0.007,0.03 0.043,0.051 0.102,0.036 0.058,-0.013 0.122,0.001 0.143,-0.034 0.088,-0.021 0.124,0 0.183,-0.013 0.035,0.022 0.058,-0.015 0.079,-0.051 0.029,-0.008 0.058,-0.014 0.094,0.008 0.043,0.05 0.079,0.073 0.167,0.052 L -0.365,0.02 c 0.066,0.015 0.131,0.03 0.16,0.023 L -0.031,0 C -0.021,-0.002 -0.01,0 0,0 M -2.029,-0.129 C -2.043,-0.187 -2.071,-0.18 -2.13,-0.166 l -0.037,-0.021 c 0.038,-0.102 -0.071,-0.168 -0.114,-0.219 -0.036,-0.022 -0.065,-0.014 -0.065,-0.014 -0.087,0.021 -0.153,0.006 -0.224,0.084 -0.022,0.036 -0.095,-0.008 -0.131,-0.029 0,0 -0.036,-0.022 -0.043,-0.052 -0.036,-0.02 -0.081,0.051 -0.093,-0.007 -0.015,-0.058 0.049,-0.043 0.109,-0.058 0.043,-0.072 0.101,-0.086 0.202,-0.049 0.065,0.015 0.064,0.138 0.138,0.059 0.051,-0.044 0.087,-0.02 0.138,-0.064 0.017,-0.028 0.044,-0.043 0.072,-0.056 -0.05,0 -0.098,-0.004 -0.123,-0.029 -0.03,-0.029 -0.061,-0.03 -0.089,-0.031 0,0.031 -0.031,0.031 -0.06,0.029 -0.059,0.028 -0.089,-0.09 -0.148,-0.031 -0.062,0.058 -0.12,-0.032 -0.18,-0.002 -0.031,0.029 -0.059,-0.031 -0.09,-0.031 -0.09,0.058 -0.148,-0.002 -0.208,-0.094 -0.029,0 -0.029,-0.03 -0.059,-0.03 -0.09,0.029 -0.149,-0.032 -0.238,-0.092 -0.148,-0.092 -0.295,-0.213 -0.444,-0.275 -0.061,-0.015 0.291,0.252 0.635,0.516 0.049,0.008 0.098,0.014 0.143,0.041 0.024,0.027 0.035,0.068 0.05,0.107 0.241,0.188 0.433,0.34 0.399,0.34 -0.025,-0.004 -0.051,0.005 -0.078,0.02 0.035,0.009 0.079,-0.018 0.118,0.029 l -0.002,0.123 c 0.037,0.022 0.03,-0.008 0.059,-0.014 0.087,-0.022 0.18,-0.013 0.274,-0.005 0.066,0.013 0.094,0.007 0.124,0 0.058,-0.014 0.081,-0.05 0.066,-0.108 m -3.673,-3.073 c -0.031,0.059 -0.061,0.118 -0.031,0.148 0.059,0.061 0.089,10e-4 0.119,0.002 z m -0.343,1.219 c -0.114,-10e-4 -0.212,-0.002 -0.3,-0.003 l -0.03,0.042 c 0.042,-0.007 0.066,0.01 0.1,-0.038 0.015,0.043 0.016,0.078 0.01,0.112 0.074,-0.038 0.137,-0.071 0.22,-0.113 m -1.116,0.198 c 0.015,-0.014 0.023,-0.029 0.017,-0.053 0.002,-0.014 0.008,-0.024 0.012,-0.035 -0.014,0.008 -0.029,0.021 -0.041,0.023 l 0.006,0.041 c 0.002,0.01 0.003,0.016 0.006,0.024 m 0.314,-0.223 c 0.004,-0.004 0.006,-0.002 0.01,-0.008 0,0 0.017,-0.023 -0.007,-0.041 -0.042,0.007 -0.067,-0.009 -0.084,0.015 -0.018,0.024 0.007,0.042 0.007,0.042 0.017,0.012 0.037,0.016 0.058,0.004 C -6.95,-2 -6.923,-2.004 -6.847,-2.008 m 0.653,-0.037 c -0.038,-0.01 -0.064,-0.021 -0.094,-0.032 -0.01,0.013 -0.02,0.03 -0.028,0.048 0.08,-0.005 0.133,-0.01 0.122,-0.016 m 4.161,1.457 h -0.034 c 0.006,0.002 0.014,-0.001 0.02,0.002 0.057,0.014 0.093,0.029 0.141,0.024 -0.014,-0.012 -0.026,-0.024 -0.038,-0.024 -0.029,0.029 -0.059,-0.001 -0.089,-0.002 M 1.629,0.266 C 1.568,0.324 1.479,0.354 1.42,0.293 1.391,0.262 1.359,0.232 1.33,0.262 L 1.24,0.26 C 1.211,0.23 1.152,0.23 1.121,0.23 1.086,0.229 1.062,0.213 1.029,0.205 1.014,0.25 0.992,0.283 0.937,0.318 0.914,0.354 0.879,0.332 0.879,0.332 0.828,0.375 0.785,0.324 0.756,0.332 0.727,0.338 0.705,0.375 0.676,0.382 0.648,0.389 0.648,0.389 0.641,0.359 0.598,0.309 0.51,0.33 0.451,0.344 0.393,0.359 0.357,0.337 0.322,0.314 0.256,0.299 0.25,0.27 0.184,0.256 0.119,0.24 0.033,0.262 -0.047,0.312 L -0.092,0.384 C -0.115,0.42 -0.137,0.455 -0.207,0.412 -0.244,0.391 -0.273,0.397 -0.303,0.403 -0.324,0.439 -0.361,0.418 -0.367,0.389 -0.381,0.331 -0.396,0.273 -0.468,0.352 -0.498,0.359 -0.527,0.367 -0.563,0.344 -0.605,0.293 -0.642,0.271 -0.713,0.228 -0.72,0.198 -0.698,0.162 -0.742,0.111 -0.814,0.19 -0.887,0.27 -0.982,0.262 -1.01,0.27 -1.04,0.275 -1.046,0.247 -1.125,0.174 -1.212,0.195 -1.292,0.245 -1.343,0.288 -1.387,0.236 -1.438,0.281 c -0.05,0.042 -0.109,0.056 -0.174,0.041 0,0 -0.028,0.008 -0.021,0.037 C -1.678,0.431 -1.772,0.424 -1.836,0.408 -1.909,0.364 -1.974,0.35 -2.091,0.378 -2.12,0.384 -2.126,0.355 -2.164,0.334 -2.256,0.326 -2.365,0.26 -2.466,0.346 c 0,0 -0.03,0.008 -0.036,-0.022 C -2.612,0.258 -2.676,0.242 -2.785,0.3 -2.886,0.264 -2.973,0.285 -3.075,0.248 L -3.175,0.211 -3.21,0.189 C -3.284,0.268 -3.357,0.224 -3.421,0.209 -3.458,0.187 -3.524,0.172 -3.574,0.215 L -3.603,0.222 C -3.632,0.229 -3.682,0.148 -3.733,0.192 -3.791,0.206 -3.856,0.19 -3.92,0.176 -3.957,0.154 -4.023,0.139 -4.051,0.146 -4.117,0.131 -4.145,0.139 -4.204,0.153 -4.297,0.145 -4.414,0.173 -4.493,0.1 -4.53,0.078 -4.53,0.078 -4.557,0.086 -4.659,0.049 -4.782,0.048 -4.883,0.01 c -0.035,-0.022 -0.065,-0.014 -0.072,-0.043 -0.029,0.006 -0.094,-0.008 -0.094,-0.008 -0.11,0.057 -0.18,0.014 -0.253,-0.03 -0.065,-0.016 -0.101,-0.038 -0.13,-0.031 -0.066,-0.015 -0.109,-0.066 -0.167,-0.052 -0.145,0.035 -0.26,-0.059 -0.339,-0.132 -0.037,-0.022 -0.037,-0.022 -0.043,-0.052 -0.195,-0.044 -0.391,-0.212 -0.577,-0.228 -0.067,-0.014 -0.102,-0.036 -0.138,-0.059 -0.014,-0.059 -0.08,-0.072 -0.137,-0.059 -0.037,-0.021 -0.095,-0.007 -0.13,-0.03 -0.086,-0.1 -0.246,-0.124 -0.303,-0.233 -0.001,-0.003 -0.001,-0.006 -0.003,-0.009 -0.032,0.022 -0.059,0.049 -0.08,0.079 -0.073,-0.052 -0.087,-0.135 -0.119,-0.193 -0.025,-0.018 -0.025,-0.018 -0.007,-0.043 0.011,-0.016 0.008,-0.024 0.009,-0.033 -0.023,-0.026 -0.047,-0.051 -0.08,-0.071 -0.068,-0.024 -0.132,-0.072 -0.203,-0.114 -0.045,0.005 -0.093,-0.005 -0.133,-0.032 l -0.097,-0.07 c -0.028,0.091 0.062,0.119 0.077,0.201 0.007,0.042 0.021,0.125 0.053,0.183 -0.067,-0.01 -0.125,0.022 -0.208,0.036 -0.018,0.025 -0.011,0.067 0.014,0.083 0.024,0.018 0.066,0.01 0.108,0.004 0.024,0.017 0.041,-0.008 0.065,0.01 0.017,-0.025 0.066,0.01 0.032,0.059 -0.035,0.048 -0.093,0.08 -0.128,0.128 0.153,0.145 0.195,0.138 0.315,-0.033 0.025,0.018 0.008,0.042 -0.01,0.067 -0.009,0.066 -0.003,0.107 -0.037,0.156 -0.1,0.039 -0.177,0.094 -0.284,0.092 -0.042,0.008 -0.073,-0.051 -0.098,-0.069 -0.024,-0.017 -0.066,-0.009 -0.083,0.014 -0.017,0.025 -0.058,0.031 -0.1,0.039 -0.067,-0.01 -0.124,0.022 -0.167,0.028 -0.066,-0.009 -0.107,-0.002 -0.097,-0.069 -0.007,-0.041 -0.007,-0.041 -0.049,-0.033 -0.174,-0.014 -0.312,-0.076 -0.434,-0.162 -0.025,-0.017 -0.049,-0.033 -0.09,-0.027 -0.074,-0.051 -0.147,-0.104 -0.213,-0.113 -0.063,-0.118 -0.178,-0.163 -0.259,-0.257 0.011,-0.066 -0.055,-0.076 -0.104,-0.11 -0.032,-0.059 -0.038,-0.101 -0.105,-0.11 -0.024,-0.018 -0.007,-0.041 -0.007,-0.041 0.041,-0.008 0.035,-0.049 0.01,-0.067 -0.114,-0.045 -0.195,-0.138 -0.258,-0.256 -0.024,-0.016 -0.048,-0.034 -0.031,-0.058 -0.219,-0.155 -0.245,-0.43 -0.322,-0.63 -0.025,-0.018 -0.008,-0.042 -0.008,-0.042 0.076,-0.056 0.035,-0.049 -0.007,-0.041 -0.024,-0.018 -0.049,-0.035 -0.031,-0.059 0.017,-0.025 0.034,-0.049 0.026,-0.091 -0.006,-0.042 0.118,-0.063 0.021,-0.131 0.069,-0.098 0.055,-0.181 0.124,-0.279 l 0.102,-0.145 c 0.104,-0.147 0.183,-0.311 0.245,-0.449 l 0.224,-0.318 c 0.104,-0.146 0.19,-0.268 0.276,-0.389 0.155,-0.22 0.317,-0.398 0.472,-0.618 0,0 0.017,-0.023 0.059,-0.031 0.128,-0.129 0.248,-0.3 0.352,-0.445 0.017,-0.026 0.034,-0.049 0.027,-0.092 -0.007,-0.041 0.028,-0.09 0.062,-0.139 0.018,-0.024 0.01,-0.066 0.003,-0.107 -0.015,-0.084 0.021,-0.133 0.127,-0.129 0.043,-0.008 0.091,0.027 0.133,0.019 l 0.296,0.1 c 0.065,0.01 0.156,0.037 0.204,0.072 0.146,0.104 0.268,0.19 0.425,0.227 l 0.122,0.086 c 0.055,0.076 0.129,0.127 0.177,0.162 0.098,0.068 0.161,0.186 0.251,0.214 0.025,0.017 0.032,0.059 0.015,0.083 0.007,0.042 0.039,0.101 0.064,0.117 0.121,0.087 0.142,0.211 0.223,0.305 0.007,0.042 0.031,0.059 0.014,0.084 0.021,0.125 0.077,0.201 0.168,0.227 0.073,0.052 0.122,0.087 0.178,0.163 0.031,0.059 0.08,0.093 0.028,0.166 -0.034,0.049 0.015,0.083 0.062,0.118 0.025,0.017 0.032,0.058 0.039,0.101 -0.016,0.054 0.011,0.084 0.044,0.108 0.033,0.011 0.074,0.019 0.115,0.019 0.059,0.002 0.12,0.031 0.178,0.033 l 0.031,0.03 c -0.032,0.058 -0.002,0.088 0.026,0.12 0,0 0.029,0.03 0,0.03 -0.031,0.088 0.029,0.119 0.06,0.148 0.057,0.002 0.059,-0.058 0.089,-0.088 0.03,-0.029 0.06,-0.029 0.12,0.002 l 0.117,0.18 c 0.029,0.001 0.029,0.031 0,0.061 l -0.062,-10e-4 c -0.027,-0.089 -0.148,-0.003 -0.177,-0.092 -0.03,0 -0.06,0.028 -0.09,0.058 0,0.031 -0.001,0.06 0.029,0.06 0.06,0.002 0.089,0.031 0.117,0.092 0.029,0.031 0.029,0.031 0.061,0.03 0.058,10e-4 0.058,0.031 0.089,0.062 0.029,0.029 0.088,0.09 0.148,0.031 0,0 0.03,0 0.03,0.03 0.029,0.03 0.118,0.062 0.117,0.091 0.029,0.12 0.119,0.092 0.179,0.092 l 0.06,0.002 c 0.058,0.09 0.149,0.06 0.208,0.061 0.119,0.032 0.269,0.005 0.356,0.095 l 0.061,10e-4 c 0.06,-0.06 0.09,-0.029 0.119,10e-4 0.03,0.03 0.029,0.06 0.088,0.06 0.031,0.001 0.03,0.06 0.029,0.091 -0.031,0.03 -0.059,0.029 -0.059,0.029 -0.06,0 -0.119,-0.032 -0.179,-0.032 -0.001,0.03 0.028,0.09 -0.002,0.12 -0.028,-10e-4 0,0.029 0.03,0.029 0.03,-0.089 0.06,-0.029 0.089,0.002 0.03,0.029 0.059,0.06 0.119,0.031 0.06,0 0.15,0.002 0.178,0.092 0.058,0.06 0.117,0.121 0.209,0.062 h 0.029 c 0.059,0.09 0.238,0.093 0.236,0.242 -10e-4,0.03 0.059,0.031 0.089,0.001 0,0 0.001,-0.03 0.031,-0.029 0.031,-0.059 0.031,-0.089 0.089,-0.028 h 0.09 v -0.029 l 0.001,-0.031 c 0,-0.03 -0.059,-0.029 -0.059,-0.029 -0.06,-0.031 -0.119,-0.032 -0.178,-0.091 -0.06,-0.031 -0.119,-0.064 -0.179,-0.034 -0.091,0.029 -0.179,-0.062 -0.177,-0.152 -0.029,-0.09 -0.029,-0.09 -0.058,-0.119 0,-0.031 0.03,-0.031 0.058,-0.03 0.062,10e-4 0.121,0.032 0.21,0.003 0.031,0 0.089,0.031 0.119,0.092 0,0 0.029,0.029 0.06,0 0.061,-0.029 0.149,0.031 0.209,-0.027 l 0.029,10e-4 c 0.03,0.088 0.18,0.061 0.178,0.18 0.029,0.03 0.06,0.061 0.029,0.121 0,0.03 0.028,0.09 0.058,0.119 -0.06,0.03 -0.092,0.059 -0.12,0.059 l -10e-4,0.059 c 0.09,0.031 0.178,0.123 0.206,0.213 0.059,0.059 0.207,0.091 0.268,0.033 0.03,-0.03 0.06,-0.059 0.121,-0.059 0.058,0.002 0.058,0.061 0.087,0.121 0.06,-0.03 0.09,-0.088 0.15,-0.088 l 0.088,0.092 c 0.061,0.029 0.059,0.059 0.029,0.119 0.061,-0.029 0.119,10e-4 0.15,-0.088 0.002,-0.03 0.059,0 0.059,0 l 0.061,0.001 c 0.029,-0.029 0,-0.059 -0.03,-0.059 -0.087,-0.092 -0.208,-0.153 -0.355,-0.185 l -0.03,10e-4 c -0.06,-0.031 -0.087,-0.121 -0.057,-0.181 0,-0.03 0.03,0.001 0.061,-0.029 0.029,-0.03 0.059,-0.058 0.088,-0.028 0.09,0 0.18,0.002 0.239,0.062 0.028,0.032 0.059,0.061 0.117,0.092 0,0.03 0.03,0.06 0.089,0.061 0.091,0.002 0.119,0.09 0.209,0.062 l 0.058,0.091 c 0.031,-0.001 0.03,0.029 0,0.06 0,0 -0.03,0.029 -0.059,-0.002 -0.06,-0.03 -0.091,0.029 -0.152,0.088 0.059,0.059 0.119,0.09 0.179,0.062 0.06,-0.029 0.119,0 0.149,0.002 0.12,0.031 0.12,0.031 0.122,-0.059 0,-0.029 -0.031,-0.03 0,-0.059 0.03,0.001 0.089,0.031 0.148,0.001 0.002,-0.029 0.031,0.002 0.031,0.002 0.088,0.06 0.148,0.092 0.237,0.092 l 0.119,0.031 c 0.03,0.031 0.059,0.031 0.03,0.09 0,0 -0.032,0.059 -0.002,0.058 0.06,0.002 0.09,0.063 0.119,0.003 0.06,-0.028 0.15,-0.028 0.181,-0.087 0,-0.03 0.03,-0.029 0.059,0 0.029,0.001 0.059,0.032 0.061,0.061 0.058,0.031 0.058,0.031 0.117,0.002 0.06,10e-4 0.15,0.002 0.179,0.062 0.086,0.12 0.237,0.093 0.358,0.094 0.029,0 0.088,0.061 0.119,-0.027 0,0 0.059,0.029 0.088,0.029 0.092,0.002 0.209,0.033 0.267,0.123 l 0.032,0.03 c 0.148,0.003 0.146,0.152 0.205,0.242 0.029,0.002 0.029,0.06 0.029,0.089 -0.031,0.031 -0.062,0.061 -0.002,0.09 0.061,0.032 -0.002,0.09 0,0.119 0.028,0.032 0.088,0.032 0.057,0.09 0,0.062 0.058,0.152 -0.002,0.24 -0.031,0.03 0.027,0.061 -0.002,0.12" /></g></g></g></g></svg>